<svg xmlns="http://www.w3.org/2000/svg" xmlns:xlink="http://www.w3.org/1999/xlink" width="200" zoomAndPan="magnify" viewBox="0 0 150 149.999998" height="200" preserveAspectRatio="xMidYMid meet" version="1.0"><defs><clipPath id="e0a67eb4bd"><path d="M 27 124 L 51 124 L 51 147.75 L 27 147.75 Z M 27 124 " clip-rule="nonzero"/></clipPath><clipPath id="059a9f1ca9"><path d="M 97 124 L 121 124 L 121 147.75 L 97 147.75 Z M 97 124 " clip-rule="nonzero"/></clipPath></defs><path fill="#000000" d="M 6.378906 83.6875 C 6.609375 84.957031 7.878906 85.765625 9.03125 85.535156 C 10.300781 85.300781 11.109375 84.03125 10.878906 82.878906 C 10.070312 78.722656 9.722656 74.566406 9.722656 70.410156 C 9.722656 34.167969 39.273438 4.617188 75.519531 4.617188 C 111.765625 4.617188 141.3125 34.167969 141.3125 70.410156 C 141.3125 77.683594 140.160156 84.839844 137.851562 91.652344 C 137.390625 92.804688 138.082031 94.191406 139.351562 94.535156 C 139.582031 94.652344 139.8125 94.652344 140.042969 94.652344 C 140.96875 94.652344 141.890625 94.074219 142.238281 93.035156 C 144.660156 85.765625 145.929688 78.144531 145.929688 70.410156 C 145.929688 31.628906 114.304688 0 75.519531 0 C 36.734375 0 5.105469 31.628906 5.105469 70.410156 C 5.105469 74.796875 5.570312 79.300781 6.378906 83.6875 Z M 6.378906 83.6875 " fill-opacity="1" fill-rule="nonzero"/><path fill="#000000" d="M 77.828125 23.085938 L 77.828125 11.542969 C 77.828125 10.273438 76.789062 9.234375 75.519531 9.234375 C 74.25 9.234375 73.210938 10.273438 73.210938 11.542969 L 73.210938 23.085938 C 73.210938 24.355469 74.25 25.394531 75.519531 25.394531 C 76.789062 25.394531 77.828125 24.355469 77.828125 23.085938 Z M 77.828125 23.085938 " fill-opacity="1" fill-rule="nonzero"/><path fill="#000000" d="M 32.234375 27.125 C 31.308594 28.050781 31.308594 29.433594 32.234375 30.359375 L 40.429688 38.554688 C 40.890625 39.015625 41.46875 39.246094 42.042969 39.246094 C 42.621094 39.246094 43.199219 39.015625 43.660156 38.554688 C 44.585938 37.628906 44.585938 36.246094 43.660156 35.320312 L 35.464844 27.125 C 34.65625 26.203125 33.15625 26.203125 32.234375 27.125 Z M 32.234375 27.125 " fill-opacity="1" fill-rule="nonzero"/><path fill="#000000" d="M 115.457031 27.125 L 107.261719 35.320312 C 106.339844 36.246094 106.339844 37.628906 107.261719 38.554688 C 107.839844 39.015625 108.417969 39.246094 108.992188 39.246094 C 109.570312 39.246094 110.148438 39.015625 110.609375 38.554688 L 118.804688 30.359375 C 119.730469 29.433594 119.730469 28.050781 118.804688 27.125 C 117.882812 26.203125 116.382812 26.203125 115.457031 27.125 Z M 115.457031 27.125 " fill-opacity="1" fill-rule="nonzero"/><path fill="#000000" d="M 122.84375 68.101562 C 121.574219 68.101562 120.535156 69.140625 120.535156 70.410156 C 120.535156 71.683594 121.574219 72.71875 122.84375 72.71875 L 134.386719 72.71875 C 135.660156 72.71875 136.695312 71.683594 136.695312 70.410156 C 136.695312 69.140625 135.660156 68.101562 134.386719 68.101562 Z M 122.84375 68.101562 " fill-opacity="1" fill-rule="nonzero"/><path fill="#000000" d="M 16.648438 68.101562 C 15.378906 68.101562 14.339844 69.140625 14.339844 70.410156 C 14.339844 71.683594 15.378906 72.71875 16.648438 72.71875 L 28.191406 72.71875 C 29.464844 72.71875 30.5 71.683594 30.5 70.410156 C 30.5 69.140625 29.464844 68.101562 28.191406 68.101562 Z M 16.648438 68.101562 " fill-opacity="1" fill-rule="nonzero"/><g clip-path="url(#e0a67eb4bd)"><path fill="#000000" d="M 38.582031 124.664062 C 32.234375 124.664062 27.039062 129.859375 27.039062 136.207031 C 27.039062 142.554688 32.234375 147.75 38.582031 147.75 C 44.929688 147.75 50.125 142.554688 50.125 136.207031 C 50.125 129.859375 44.929688 124.664062 38.582031 124.664062 Z M 38.582031 143.132812 C 34.773438 143.132812 31.65625 140.015625 31.65625 136.207031 C 31.65625 132.398438 34.773438 129.28125 38.582031 129.28125 C 42.390625 129.28125 45.507812 132.398438 45.507812 136.207031 C 45.507812 140.015625 42.390625 143.132812 38.582031 143.132812 Z M 38.582031 143.132812 " fill-opacity="1" fill-rule="nonzero"/></g><path fill="#000000" d="M 148.816406 109.890625 C 147.546875 102.847656 137.734375 98.808594 116.957031 96.84375 C 111.878906 96.382812 107.492188 93.84375 102.53125 90.84375 C 94.910156 86.339844 85.445312 80.800781 69.746094 80.800781 C 45.625 80.800781 18.382812 90.613281 14.574219 91.996094 L 8.222656 91.996094 C 6.378906 91.996094 4.644531 93.152344 3.953125 94.769531 C 2.222656 99.269531 3.375 104.695312 4.070312 107.464844 C 3.492188 108.042969 3.144531 108.734375 2.683594 109.542969 C 0.144531 115.546875 2.453125 128.820312 3.953125 132.050781 C 4.644531 133.667969 6.03125 134.9375 7.761719 135.398438 L 18.035156 138.054688 C 19.074219 138.285156 20.113281 138.167969 20.921875 137.476562 C 21.730469 136.898438 22.304688 135.976562 22.304688 134.9375 C 23 126.625 30.039062 120.046875 38.351562 120.046875 C 46.894531 120.046875 53.933594 126.742188 54.511719 135.167969 C 54.625 137.015625 56.128906 138.398438 57.972656 138.398438 L 89.140625 138.398438 C 90.988281 138.398438 92.488281 137.015625 92.601562 135.167969 C 93.179688 126.625 100.222656 120.046875 108.761719 120.046875 C 117.304688 120.046875 124.347656 126.742188 124.921875 135.167969 C 125.039062 137.015625 126.539062 138.398438 128.386719 138.398438 L 130.234375 138.398438 C 138.890625 138.398438 144.660156 136.324219 147.433594 132.28125 C 149.855469 128.703125 149.164062 124.664062 148.703125 123.164062 C 149.164062 121.433594 149.855469 116.121094 148.816406 109.890625 Z M 134.734375 125.703125 L 144.777344 125.703125 C 144.894531 126.855469 144.894531 128.472656 143.855469 129.859375 C 142.007812 132.511719 137.390625 134.015625 130.464844 134.015625 L 129.65625 134.015625 C 128.5 123.625 119.613281 115.660156 108.992188 115.660156 C 98.488281 115.660156 89.601562 123.625 88.332031 134.015625 L 59.242188 134.015625 C 58.089844 123.625 49.203125 115.660156 38.582031 115.660156 C 28.308594 115.660156 19.535156 123.394531 18.035156 133.4375 L 9.03125 131.128906 C 8.6875 131.011719 8.453125 130.78125 8.222656 130.433594 C 7.070312 127.78125 5.105469 115.890625 7.070312 111.503906 C 7.300781 111.042969 7.414062 110.8125 7.53125 110.695312 L 11.339844 110.695312 C 12.609375 110.695312 13.648438 109.65625 13.648438 108.386719 C 13.648438 107.117188 12.609375 106.078125 11.339844 106.078125 L 8.453125 106.078125 C 7.761719 103.65625 7.070312 99.617188 8.222656 96.84375 L 15.035156 96.84375 C 15.265625 96.84375 15.613281 96.84375 15.84375 96.730469 C 16.1875 96.382812 45.160156 85.417969 69.746094 85.417969 C 84.175781 85.417969 92.71875 90.382812 100.105469 94.882812 C 105.414062 98 110.378906 100.886719 116.496094 101.460938 C 139.582031 103.65625 143.738281 108.15625 144.199219 110.695312 C 145.007812 114.96875 144.777344 118.890625 144.546875 120.96875 L 134.734375 120.96875 C 133.464844 120.96875 132.425781 122.007812 132.425781 123.277344 C 132.425781 124.546875 133.351562 125.703125 134.734375 125.703125 Z M 134.734375 125.703125 " fill-opacity="1" fill-rule="nonzero"/><path fill="#000000" d="M 104.375 102.5 C 102.066406 101.347656 99.992188 100.078125 97.796875 98.808594 C 90.523438 94.535156 82.90625 90.035156 69.746094 90.035156 C 47.933594 90.035156 30.15625 97.078125 26.691406 98.578125 C 25.769531 98.921875 25.191406 99.730469 25.191406 100.769531 L 25.191406 104.695312 C 25.191406 105.964844 26.230469 107.003906 27.5 107.003906 L 103.222656 107.003906 C 104.261719 107.003906 105.183594 106.3125 105.414062 105.273438 C 105.761719 104.003906 105.300781 102.964844 104.375 102.5 Z M 29.925781 102.269531 C 35.117188 100.191406 50.816406 94.652344 69.746094 94.652344 C 81.175781 94.652344 87.523438 98.113281 94.566406 102.269531 Z M 29.925781 102.269531 " fill-opacity="1" fill-rule="nonzero"/><g clip-path="url(#059a9f1ca9)"><path fill="#000000" d="M 120.535156 136.207031 C 120.535156 129.859375 115.34375 124.664062 108.992188 124.664062 C 102.644531 124.664062 97.449219 129.859375 97.449219 136.207031 C 97.449219 142.554688 102.644531 147.75 108.992188 147.75 C 115.34375 147.75 120.535156 142.554688 120.535156 136.207031 Z M 102.066406 136.207031 C 102.066406 132.398438 105.183594 129.28125 108.992188 129.28125 C 112.804688 129.28125 115.917969 132.398438 115.917969 136.207031 C 115.917969 140.015625 112.804688 143.132812 108.992188 143.132812 C 105.183594 143.132812 102.066406 140.015625 102.066406 136.207031 Z M 102.066406 136.207031 " fill-opacity="1" fill-rule="nonzero"/></g><path fill="#000000" d="M 101.144531 81.722656 C 101.375 81.839844 101.605469 81.839844 101.835938 81.839844 C 102.761719 81.839844 103.683594 81.261719 104.03125 80.222656 C 105.070312 77.105469 105.648438 73.875 105.648438 70.527344 C 105.648438 53.90625 92.140625 40.398438 75.519531 40.398438 C 69.863281 40.398438 64.4375 42.015625 59.707031 44.902344 L 50.703125 42.707031 C 49.894531 42.476562 49.085938 42.707031 48.507812 43.285156 C 47.933594 43.863281 47.699219 44.671875 47.933594 45.480469 L 50.703125 56.792969 C 50.816406 57.367188 51.164062 57.832031 51.625 58.175781 L 67.554688 68.679688 C 67.554688 69.257812 67.4375 69.835938 67.4375 70.410156 C 67.4375 74.914062 71.019531 78.492188 75.519531 78.492188 C 80.019531 78.492188 83.597656 74.914062 83.597656 70.410156 C 83.597656 65.910156 80.019531 62.332031 75.519531 62.332031 C 74.941406 62.332031 74.363281 62.449219 73.902344 62.449219 L 64.207031 47.789062 C 67.671875 46.054688 71.59375 45.132812 75.519531 45.132812 C 89.601562 45.132812 101.03125 56.558594 101.03125 70.644531 C 101.03125 73.414062 100.566406 76.183594 99.644531 78.839844 C 99.296875 79.992188 99.875 81.378906 101.144531 81.722656 Z M 75.519531 66.949219 C 77.480469 66.949219 78.980469 68.449219 78.980469 70.410156 C 78.980469 72.375 77.480469 73.875 75.519531 73.875 C 73.558594 73.875 72.054688 72.375 72.054688 70.410156 C 72.054688 68.449219 73.558594 66.949219 75.519531 66.949219 Z M 69.746094 64.640625 L 54.972656 54.945312 L 53.242188 48.25 L 59.9375 49.980469 Z M 69.746094 64.640625 " fill-opacity="1" fill-rule="nonzero"/></svg>