<svg xmlns="http://www.w3.org/2000/svg" xmlns:xlink="http://www.w3.org/1999/xlink" width="200" zoomAndPan="magnify" viewBox="0 0 150 149.999998" height="200" preserveAspectRatio="xMidYMid meet" version="1.0"><path fill="#000000" d="M 149.859375 81.378906 C 149.730469 80.476562 149.425781 79.636719 148.945312 78.859375 C 148.46875 78.082031 147.855469 77.433594 147.105469 76.910156 C 141.917969 73.324219 133.910156 67.753906 133.089844 67.109375 C 131.570312 65.910156 130.253906 64.515625 129.140625 62.933594 C 130.519531 62.570312 131.792969 61.972656 132.953125 61.140625 C 134.113281 60.308594 135.085938 59.300781 135.875 58.109375 C 136.050781 57.855469 136.175781 57.578125 136.242188 57.277344 C 136.308594 56.976562 136.316406 56.671875 136.265625 56.367188 C 136.210938 56.0625 136.105469 55.78125 135.9375 55.519531 C 135.773438 55.257812 135.566406 55.035156 135.3125 54.859375 C 135.058594 54.679688 134.78125 54.554688 134.480469 54.488281 C 134.179688 54.417969 133.875 54.410156 133.570312 54.464844 C 133.265625 54.515625 132.984375 54.625 132.722656 54.789062 C 132.457031 54.953125 132.238281 55.160156 132.058594 55.414062 C 131.550781 56.148438 130.9375 56.785156 130.21875 57.320312 C 131.398438 54.800781 132.082031 52.152344 132.273438 49.375 C 132.292969 49.066406 132.25 48.765625 132.148438 48.472656 C 132.046875 48.179688 131.890625 47.917969 131.6875 47.6875 C 131.480469 47.453125 131.238281 47.273438 130.957031 47.136719 C 130.679688 47 130.382812 46.925781 130.074219 46.90625 C 129.765625 46.890625 129.464844 46.933594 129.171875 47.035156 C 128.878906 47.136719 128.617188 47.289062 128.386719 47.496094 C 128.15625 47.703125 127.972656 47.945312 127.835938 48.222656 C 127.703125 48.503906 127.625 48.796875 127.609375 49.105469 C 127.523438 50.425781 127.28125 51.714844 126.886719 52.972656 C 123.339844 16.167969 90.78125 0.554688 90.429688 0.394531 C 90.058594 0.222656 89.671875 0.15625 89.265625 0.191406 C 89.089844 0.171875 88.914062 0.175781 88.738281 0.195312 C 88.5625 0.214844 88.394531 0.257812 88.226562 0.316406 C 88.0625 0.375 87.90625 0.453125 87.757812 0.550781 C 87.609375 0.644531 87.476562 0.757812 87.351562 0.882812 C 87.230469 1.011719 87.125 1.148438 87.03125 1.300781 C 86.941406 1.449219 86.871094 1.609375 86.816406 1.777344 C 86.761719 1.945312 86.726562 2.117188 86.710938 2.292969 C 86.695312 2.46875 86.699219 2.644531 86.726562 2.816406 C 90.257812 29.550781 86.214844 53.027344 73.996094 76.703125 L 73.308594 78.039062 C 62.386719 99.179688 48.792969 125.492188 65.242188 148.722656 C 65.421875 148.972656 65.640625 149.183594 65.902344 149.347656 C 66.164062 149.511719 66.449219 149.621094 66.753906 149.671875 C 67.058594 149.722656 67.363281 149.714844 67.664062 149.644531 C 67.964844 149.578125 68.242188 149.453125 68.496094 149.273438 C 68.75 149.097656 68.957031 148.875 69.121094 148.613281 C 69.289062 148.351562 69.394531 148.070312 69.449219 147.765625 C 69.5 147.460938 69.492188 147.15625 69.425781 146.855469 C 69.355469 146.550781 69.234375 146.273438 69.054688 146.023438 C 54.25 125.113281 66.582031 101.242188 77.460938 80.179688 L 78.148438 78.84375 C 90.160156 55.570312 94.542969 32.480469 91.855469 6.535156 C 100.535156 11.859375 122.800781 28.601562 122.539062 60.082031 C 122.539062 60.371094 122.585938 60.648438 122.6875 60.917969 C 124.347656 64.855469 126.855469 68.144531 130.207031 70.789062 C 131.402344 71.722656 143.113281 79.832031 144.46875 80.769531 C 144.832031 81.039062 145.082031 81.390625 145.207031 81.824219 C 145.167969 82.238281 144.992188 82.585938 144.683594 82.867188 C 142.71875 83.964844 133.910156 89.332031 134.898438 96.824219 C 134.917969 96.957031 134.945312 97.089844 134.988281 97.214844 C 135.453125 98.5 136.152344 99.644531 137.078125 100.648438 C 138.003906 101.65625 139.085938 102.445312 140.324219 103.015625 C 140.398438 103.171875 140.421875 103.335938 140.394531 103.507812 C 140.261719 104.085938 139.199219 105.109375 136.648438 106.082031 C 136.195312 106.257812 135.832031 106.546875 135.558594 106.949219 C 135.285156 107.351562 135.148438 107.792969 135.152344 108.28125 C 135.152344 108.769531 135.296875 109.210938 135.574219 109.609375 C 135.855469 110.007812 136.222656 110.292969 136.675781 110.460938 C 137.800781 110.878906 139.621094 111.980469 139.949219 113.023438 C 140 113.183594 140.148438 113.660156 139.503906 114.59375 C 139.351562 114.8125 139.3125 114.816406 139.257812 115.023438 C 138.632812 115.78125 137.867188 116.347656 136.953125 116.714844 C 136.726562 116.824219 136.523438 116.964844 136.339844 117.140625 C 135.953125 117.511719 134.105469 119.601562 135.707031 124.09375 C 135.769531 124.269531 135.855469 124.441406 135.957031 124.597656 C 135.988281 124.640625 138.859375 129.09375 137.378906 133.09375 C 136.359375 135.839844 133.457031 137.933594 128.746094 139.316406 C 121.824219 139.980469 114.960938 139.585938 108.15625 138.140625 C 108.078125 138.125 107.996094 138.113281 107.917969 138.101562 C 107.417969 138.046875 95.667969 136.839844 87.417969 145.789062 C 87.207031 146.015625 87.050781 146.273438 86.945312 146.566406 C 86.835938 146.855469 86.789062 147.15625 86.804688 147.464844 C 86.816406 147.773438 86.886719 148.070312 87.019531 148.351562 C 87.148438 148.632812 87.328125 148.878906 87.554688 149.085938 C 87.78125 149.296875 88.042969 149.457031 88.332031 149.5625 C 88.621094 149.667969 88.921875 149.714844 89.230469 149.703125 C 89.539062 149.691406 89.835938 149.621094 90.117188 149.492188 C 90.398438 149.359375 90.644531 149.183594 90.855469 148.953125 C 97.113281 142.164062 106.265625 142.65625 107.300781 142.738281 C 114.644531 144.304688 122.050781 144.699219 129.523438 143.929688 C 129.636719 143.914062 129.75 143.890625 129.863281 143.859375 C 136.203125 142.035156 140.210938 138.949219 141.773438 134.679688 C 143.8125 129.113281 140.824219 123.609375 140.03125 122.296875 C 139.816406 121.726562 139.71875 121.140625 139.742188 120.53125 C 141.328125 119.757812 142.566406 118.609375 143.457031 117.089844 C 144.035156 116.300781 144.410156 115.421875 144.574219 114.453125 C 144.742188 113.488281 144.683594 112.535156 144.398438 111.597656 C 143.960938 110.332031 143.226562 109.269531 142.203125 108.40625 C 143.601562 107.464844 144.519531 106.175781 144.949219 104.546875 C 145.132812 103.644531 145.101562 102.753906 144.855469 101.867188 C 144.613281 100.980469 144.179688 100.195312 143.558594 99.515625 C 143.308594 99.246094 143.007812 99.050781 142.660156 98.925781 C 141.957031 98.667969 141.332031 98.28125 140.785156 97.769531 C 140.238281 97.257812 139.8125 96.660156 139.507812 95.976562 C 139.207031 91.914062 144.925781 88.003906 147.195312 86.820312 C 147.410156 86.707031 147.605469 86.566406 147.777344 86.398438 C 148.492188 85.769531 149.035156 85.011719 149.402344 84.128906 C 149.769531 83.25 149.921875 82.332031 149.859375 81.378906 Z M 149.859375 81.378906 " fill-opacity="1" fill-rule="nonzero"/><path fill="#000000" d="M 91.765625 85.339844 L 92.367188 84.21875 C 92.511719 83.945312 92.597656 83.65625 92.628906 83.347656 C 92.660156 83.039062 92.628906 82.738281 92.539062 82.441406 C 92.449219 82.144531 92.304688 81.878906 92.109375 81.636719 C 91.910156 81.398438 91.675781 81.207031 91.402344 81.058594 C 91.128906 80.914062 90.839844 80.828125 90.53125 80.796875 C 90.222656 80.765625 89.921875 80.796875 89.625 80.886719 C 89.328125 80.976562 89.0625 81.117188 88.820312 81.3125 C 88.582031 81.511719 88.390625 81.746094 88.242188 82.019531 L 87.644531 83.140625 C 78.105469 100.988281 66.230469 123.203125 80.667969 142.910156 C 80.851562 143.160156 81.074219 143.363281 81.339844 143.527344 C 81.605469 143.6875 81.890625 143.789062 82.195312 143.835938 C 82.503906 143.882812 82.804688 143.871094 83.105469 143.796875 C 83.40625 143.722656 83.683594 143.59375 83.933594 143.414062 C 84.179688 143.230469 84.386719 143.003906 84.546875 142.742188 C 84.707031 142.476562 84.8125 142.191406 84.859375 141.886719 C 84.90625 141.578125 84.894531 141.277344 84.820312 140.976562 C 84.75 140.675781 84.621094 140.398438 84.4375 140.148438 C 71.738281 122.8125 82.378906 102.90625 91.765625 85.339844 Z M 91.765625 85.339844 " fill-opacity="1" fill-rule="nonzero"/><path fill="#000000" d="M 40.070312 16.625 C 40.101562 15.214844 39.941406 13.828125 39.582031 12.464844 C 39.226562 11.097656 38.6875 9.808594 37.96875 8.59375 C 37.25 7.382812 36.375 6.289062 35.351562 5.320312 C 34.324219 4.351562 33.1875 3.542969 31.933594 2.894531 C 28.390625 1.023438 24.617188 0.117188 20.613281 0.175781 C 17.867188 0.140625 15.183594 0.539062 12.5625 1.371094 C 9.945312 2.199219 7.519531 3.421875 5.292969 5.027344 C 0.746094 8.492188 0.00390625 14.449219 0.46875 19.710938 C 1.363281 29.8125 8.128906 39.878906 13.050781 48.707031 C 13.066406 48.738281 13.132812 48.886719 13.199219 49.019531 L 13.199219 143.867188 C 13.199219 144.25 13.238281 144.628906 13.3125 145.007812 C 13.386719 145.382812 13.5 145.746094 13.644531 146.101562 C 13.792969 146.457031 13.972656 146.792969 14.183594 147.113281 C 14.398438 147.429688 14.640625 147.726562 14.910156 147.996094 C 15.183594 148.269531 15.476562 148.511719 15.796875 148.722656 C 16.117188 148.9375 16.453125 149.117188 16.808594 149.261719 C 17.160156 149.410156 17.527344 149.519531 17.902344 149.59375 C 18.277344 149.671875 18.660156 149.707031 19.042969 149.707031 L 21.378906 149.707031 C 21.761719 149.707031 22.140625 149.671875 22.519531 149.59375 C 22.894531 149.519531 23.257812 149.410156 23.613281 149.261719 C 23.96875 149.117188 24.304688 148.9375 24.625 148.722656 C 24.941406 148.511719 25.238281 148.269531 25.507812 147.996094 C 25.78125 147.726562 26.023438 147.429688 26.234375 147.113281 C 26.449219 146.792969 26.628906 146.457031 26.773438 146.101562 C 26.921875 145.746094 27.03125 145.382812 27.109375 145.007812 C 27.183594 144.628906 27.21875 144.25 27.21875 143.867188 L 27.21875 49.027344 C 30.714844 44.050781 40.070312 29.789062 40.070312 16.625 Z M 22.546875 53.914062 L 17.875 53.914062 L 17.875 49.242188 L 22.546875 49.242188 Z M 5.125 19.300781 C 4.671875 14.160156 5.679688 10.609375 8.125 8.746094 C 9.945312 7.445312 11.921875 6.460938 14.058594 5.796875 C 16.191406 5.128906 18.378906 4.8125 20.613281 4.847656 C 23.8125 4.796875 26.832031 5.507812 29.667969 6.984375 C 30.558594 7.429688 31.367188 7.988281 32.09375 8.667969 C 32.820312 9.34375 33.4375 10.109375 33.945312 10.964844 C 34.453125 11.820312 34.832031 12.726562 35.078125 13.691406 C 35.324219 14.652344 35.429688 15.632812 35.398438 16.625 C 35.398438 26.847656 28.652344 38.503906 24.609375 44.566406 L 22.546875 44.566406 L 22.546875 39.894531 C 22.546875 39.585938 22.488281 39.285156 22.367188 39 C 22.25 38.714844 22.082031 38.460938 21.863281 38.242188 C 21.644531 38.023438 21.390625 37.855469 21.105469 37.734375 C 20.816406 37.617188 20.519531 37.558594 20.210938 37.558594 C 19.902344 37.558594 19.601562 37.617188 19.316406 37.734375 C 19.03125 37.855469 18.777344 38.023438 18.558594 38.242188 C 18.339844 38.460938 18.171875 38.714844 18.050781 39 C 17.933594 39.285156 17.875 39.585938 17.875 39.894531 L 17.875 44.566406 L 16.078125 44.566406 C 15.601562 43.734375 15.113281 42.890625 14.609375 42.015625 C 10.269531 34.507812 5.78125 26.746094 5.125 19.300781 Z M 21.378906 145.035156 L 19.042969 145.035156 C 18.886719 145.035156 18.738281 145.003906 18.59375 144.945312 C 18.453125 144.886719 18.324219 144.800781 18.214844 144.691406 C 18.105469 144.582031 18.023438 144.457031 17.964844 144.3125 C 17.902344 144.171875 17.875 144.023438 17.875 143.867188 L 17.875 58.585938 L 22.546875 58.585938 L 22.546875 143.867188 C 22.546875 144.023438 22.515625 144.171875 22.457031 144.3125 C 22.398438 144.457031 22.3125 144.582031 22.203125 144.691406 C 22.09375 144.800781 21.96875 144.886719 21.824219 144.945312 C 21.683594 145.003906 21.535156 145.035156 21.378906 145.035156 Z M 21.378906 145.035156 " fill-opacity="1" fill-rule="nonzero"/><path fill="#000000" d="M 50.585938 89.175781 L 50.585938 81.949219 C 50.582031 81.488281 50.496094 81.039062 50.316406 80.609375 C 50.136719 80.179688 49.886719 79.800781 49.558594 79.472656 C 49.226562 79.144531 48.847656 78.890625 48.421875 78.714844 C 47.992188 78.535156 47.542969 78.445312 47.078125 78.445312 L 44.742188 78.445312 L 44.742188 54.582031 C 46.234375 54.074219 47.390625 53.152344 48.210938 51.8125 C 51.960938 45.648438 45.8125 33.097656 44.542969 30.644531 C 44.335938 30.230469 44.03125 29.90625 43.628906 29.679688 C 43.222656 29.449219 42.792969 29.351562 42.332031 29.386719 C 41.871094 29.414062 41.453125 29.5625 41.082031 29.835938 C 40.710938 30.109375 40.445312 30.464844 40.28125 30.894531 L 35.957031 42.394531 C 35.925781 42.484375 35.894531 42.574219 35.875 42.667969 C 34.15625 49.789062 37.464844 53.375 40.070312 54.621094 L 40.070312 78.445312 L 37.734375 78.445312 C 37.269531 78.445312 36.824219 78.535156 36.394531 78.714844 C 35.964844 78.890625 35.585938 79.144531 35.257812 79.472656 C 34.929688 79.800781 34.675781 80.179688 34.496094 80.609375 C 34.320312 81.039062 34.230469 81.488281 34.230469 81.949219 L 34.230469 89.175781 C 33.886719 89.296875 33.574219 89.464844 33.285156 89.683594 C 32.996094 89.898438 32.75 90.15625 32.539062 90.449219 C 32.328125 90.742188 32.171875 91.0625 32.058594 91.40625 C 31.949219 91.75 31.894531 92.105469 31.894531 92.464844 L 31.894531 142.699219 C 31.894531 143.160156 31.9375 143.613281 32.027344 144.066406 C 32.117188 144.515625 32.253906 144.953125 32.429688 145.378906 C 32.605469 145.804688 32.820312 146.207031 33.078125 146.589844 C 33.332031 146.972656 33.621094 147.328125 33.949219 147.652344 C 34.273438 147.976562 34.628906 148.269531 35.007812 148.523438 C 35.390625 148.78125 35.796875 148.996094 36.222656 149.171875 C 36.644531 149.347656 37.082031 149.480469 37.535156 149.570312 C 37.988281 149.664062 38.441406 149.707031 38.902344 149.707031 L 45.910156 149.707031 C 46.371094 149.707031 46.828125 149.664062 47.277344 149.570312 C 47.730469 149.480469 48.167969 149.347656 48.59375 149.171875 C 49.015625 148.996094 49.421875 148.78125 49.804688 148.523438 C 50.1875 148.269531 50.539062 147.976562 50.867188 147.652344 C 51.191406 147.328125 51.480469 146.972656 51.738281 146.589844 C 51.992188 146.207031 52.207031 145.804688 52.386719 145.378906 C 52.5625 144.953125 52.695312 144.515625 52.785156 144.066406 C 52.875 143.613281 52.921875 143.160156 52.921875 142.699219 L 52.921875 92.464844 C 52.917969 92.105469 52.863281 91.75 52.753906 91.40625 C 52.644531 91.0625 52.484375 90.742188 52.273438 90.449219 C 52.066406 90.15625 51.816406 89.898438 51.527344 89.683594 C 51.238281 89.464844 50.925781 89.296875 50.585938 89.175781 Z M 40.382812 43.898438 L 42.644531 37.882812 C 44.355469 42.398438 45.480469 47.316406 44.21875 49.386719 C 44.0625 49.644531 43.664062 50.300781 42.074219 50.398438 C 41.226562 49.984375 39.316406 48.515625 40.382812 43.898438 Z M 36.566406 94.800781 L 48.246094 94.800781 L 48.246094 99.472656 L 36.566406 99.472656 Z M 45.910156 83.121094 L 45.910156 88.960938 L 38.902344 88.960938 L 38.902344 83.121094 Z M 45.910156 145.035156 L 38.902344 145.035156 C 38.59375 145.035156 38.292969 144.976562 38.007812 144.855469 C 37.722656 144.738281 37.46875 144.570312 37.25 144.351562 C 37.03125 144.128906 36.863281 143.878906 36.746094 143.59375 C 36.625 143.304688 36.566406 143.007812 36.566406 142.699219 L 36.566406 104.148438 L 48.246094 104.148438 L 48.246094 142.699219 C 48.246094 143.007812 48.1875 143.304688 48.070312 143.59375 C 47.949219 143.878906 47.78125 144.128906 47.5625 144.351562 C 47.34375 144.570312 47.089844 144.738281 46.804688 144.855469 C 46.519531 144.976562 46.222656 145.035156 45.910156 145.035156 Z M 45.910156 145.035156 " fill-opacity="1" fill-rule="nonzero"/><path fill="#000000" d="M 57.691406 25.5 C 57.617188 25.941406 57.667969 26.367188 57.839844 26.78125 C 58.015625 27.191406 58.285156 27.527344 58.648438 27.785156 C 59.015625 28.042969 59.421875 28.183594 59.867188 28.207031 C 60.316406 28.234375 60.734375 28.136719 61.125 27.921875 L 65.769531 25.351562 L 70.417969 27.921875 C 70.808594 28.136719 71.226562 28.234375 71.675781 28.207031 C 72.121094 28.183594 72.527344 28.042969 72.894531 27.785156 C 73.257812 27.527344 73.527344 27.191406 73.703125 26.78125 C 73.875 26.367188 73.925781 25.941406 73.851562 25.5 L 72.941406 19.898438 L 76.789062 15.957031 C 77.09375 15.640625 77.296875 15.273438 77.394531 14.84375 C 77.492188 14.417969 77.472656 13.996094 77.332031 13.582031 C 77.195312 13.167969 76.957031 12.816406 76.621094 12.535156 C 76.285156 12.253906 75.902344 12.078125 75.46875 12.015625 L 70.246094 11.214844 L 67.886719 6.191406 C 67.695312 5.78125 67.40625 5.457031 67.023438 5.210938 C 66.640625 4.96875 66.222656 4.847656 65.769531 4.847656 C 65.320312 4.847656 64.902344 4.96875 64.519531 5.210938 C 64.136719 5.457031 63.847656 5.78125 63.65625 6.191406 L 61.296875 11.214844 L 56.074219 12.015625 C 55.640625 12.078125 55.257812 12.253906 54.921875 12.535156 C 54.585938 12.816406 54.347656 13.167969 54.210938 13.582031 C 54.070312 13.996094 54.050781 14.417969 54.148438 14.84375 C 54.246094 15.273438 54.449219 15.640625 54.753906 15.957031 L 58.601562 19.902344 Z M 63.238281 15.644531 C 63.621094 15.585938 63.96875 15.441406 64.28125 15.207031 C 64.59375 14.976562 64.832031 14.683594 65 14.328125 L 65.769531 12.683594 L 66.542969 14.328125 C 66.710938 14.683594 66.949219 14.976562 67.261719 15.207031 C 67.574219 15.441406 67.921875 15.585938 68.304688 15.644531 L 70.269531 15.945312 L 68.773438 17.480469 C 68.511719 17.746094 68.328125 18.058594 68.214844 18.410156 C 68.105469 18.765625 68.078125 19.125 68.136719 19.488281 L 68.46875 21.503906 L 66.902344 20.636719 C 66.550781 20.445312 66.171875 20.347656 65.769531 20.347656 C 65.371094 20.347656 64.992188 20.445312 64.640625 20.636719 L 63.074219 21.503906 L 63.402344 19.488281 C 63.464844 19.125 63.4375 18.765625 63.328125 18.410156 C 63.214844 18.058594 63.03125 17.746094 62.769531 17.480469 L 61.273438 15.945312 Z M 63.238281 15.644531 " fill-opacity="1" fill-rule="nonzero"/></svg>