<svg xmlns="http://www.w3.org/2000/svg" xmlns:xlink="http://www.w3.org/1999/xlink" width="200" zoomAndPan="magnify" viewBox="0 0 150 149.999998" height="200" preserveAspectRatio="xMidYMid meet" version="1.0"><path fill="#000000" d="M 42.1875 31.640625 L 39.84375 31.640625 C 38.554688 31.640625 37.5 32.695312 37.5 33.984375 C 37.5 35.273438 38.554688 36.328125 39.84375 36.328125 L 42.1875 36.328125 C 43.476562 36.328125 44.53125 35.273438 44.53125 33.984375 C 44.53125 32.695312 43.476562 31.640625 42.1875 31.640625 Z M 42.1875 31.640625 " fill-opacity="1" fill-rule="nonzero"/><path fill="#000000" d="M 53.90625 31.640625 L 51.5625 31.640625 C 50.273438 31.640625 49.21875 32.695312 49.21875 33.984375 C 49.21875 35.273438 50.273438 36.328125 51.5625 36.328125 L 53.90625 36.328125 C 55.195312 36.328125 56.25 35.273438 56.25 33.984375 C 56.25 32.695312 55.195312 31.640625 53.90625 31.640625 Z M 53.90625 31.640625 " fill-opacity="1" fill-rule="nonzero"/><path fill="#000000" d="M 42.1875 41.015625 L 39.84375 41.015625 C 38.554688 41.015625 37.5 42.070312 37.5 43.359375 C 37.5 44.648438 38.554688 45.703125 39.84375 45.703125 L 42.1875 45.703125 C 43.476562 45.703125 44.53125 44.648438 44.53125 43.359375 C 44.53125 42.070312 43.476562 41.015625 42.1875 41.015625 Z M 42.1875 41.015625 " fill-opacity="1" fill-rule="nonzero"/><path fill="#000000" d="M 42.1875 50.390625 L 39.84375 50.390625 C 38.554688 50.390625 37.5 51.445312 37.5 52.734375 C 37.5 54.023438 38.554688 55.078125 39.84375 55.078125 L 42.1875 55.078125 C 43.476562 55.078125 44.53125 54.023438 44.53125 52.734375 C 44.53125 51.445312 43.476562 50.390625 42.1875 50.390625 Z M 42.1875 50.390625 " fill-opacity="1" fill-rule="nonzero"/><path fill="#000000" d="M 42.1875 59.765625 L 39.84375 59.765625 C 38.554688 59.765625 37.5 60.820312 37.5 62.109375 C 37.5 63.398438 38.554688 64.453125 39.84375 64.453125 L 42.1875 64.453125 C 43.476562 64.453125 44.53125 63.398438 44.53125 62.109375 C 44.53125 60.820312 43.476562 59.765625 42.1875 59.765625 Z M 42.1875 59.765625 " fill-opacity="1" fill-rule="nonzero"/><path fill="#000000" d="M 42.1875 69.140625 L 39.84375 69.140625 C 38.554688 69.140625 37.5 70.195312 37.5 71.484375 C 37.5 72.773438 38.554688 73.828125 39.84375 73.828125 L 42.1875 73.828125 C 43.476562 73.828125 44.53125 72.773438 44.53125 71.484375 C 44.53125 70.195312 43.476562 69.140625 42.1875 69.140625 Z M 42.1875 69.140625 " fill-opacity="1" fill-rule="nonzero"/><path fill="#000000" d="M 55.898438 42.1875 C 55.546875 41.484375 54.726562 41.015625 53.90625 41.015625 L 51.5625 41.015625 C 50.273438 41.015625 49.21875 42.070312 49.21875 43.359375 C 49.21875 44.648438 50.273438 45.703125 51.5625 45.703125 L 53.085938 45.703125 C 53.671875 44.296875 54.609375 43.007812 55.898438 42.1875 Z M 55.898438 42.1875 " fill-opacity="1" fill-rule="nonzero"/><path fill="#000000" d="M 52.734375 50.390625 L 51.5625 50.390625 C 50.273438 50.390625 49.21875 51.445312 49.21875 52.734375 C 49.21875 54.023438 50.273438 55.078125 51.5625 55.078125 L 52.734375 55.078125 Z M 52.734375 50.390625 " fill-opacity="1" fill-rule="nonzero"/><path fill="#000000" d="M 52.734375 59.765625 L 51.5625 59.765625 C 50.273438 59.765625 49.21875 60.820312 49.21875 62.109375 C 49.21875 63.398438 50.273438 64.453125 51.5625 64.453125 L 52.734375 64.453125 Z M 52.734375 59.765625 " fill-opacity="1" fill-rule="nonzero"/><path fill="#000000" d="M 49.21875 71.484375 C 49.21875 72.773438 50.273438 73.828125 51.5625 73.828125 L 52.734375 73.828125 L 52.734375 69.140625 L 51.5625 69.140625 C 50.273438 69.140625 49.21875 70.195312 49.21875 71.484375 Z M 49.21875 71.484375 " fill-opacity="1" fill-rule="nonzero"/><path fill="#000000" d="M 71.484375 130.078125 C 96.679688 130.078125 117.65625 111.210938 120.46875 86.25 C 120.703125 84.492188 120.703125 82.617188 120.703125 80.859375 C 120.703125 79.570312 119.648438 78.515625 118.359375 78.515625 L 80.859375 78.515625 L 80.859375 48.046875 C 80.859375 46.757812 79.804688 45.703125 78.515625 45.703125 L 59.765625 45.703125 C 58.476562 45.703125 57.421875 46.757812 57.421875 48.046875 L 57.421875 78.515625 L 35.15625 78.515625 L 35.15625 24.609375 L 58.59375 24.609375 L 58.59375 41.132812 C 58.945312 41.015625 59.414062 41.015625 59.765625 41.015625 L 63.28125 41.015625 L 63.28125 24.609375 C 63.28125 22.03125 61.171875 19.921875 58.59375 19.921875 L 35.15625 19.921875 C 32.578125 19.921875 30.46875 22.03125 30.46875 24.609375 L 30.46875 78.515625 L 24.609375 78.515625 C 23.320312 78.515625 22.265625 79.570312 22.265625 80.859375 C 22.265625 108.046875 44.296875 130.078125 71.484375 130.078125 Z M 73.828125 125.039062 L 73.828125 105.9375 C 78.28125 106.171875 82.851562 107.226562 87.070312 108.867188 C 83.789062 117.539062 79.101562 123.632812 73.828125 125.039062 Z M 91.289062 110.859375 C 93.867188 112.265625 96.445312 114.023438 98.671875 116.015625 C 94.335938 119.414062 89.296875 121.992188 83.90625 123.515625 C 86.835938 120.351562 89.296875 116.015625 91.289062 110.859375 Z M 69.140625 125.039062 C 63.867188 123.632812 59.179688 117.539062 55.898438 108.75 C 60.117188 107.109375 64.6875 106.171875 69.140625 105.9375 Z M 58.945312 123.632812 C 53.4375 121.992188 48.398438 119.414062 44.0625 115.898438 C 46.40625 113.90625 48.984375 112.148438 51.5625 110.742188 C 53.554688 115.898438 56.132812 120.351562 58.945312 123.632812 Z M 102.304688 112.96875 C 99.375 110.273438 96.210938 108.164062 92.8125 106.40625 C 94.921875 99.609375 96.09375 91.757812 96.328125 83.203125 L 115.898438 83.203125 C 115.898438 84.023438 115.78125 84.84375 115.664062 85.78125 C 114.609375 96.445312 109.6875 106.054688 102.304688 112.96875 Z M 91.640625 83.203125 C 91.40625 90.9375 90.351562 98.203125 88.476562 104.414062 C 83.789062 102.539062 78.75 101.484375 73.828125 101.25 L 73.828125 83.203125 Z M 62.109375 50.390625 L 76.171875 50.390625 L 76.171875 78.515625 L 62.109375 78.515625 Z M 59.765625 83.203125 L 69.140625 83.203125 L 69.140625 101.132812 C 64.101562 101.367188 59.179688 102.421875 54.375 104.179688 C 52.617188 97.96875 51.445312 90.703125 51.328125 83.085938 L 59.765625 83.085938 Z M 46.640625 83.203125 C 46.875 91.640625 48.046875 99.492188 50.039062 106.171875 C 46.640625 107.929688 43.476562 110.15625 40.429688 112.734375 C 32.578125 105.117188 27.539062 94.6875 26.953125 83.085938 L 46.640625 83.085938 Z M 46.640625 83.203125 " fill-opacity="1" fill-rule="nonzero"/><path fill="#000000" d="M 92.578125 76.171875 L 123.046875 76.171875 C 125.625 76.171875 127.734375 74.0625 127.734375 71.484375 L 127.734375 50.390625 C 127.734375 47.8125 125.625 45.703125 123.046875 45.703125 L 116.015625 45.703125 L 116.015625 43.359375 C 116.015625 40.78125 113.90625 38.671875 111.328125 38.671875 L 104.296875 38.671875 C 101.71875 38.671875 99.609375 40.78125 99.609375 43.359375 L 99.609375 45.703125 L 92.578125 45.703125 C 90 45.703125 87.890625 47.8125 87.890625 50.390625 L 87.890625 71.484375 C 87.890625 74.0625 90 76.171875 92.578125 76.171875 Z M 92.578125 71.484375 L 92.578125 52.96875 L 105.46875 62.109375 L 105.46875 63.28125 C 105.46875 64.570312 106.523438 65.625 107.8125 65.625 C 109.101562 65.625 110.15625 64.570312 110.15625 63.28125 L 110.15625 62.109375 L 123.046875 52.851562 L 123.046875 71.367188 L 92.578125 71.367188 Z M 101.953125 50.390625 L 118.59375 50.390625 L 107.8125 58.007812 L 97.03125 50.390625 Z M 104.296875 43.359375 L 111.328125 43.359375 L 111.328125 45.703125 L 104.296875 45.703125 Z M 104.296875 43.359375 " fill-opacity="1" fill-rule="nonzero"/><path fill="#000000" d="M 34.21875 17.695312 C 46.171875 9.257812 60.234375 4.6875 75 4.6875 C 113.789062 4.6875 145.3125 36.210938 145.3125 75 C 145.3125 87.890625 141.914062 100.3125 135.351562 111.210938 L 134.882812 106.289062 C 134.765625 105 133.59375 104.0625 132.304688 104.179688 C 131.015625 104.296875 130.078125 105.46875 130.195312 106.757812 L 131.367188 118.476562 C 131.367188 118.710938 131.484375 118.945312 131.601562 119.179688 C 131.601562 119.179688 131.601562 119.179688 131.601562 119.296875 C 131.953125 120.234375 132.890625 120.703125 133.710938 120.703125 C 134.0625 120.703125 134.296875 120.585938 134.648438 120.46875 L 146.25 115.546875 C 147.421875 115.078125 148.007812 113.671875 147.421875 112.5 C 146.953125 111.328125 145.546875 110.742188 144.375 111.328125 L 139.453125 113.4375 C 146.367188 101.835938 150 88.710938 150 75.117188 C 150 33.75 116.367188 0.117188 75 0.117188 C 59.296875 0 44.179688 4.804688 31.40625 13.945312 C 30.351562 14.648438 30.117188 16.171875 30.820312 17.226562 C 31.640625 18.28125 33.164062 18.515625 34.21875 17.695312 Z M 34.21875 17.695312 " fill-opacity="1" fill-rule="nonzero"/><path fill="#000000" d="M 75 150 C 90 150 104.53125 145.546875 116.953125 137.226562 C 118.007812 136.523438 118.359375 135 117.539062 133.945312 C 116.835938 132.890625 115.3125 132.539062 114.257812 133.359375 C 102.65625 141.210938 89.0625 145.3125 75 145.3125 C 36.210938 145.3125 4.6875 113.789062 4.6875 75 C 4.6875 62.109375 8.203125 49.6875 14.765625 38.789062 L 15.234375 43.59375 C 15.351562 44.765625 16.40625 45.703125 17.578125 45.703125 C 17.695312 45.703125 17.695312 45.703125 17.8125 45.703125 C 19.101562 45.585938 20.039062 44.414062 19.921875 43.125 L 18.867188 32.460938 C 19.101562 31.640625 18.867188 30.820312 18.28125 30.117188 C 17.578125 29.296875 16.40625 28.945312 15.46875 29.296875 L 3.867188 34.21875 C 2.695312 34.6875 2.109375 36.09375 2.695312 37.265625 C 3.046875 38.203125 3.984375 38.671875 4.804688 38.671875 C 5.15625 38.671875 5.390625 38.554688 5.742188 38.4375 L 10.664062 36.328125 C 3.632812 48.046875 0 61.289062 0 75 C 0 116.367188 33.632812 150 75 150 Z M 75 150 " fill-opacity="1" fill-rule="nonzero"/><path fill="#000000" d="M 95.273438 41.015625 C 95.625 39.609375 96.328125 38.320312 97.265625 37.148438 L 97.265625 29.296875 C 97.265625 28.007812 96.210938 26.953125 94.921875 26.953125 L 76.171875 26.953125 C 74.882812 26.953125 73.828125 28.007812 73.828125 29.296875 L 73.828125 41.015625 L 78.515625 41.015625 L 78.515625 31.640625 L 92.578125 31.640625 L 92.578125 41.015625 Z M 95.273438 41.015625 " fill-opacity="1" fill-rule="nonzero"/></svg>