<svg xmlns="http://www.w3.org/2000/svg" xmlns:xlink="http://www.w3.org/1999/xlink" width="200" zoomAndPan="magnify" viewBox="0 0 150 149.999998" height="200" preserveAspectRatio="xMidYMid meet" version="1.0"><defs><clipPath id="973bee6683"><path d="M 0 38.835938 L 124.429688 38.835938 L 124.429688 143.59375 L 0 143.59375 Z M 0 38.835938 " clip-rule="nonzero"/></clipPath><clipPath id="7057b6ef9b"><path d="M 44.472656 6.402344 L 149.996094 6.402344 L 149.996094 86.359375 L 44.472656 86.359375 Z M 44.472656 6.402344 " clip-rule="nonzero"/></clipPath></defs><g clip-path="url(#973bee6683)"><path fill="#000000" d="M 114.074219 110.46875 L 114.074219 74.617188 C 114.074219 73.117188 112.859375 71.898438 111.359375 71.898438 C 110.34375 71.898438 109.460938 72.457031 108.996094 73.277344 C 108.769531 73.671875 108.640625 74.128906 108.640625 74.617188 L 108.640625 111.101562 C 108.640625 111.515625 108.738281 111.925781 108.921875 112.300781 L 118.972656 132.703125 L 118.972656 138.160156 L 5.433594 138.160156 L 5.433594 132.703125 L 15.480469 112.300781 C 15.664062 111.925781 15.761719 111.515625 15.761719 111.101562 L 15.761719 44.285156 L 52.972656 44.285156 C 53.988281 44.285156 54.867188 43.726562 55.335938 42.90625 C 55.558594 42.507812 55.691406 42.054688 55.691406 41.566406 C 55.691406 40.066406 54.472656 38.851562 52.972656 38.851562 L 13.042969 38.851562 C 11.542969 38.851562 10.328125 40.066406 10.328125 41.566406 L 10.328125 110.46875 L 0.28125 130.871094 C 0.09375 131.242188 0 131.65625 0 132.070312 L 0 140.878906 C 0 142.378906 1.214844 143.59375 2.71875 143.59375 L 121.6875 143.59375 C 123.1875 143.59375 124.40625 142.378906 124.40625 140.878906 L 124.40625 132.070312 C 124.40625 131.65625 124.308594 131.242188 124.125 130.871094 L 114.074219 110.46875 " fill-opacity="1" fill-rule="nonzero"/></g><path fill="#000000" d="M 103.050781 73.121094 C 102 73.121094 101.085938 73.722656 100.636719 74.597656 C 100.445312 74.96875 100.335938 75.390625 100.335938 75.839844 L 100.335938 102.320312 L 24.699219 102.320312 L 24.699219 52.832031 L 52.972656 52.832031 C 54.027344 52.832031 54.9375 52.234375 55.386719 51.355469 C 55.578125 50.984375 55.691406 50.5625 55.691406 50.117188 C 55.691406 48.617188 54.472656 47.398438 52.972656 47.398438 L 21.980469 47.398438 C 20.480469 47.398438 19.261719 48.617188 19.261719 50.117188 L 19.261719 105.035156 C 19.261719 106.535156 20.480469 107.753906 21.980469 107.753906 L 103.050781 107.753906 C 104.550781 107.753906 105.769531 106.535156 105.769531 105.035156 L 105.769531 75.839844 C 105.769531 74.339844 104.550781 73.121094 103.050781 73.121094 " fill-opacity="1" fill-rule="nonzero"/><path fill="#000000" d="M 89.117188 127.984375 L 88.53125 125.261719 L 104.183594 125.261719 L 105.355469 127.984375 Z M 86.726562 116.878906 L 100.570312 116.878906 L 101.839844 119.828125 L 87.363281 119.828125 Z M 65.222656 127.984375 L 65.222656 125.261719 L 82.972656 125.261719 L 83.5625 127.984375 Z M 59.789062 119.828125 L 43.210938 119.828125 L 43.847656 116.878906 L 59.789062 116.878906 Z M 59.789062 127.984375 L 41.453125 127.984375 L 42.039062 125.261719 L 59.789062 125.261719 Z M 37.652344 119.828125 L 22.695312 119.828125 L 23.964844 116.878906 L 38.289062 116.878906 Z M 35.894531 127.984375 L 19.179688 127.984375 L 20.351562 125.261719 L 36.480469 125.261719 Z M 65.222656 116.878906 L 81.167969 116.878906 L 81.804688 119.828125 L 65.222656 119.828125 Z M 102.355469 111.445312 L 22.179688 111.445312 C 21.09375 111.445312 20.113281 112.089844 19.683594 113.085938 L 12.554688 129.625 C 12.195312 130.464844 12.28125 131.429688 12.78125 132.195312 C 13.285156 132.957031 14.136719 133.417969 15.050781 133.417969 L 109.484375 133.417969 C 109.488281 133.417969 109.488281 133.417969 109.492188 133.417969 C 110.992188 133.417969 112.207031 132.199219 112.207031 130.699219 C 112.207031 130.257812 112.101562 129.835938 111.910156 129.46875 L 104.851562 113.085938 C 104.421875 112.089844 103.441406 111.445312 102.355469 111.445312 " fill-opacity="1" fill-rule="nonzero"/><g clip-path="url(#7057b6ef9b)"><path fill="#000000" d="M 122.820312 45.277344 C 122.804688 45.277344 122.789062 45.277344 122.773438 45.277344 C 122.613281 45.277344 122.453125 45.296875 122.296875 45.324219 C 122.042969 45.246094 121.769531 45.199219 121.488281 45.199219 C 121.261719 45.199219 121.046875 45.230469 120.839844 45.28125 C 120.703125 45.257812 120.566406 45.242188 120.425781 45.238281 L 105.308594 44.988281 L 90.984375 44.746094 L 80.316406 35.171875 L 54.453125 11.957031 L 103.535156 12.777344 L 140.054688 45.566406 Z M 121.621094 70.566406 C 121.0625 70.566406 120.605469 70.109375 120.605469 69.546875 C 120.605469 68.988281 121.0625 68.53125 121.621094 68.53125 C 122.183594 68.53125 122.640625 68.988281 122.640625 69.546875 C 122.640625 70.109375 122.183594 70.566406 121.621094 70.566406 Z M 111.847656 58.886719 C 111.820312 58.941406 111.796875 58.992188 111.777344 59.046875 C 111.765625 59.078125 111.753906 59.109375 111.742188 59.140625 C 111.726562 59.171875 111.714844 59.203125 111.699219 59.238281 C 111.648438 59.363281 111.589844 59.480469 111.53125 59.601562 C 110.976562 60.734375 110.125 61.730469 108.996094 62.566406 C 108.386719 63.011719 107.6875 63.421875 106.914062 63.78125 L 106.722656 63.867188 C 103.964844 65.101562 100.414062 65.660156 96.46875 65.484375 C 96 65.460938 95.53125 65.429688 95.058594 65.386719 C 93.464844 65.25 91.835938 65 90.203125 64.636719 C 88.878906 64.34375 87.53125 63.96875 86.191406 63.527344 C 85.414062 63.269531 84.652344 62.996094 83.929688 62.714844 C 83.753906 62.644531 83.582031 62.570312 83.410156 62.5 L 83.238281 62.429688 C 81.121094 61.554688 79.105469 60.53125 77.25 59.390625 C 75.167969 58.105469 73.285156 56.679688 71.65625 55.148438 C 69.785156 53.386719 68.273438 51.507812 67.21875 49.632812 C 66.914062 49.089844 66.644531 48.546875 66.417969 48.007812 C 66.28125 47.683594 66.152344 47.335938 66.035156 46.980469 C 65.902344 46.566406 65.792969 46.167969 65.710938 45.796875 C 65.445312 44.546875 65.429688 43.351562 65.664062 42.242188 C 65.710938 42.011719 65.761719 41.816406 65.8125 41.648438 C 65.867188 41.457031 65.929688 41.285156 65.992188 41.117188 C 65.996094 41.109375 66 41.101562 66.003906 41.09375 L 69.332031 32.613281 L 88.109375 49.46875 C 88.59375 49.90625 89.222656 50.152344 89.878906 50.164062 L 115.105469 50.585938 Z M 149.09375 46.378906 L 106.410156 8.058594 C 105.921875 7.621094 105.292969 7.375 104.640625 7.363281 L 47.269531 6.402344 C 46.132812 6.386719 45.109375 7.070312 44.695312 8.125 C 44.28125 9.179688 44.566406 10.382812 45.410156 11.140625 L 65.039062 28.761719 C 64.976562 28.871094 64.917969 28.984375 64.871094 29.105469 L 60.949219 39.097656 C 60.945312 39.101562 60.945312 39.105469 60.945312 39.109375 C 60.941406 39.117188 60.941406 39.121094 60.9375 39.128906 C 60.820312 39.429688 60.707031 39.75 60.609375 40.074219 C 60.515625 40.390625 60.425781 40.734375 60.347656 41.121094 C 60.039062 42.578125 59.988281 44.09375 60.183594 45.648438 C 60.238281 46.074219 60.304688 46.503906 60.398438 46.933594 C 60.519531 47.492188 60.679688 48.078125 60.871094 48.671875 C 61.035156 49.167969 61.214844 49.65625 61.410156 50.117188 C 62.328125 52.292969 63.714844 54.472656 65.484375 56.542969 C 66.234375 57.421875 67.054688 58.277344 67.9375 59.109375 C 69.832031 60.890625 72.007812 62.539062 74.402344 64.015625 C 76.503906 65.3125 78.777344 66.46875 81.164062 67.453125 L 81.324219 67.519531 C 81.53125 67.605469 81.734375 67.6875 81.945312 67.769531 C 82.757812 68.089844 83.613281 68.398438 84.492188 68.6875 C 86 69.1875 87.523438 69.605469 89.027344 69.941406 C 90.316406 70.226562 91.605469 70.453125 92.886719 70.617188 C 94.007812 70.761719 95.125 70.863281 96.222656 70.910156 C 96.773438 70.9375 97.320312 70.949219 97.859375 70.949219 C 99.976562 70.949219 102.003906 70.757812 103.890625 70.390625 C 105.710938 70.035156 107.40625 69.511719 108.933594 68.832031 L 108.996094 68.804688 C 109.066406 68.773438 109.136719 68.742188 109.207031 68.710938 C 110.308594 68.195312 111.320312 67.601562 112.222656 66.9375 C 114.066406 65.578125 115.476562 63.910156 116.414062 61.980469 C 116.496094 61.8125 116.597656 61.605469 116.699219 61.367188 L 116.707031 61.347656 C 116.75 61.257812 116.789062 61.167969 116.828125 61.074219 C 116.832031 61.0625 116.835938 61.050781 116.839844 61.039062 L 118.769531 56.121094 L 118.769531 63.765625 C 116.640625 64.820312 115.171875 67.015625 115.171875 69.546875 C 115.171875 72.082031 116.640625 74.277344 118.769531 75.332031 L 118.769531 83.582031 C 118.769531 85.082031 119.984375 86.300781 121.488281 86.300781 C 122.988281 86.300781 124.203125 85.082031 124.203125 83.582031 L 124.203125 75.457031 C 126.480469 74.460938 128.074219 72.1875 128.074219 69.546875 C 128.074219 66.910156 126.480469 64.636719 124.203125 63.636719 L 124.203125 50.734375 L 147.234375 51.117188 C 147.25 51.117188 147.265625 51.117188 147.28125 51.117188 C 148.394531 51.117188 149.398438 50.4375 149.808594 49.394531 C 150.222656 48.339844 149.941406 47.136719 149.09375 46.378906 " fill-opacity="1" fill-rule="nonzero"/></g></svg>