<svg xmlns="http://www.w3.org/2000/svg" xmlns:xlink="http://www.w3.org/1999/xlink" width="200" zoomAndPan="magnify" viewBox="0 0 150 149.999998" height="200" preserveAspectRatio="xMidYMid meet" version="1.0"><defs><clipPath id="ee5eb9d292"><path d="M 0 9.792969 L 126 9.792969 L 126 112.542969 L 0 112.542969 Z M 0 9.792969 " clip-rule="nonzero"/></clipPath><clipPath id="d38f371c42"><path d="M 66 70 L 150 70 L 150 141 L 66 141 Z M 66 70 " clip-rule="nonzero"/></clipPath><clipPath id="b39bae2f63"><path d="M 63.074219 88.222656 L 143.125 68.273438 L 156.183594 120.671875 L 76.128906 140.621094 Z M 63.074219 88.222656 " clip-rule="nonzero"/></clipPath><clipPath id="b11436a941"><path d="M 63.074219 88.222656 L 143.125 68.273438 L 156.183594 120.671875 L 76.128906 140.621094 Z M 63.074219 88.222656 " clip-rule="nonzero"/></clipPath><clipPath id="201542f87b"><path d="M 63.074219 88.222656 L 143.125 68.273438 L 156.183594 120.671875 L 76.128906 140.621094 Z M 63.074219 88.222656 " clip-rule="nonzero"/></clipPath><clipPath id="78fa38b605"><path d="M 63.183594 88.660156 L 143.234375 68.710938 L 156.296875 121.140625 L 76.246094 141.085938 Z M 63.183594 88.660156 " clip-rule="nonzero"/></clipPath><clipPath id="222d45d0e4"><path d="M 63.183594 88.660156 L 143.234375 68.710938 L 156.066406 120.214844 L 76.015625 140.160156 Z M 63.183594 88.660156 " clip-rule="nonzero"/></clipPath></defs><g clip-path="url(#ee5eb9d292)"><path fill="#000000" d="M 120.09375 112.542969 C 123.34375 112.542969 126 109.875 126 106.613281 L 126 20.664062 C 126 17.402344 123.34375 14.734375 120.09375 14.734375 L 104.34375 14.734375 L 104.34375 11.769531 C 104.34375 10.683594 103.457031 9.792969 102.375 9.792969 C 101.292969 9.792969 100.40625 10.683594 100.40625 11.769531 L 100.40625 14.734375 L 84.65625 14.734375 L 84.65625 11.769531 C 84.65625 10.683594 83.769531 9.792969 82.6875 9.792969 C 81.605469 9.792969 80.71875 10.683594 80.71875 11.769531 L 80.71875 14.734375 L 64.96875 14.734375 L 64.96875 11.769531 C 64.96875 10.683594 64.082031 9.792969 63 9.792969 C 61.917969 9.792969 61.03125 10.683594 61.03125 11.769531 L 61.03125 14.734375 L 45.28125 14.734375 L 45.28125 11.769531 C 45.28125 10.683594 44.394531 9.792969 43.3125 9.792969 C 42.230469 9.792969 41.34375 10.683594 41.34375 11.769531 L 41.34375 14.734375 L 25.59375 14.734375 L 25.59375 11.769531 C 25.59375 10.683594 24.707031 9.792969 23.625 9.792969 C 22.542969 9.792969 21.65625 10.683594 21.65625 11.769531 L 21.65625 14.734375 L 5.90625 14.734375 C 2.65625 14.734375 0 17.402344 0 20.664062 L 0 106.613281 C 0 109.875 2.65625 112.542969 5.90625 112.542969 Z M 5.90625 18.6875 L 21.65625 18.6875 L 21.65625 21.253906 C 20.476562 21.945312 19.6875 23.230469 19.6875 24.613281 C 19.6875 26.789062 21.460938 28.566406 23.625 28.566406 C 25.789062 28.566406 27.5625 26.789062 27.5625 24.613281 C 27.5625 23.132812 26.773438 21.847656 25.59375 21.253906 L 25.59375 18.6875 L 41.34375 18.6875 L 41.34375 21.253906 C 40.164062 21.945312 39.375 23.230469 39.375 24.613281 C 39.375 26.789062 41.148438 28.566406 43.3125 28.566406 C 45.476562 28.566406 47.25 26.789062 47.25 24.613281 C 47.25 23.132812 46.460938 21.847656 45.28125 21.253906 L 45.28125 18.6875 L 61.03125 18.6875 L 61.03125 21.253906 C 59.851562 21.945312 59.0625 23.230469 59.0625 24.613281 C 59.0625 26.789062 60.835938 28.566406 63 28.566406 C 65.164062 28.566406 66.9375 26.789062 66.9375 24.613281 C 66.9375 23.132812 66.148438 21.847656 64.96875 21.253906 L 64.96875 18.6875 L 80.71875 18.6875 L 80.71875 21.253906 C 79.539062 21.945312 78.75 23.230469 78.75 24.613281 C 78.75 26.789062 80.523438 28.566406 82.6875 28.566406 C 84.851562 28.566406 86.625 26.789062 86.625 24.613281 C 86.625 23.132812 85.835938 21.847656 84.65625 21.253906 L 84.65625 18.6875 L 100.40625 18.6875 L 100.40625 21.253906 C 99.226562 21.945312 98.4375 23.230469 98.4375 24.613281 C 98.4375 26.789062 100.210938 28.566406 102.375 28.566406 C 104.539062 28.566406 106.3125 26.789062 106.3125 24.613281 C 106.3125 23.132812 105.523438 21.847656 104.34375 21.253906 L 104.34375 18.6875 L 120.09375 18.6875 C 121.175781 18.6875 122.0625 19.574219 122.0625 20.664062 L 122.0625 33.503906 L 3.9375 33.503906 L 3.9375 20.664062 C 3.9375 19.574219 4.824219 18.6875 5.90625 18.6875 Z M 3.9375 106.613281 L 3.9375 37.457031 L 122.0625 37.457031 L 122.0625 106.613281 C 122.0625 107.699219 121.175781 108.589844 120.09375 108.589844 L 5.90625 108.589844 C 4.824219 108.589844 3.9375 107.699219 3.9375 106.613281 Z M 3.9375 106.613281 " fill-opacity="1" fill-rule="nonzero"/></g><path fill="#000000" d="M 26.773438 103.15625 C 27.265625 103.15625 27.757812 103.058594 28.25 102.859375 L 63.6875 88.238281 C 63.789062 88.238281 63.886719 88.140625 63.886719 88.140625 C 64.871094 87.941406 65.855469 87.449219 66.542969 86.757812 C 69.300781 83.988281 68.019531 78.851562 64.671875 73.714844 C 65.164062 72.726562 65.953125 71.839844 66.839844 71.046875 C 68.808594 69.269531 71.367188 68.378906 73.238281 68.675781 C 74.320312 68.875 75.304688 68.082031 75.5 67.097656 C 75.699219 66.007812 74.910156 65.019531 73.925781 64.824219 C 70.875 64.328125 67.132812 65.515625 64.28125 68.082031 C 63.492188 68.777344 62.804688 69.46875 62.210938 70.257812 C 61.128906 68.972656 60.046875 67.6875 58.867188 66.503906 C 57.390625 65.019531 55.714844 63.539062 54.042969 62.355469 C 54.632812 61.859375 55.320312 61.265625 55.8125 60.675781 C 58.375 57.808594 59.554688 54.054688 59.0625 50.992188 C 58.867188 49.90625 57.882812 49.214844 56.796875 49.410156 C 55.714844 49.609375 55.027344 50.597656 55.222656 51.683594 C 55.519531 53.5625 54.632812 56.128906 52.859375 58.105469 C 52.171875 58.894531 51.382812 59.585938 50.597656 60.082031 C 45.871094 57.316406 41.246094 56.328125 38.6875 58.996094 C 37.800781 59.882812 37.308594 61.070312 37.210938 62.453125 L 34.058594 70.355469 L 23.035156 97.722656 C 22.445312 99.203125 22.835938 100.882812 23.921875 101.96875 C 24.707031 102.761719 25.691406 103.15625 26.773438 103.15625 Z M 41.441406 61.5625 C 41.933594 61.070312 43.214844 61.070312 44.984375 61.664062 C 44.59375 62.058594 44.394531 62.453125 44.394531 63.046875 C 44.394531 64.132812 45.183594 65.019531 46.265625 65.019531 C 46.363281 65.019531 46.460938 65.019531 46.5625 65.019531 C 47.839844 65.019531 49.023438 64.824219 50.300781 64.328125 C 52.074219 65.515625 54.042969 67.097656 56.109375 69.171875 C 57.78125 70.851562 59.160156 72.53125 60.242188 74.011719 C 59.949219 75.097656 59.75 76.285156 59.75 77.46875 C 59.75 78.554688 60.636719 79.445312 61.71875 79.445312 C 61.71875 79.445312 61.71875 79.445312 61.820312 79.445312 C 62.3125 79.445312 62.804688 79.246094 63.097656 78.851562 C 64.28125 81.421875 64.378906 83.296875 63.789062 83.890625 C 62.605469 85.078125 56.40625 83.496094 49.121094 76.285156 C 41.933594 69.070312 40.261719 62.847656 41.441406 61.5625 Z M 36.71875 74.210938 C 39.375 76.183594 43.015625 78.0625 46.167969 78.753906 C 46.265625 78.851562 46.363281 78.953125 46.460938 79.050781 C 48.53125 81.125 50.792969 83 53.15625 84.484375 C 51.089844 84.484375 48.429688 84.089844 45.675781 83.199219 C 41.046875 81.71875 37.011719 79.445312 35.535156 77.46875 Z M 30.910156 88.832031 C 33.46875 91.203125 36.816406 92.78125 40.164062 93.671875 L 36.226562 95.253906 C 33.664062 95.253906 30.8125 94.066406 29.433594 92.289062 Z M 30.910156 88.832031 " fill-opacity="1" fill-rule="nonzero"/><path fill="#000000" d="M 83.671875 61.167969 C 83.671875 61.429688 83.621094 61.683594 83.523438 61.925781 C 83.421875 62.167969 83.28125 62.378906 83.09375 62.566406 C 82.910156 62.75 82.699219 62.894531 82.457031 62.992188 C 82.214844 63.09375 81.964844 63.144531 81.703125 63.144531 C 81.441406 63.144531 81.191406 63.09375 80.949219 62.992188 C 80.707031 62.894531 80.496094 62.75 80.3125 62.566406 C 80.125 62.378906 79.984375 62.167969 79.882812 61.925781 C 79.785156 61.683594 79.734375 61.429688 79.734375 61.167969 C 79.734375 60.90625 79.785156 60.652344 79.882812 60.410156 C 79.984375 60.171875 80.125 59.957031 80.3125 59.769531 C 80.496094 59.585938 80.707031 59.441406 80.949219 59.34375 C 81.191406 59.242188 81.441406 59.191406 81.703125 59.191406 C 81.964844 59.191406 82.214844 59.242188 82.457031 59.34375 C 82.699219 59.441406 82.910156 59.585938 83.09375 59.769531 C 83.28125 59.957031 83.421875 60.171875 83.523438 60.410156 C 83.621094 60.652344 83.671875 60.90625 83.671875 61.167969 Z M 83.671875 61.167969 " fill-opacity="1" fill-rule="nonzero"/><path fill="#000000" d="M 84.65625 49.113281 C 84.65625 49.441406 84.625 49.761719 84.5625 50.078125 C 84.5 50.398438 84.40625 50.707031 84.28125 51.003906 C 84.15625 51.304688 84.007812 51.589844 83.828125 51.859375 C 83.648438 52.128906 83.441406 52.378906 83.214844 52.609375 C 82.984375 52.835938 82.738281 53.042969 82.46875 53.222656 C 82.199219 53.402344 81.917969 53.554688 81.617188 53.679688 C 81.320312 53.804688 81.011719 53.898438 80.695312 53.960938 C 80.378906 54.023438 80.058594 54.054688 79.734375 54.054688 C 79.410156 54.054688 79.089844 54.023438 78.773438 53.960938 C 78.457031 53.898438 78.148438 53.804688 77.851562 53.679688 C 77.550781 53.554688 77.269531 53.402344 77 53.222656 C 76.730469 53.042969 76.484375 52.835938 76.253906 52.609375 C 76.027344 52.378906 75.820312 52.128906 75.640625 51.859375 C 75.460938 51.589844 75.3125 51.304688 75.1875 51.003906 C 75.0625 50.707031 74.96875 50.398438 74.90625 50.078125 C 74.84375 49.761719 74.8125 49.441406 74.8125 49.113281 C 74.8125 48.789062 74.84375 48.46875 74.90625 48.152344 C 74.96875 47.832031 75.0625 47.523438 75.1875 47.226562 C 75.3125 46.925781 75.460938 46.640625 75.640625 46.371094 C 75.820312 46.101562 76.027344 45.851562 76.253906 45.621094 C 76.484375 45.394531 76.730469 45.1875 77 45.007812 C 77.269531 44.828125 77.550781 44.675781 77.851562 44.550781 C 78.148438 44.425781 78.457031 44.332031 78.773438 44.269531 C 79.089844 44.207031 79.410156 44.175781 79.734375 44.175781 C 80.058594 44.175781 80.378906 44.207031 80.695312 44.269531 C 81.011719 44.332031 81.320312 44.425781 81.617188 44.550781 C 81.917969 44.675781 82.199219 44.828125 82.46875 45.007812 C 82.738281 45.1875 82.984375 45.394531 83.214844 45.621094 C 83.441406 45.851562 83.648438 46.101562 83.828125 46.371094 C 84.007812 46.640625 84.15625 46.925781 84.28125 47.226562 C 84.40625 47.523438 84.5 47.832031 84.5625 48.152344 C 84.625 48.46875 84.65625 48.789062 84.65625 49.113281 Z M 84.65625 49.113281 " fill-opacity="1" fill-rule="nonzero"/><path fill="#000000" d="M 103.359375 49.113281 C 103.359375 49.441406 103.328125 49.761719 103.265625 50.078125 C 103.203125 50.398438 103.109375 50.707031 102.984375 51.003906 C 102.859375 51.304688 102.710938 51.589844 102.53125 51.859375 C 102.351562 52.128906 102.144531 52.378906 101.917969 52.609375 C 101.6875 52.835938 101.441406 53.042969 101.171875 53.222656 C 100.902344 53.402344 100.621094 53.554688 100.320312 53.679688 C 100.023438 53.804688 99.714844 53.898438 99.398438 53.960938 C 99.082031 54.023438 98.761719 54.054688 98.4375 54.054688 C 98.113281 54.054688 97.792969 54.023438 97.476562 53.960938 C 97.160156 53.898438 96.851562 53.804688 96.554688 53.679688 C 96.253906 53.554688 95.972656 53.402344 95.703125 53.222656 C 95.433594 53.042969 95.1875 52.835938 94.957031 52.609375 C 94.730469 52.378906 94.523438 52.128906 94.34375 51.859375 C 94.164062 51.589844 94.015625 51.304688 93.890625 51.003906 C 93.765625 50.707031 93.671875 50.398438 93.609375 50.078125 C 93.546875 49.761719 93.515625 49.441406 93.515625 49.113281 C 93.515625 48.789062 93.546875 48.46875 93.609375 48.152344 C 93.671875 47.832031 93.765625 47.523438 93.890625 47.226562 C 94.015625 46.925781 94.164062 46.640625 94.34375 46.371094 C 94.523438 46.101562 94.730469 45.851562 94.957031 45.621094 C 95.1875 45.394531 95.433594 45.1875 95.703125 45.007812 C 95.972656 44.828125 96.253906 44.675781 96.554688 44.550781 C 96.851562 44.425781 97.160156 44.332031 97.476562 44.269531 C 97.792969 44.207031 98.113281 44.175781 98.4375 44.175781 C 98.761719 44.175781 99.082031 44.207031 99.398438 44.269531 C 99.714844 44.332031 100.023438 44.425781 100.320312 44.550781 C 100.621094 44.675781 100.902344 44.828125 101.171875 45.007812 C 101.441406 45.1875 101.6875 45.394531 101.917969 45.621094 C 102.144531 45.851562 102.351562 46.101562 102.53125 46.371094 C 102.710938 46.640625 102.859375 46.925781 102.984375 47.226562 C 103.109375 47.523438 103.203125 47.832031 103.265625 48.152344 C 103.328125 48.46875 103.359375 48.789062 103.359375 49.113281 Z M 103.359375 49.113281 " fill-opacity="1" fill-rule="nonzero"/><path fill="#000000" d="M 63.296875 50.101562 L 65.65625 48.226562 L 68.117188 50.101562 L 67.234375 47.039062 L 69.59375 45.164062 L 66.640625 45.164062 L 65.65625 42.199219 L 64.773438 45.164062 L 61.71875 45.164062 L 64.179688 47.039062 Z M 63.296875 50.101562 " fill-opacity="1" fill-rule="nonzero"/><path fill="#000000" d="M 90.167969 67.097656 L 92.53125 65.21875 L 94.992188 67.097656 L 94.105469 64.035156 L 96.46875 62.15625 L 93.515625 62.15625 L 92.53125 59.191406 L 91.644531 62.15625 L 88.59375 62.15625 L 91.054688 64.035156 Z M 90.167969 67.097656 " fill-opacity="1" fill-rule="nonzero"/><path fill="#000000" d="M 67.332031 55.140625 L 63.789062 57.808594 C 62.902344 58.5 62.804688 59.6875 63.394531 60.574219 C 63.789062 61.070312 64.378906 61.367188 64.96875 61.367188 C 65.363281 61.367188 65.757812 61.265625 66.148438 60.96875 L 69.695312 58.304688 C 70.578125 57.613281 70.679688 56.425781 70.085938 55.535156 C 69.496094 54.648438 68.21875 54.449219 67.332031 55.140625 Z M 67.332031 55.140625 " fill-opacity="1" fill-rule="nonzero"/><path fill="#000000" d="M 81.703125 69.863281 C 81.703125 70.652344 81.605469 70.851562 79.539062 71.542969 C 77.667969 72.035156 74.714844 73.023438 74.222656 76.679688 C 74.125 77.765625 74.8125 78.753906 75.894531 78.851562 C 75.992188 78.851562 76.09375 78.851562 76.191406 78.851562 C 77.175781 78.851562 77.960938 78.160156 78.160156 77.171875 C 78.257812 76.085938 78.847656 75.890625 80.71875 75.296875 C 82.589844 74.703125 85.738281 73.8125 85.738281 69.863281 C 85.738281 68.777344 84.851562 67.886719 83.769531 67.886719 C 82.6875 67.886719 81.703125 68.777344 81.703125 69.863281 Z M 81.703125 69.863281 " fill-opacity="1" fill-rule="nonzero"/><g clip-path="url(#d38f371c42)"><g clip-path="url(#b39bae2f63)"><g clip-path="url(#b11436a941)"><g clip-path="url(#201542f87b)"><g clip-path="url(#78fa38b605)"><g clip-path="url(#222d45d0e4)"><path fill="#040606" d="M 115.707031 116.644531 L 111.992188 101.726562 L 97.90625 107.292969 C 97.90625 107.292969 100.832031 119.042969 100.832031 119.042969 C 100.203125 119.007812 99.539062 119.097656 98.882812 119.328125 C 96.792969 120.066406 95.570312 121.984375 96.140625 123.605469 C 96.71875 125.222656 98.882812 125.9375 100.96875 125.199219 C 103.054688 124.453125 104.277344 122.542969 103.703125 120.925781 C 103.695312 120.898438 103.6875 120.839844 103.6875 120.839844 L 101.148438 110.648438 L 110.820312 106.691406 L 112.855469 114.847656 C 112.234375 114.816406 111.566406 114.898438 110.902344 115.132812 C 108.8125 115.871094 107.59375 117.789062 108.167969 119.40625 C 108.746094 121.023438 110.902344 121.742188 112.992188 121.003906 C 115.078125 120.257812 116.300781 118.347656 115.730469 116.726562 C 115.722656 116.699219 115.707031 116.644531 115.707031 116.644531 Z M 129.1875 99.3125 C 128.957031 99.414062 128.707031 99.5 128.449219 99.5625 C 125.863281 100.207031 123.242188 98.648438 122.601562 96.078125 C 122.472656 95.570312 122.441406 95.066406 122.476562 94.578125 L 82.066406 104.648438 C 82.195312 104.921875 82.296875 105.210938 82.375 105.515625 C 83.015625 108.085938 81.4375 110.691406 78.851562 111.335938 C 78.59375 111.398438 78.332031 111.441406 78.074219 111.460938 L 82.128906 127.738281 C 82.371094 127.644531 82.621094 127.558594 82.875 127.496094 C 85.460938 126.847656 88.078125 128.410156 88.71875 130.980469 C 88.84375 131.484375 88.886719 131.980469 88.851562 132.476562 L 129.261719 122.410156 C 129.132812 122.132812 129.023438 121.847656 128.945312 121.542969 C 128.304688 118.972656 129.886719 116.359375 132.476562 115.710938 C 132.730469 115.648438 132.992188 115.605469 133.246094 115.589844 Z M 132.910156 94.957031 C 133.492188 97.277344 135.792969 98.707031 138.132812 98.253906 L 138.742188 100.6875 C 136.457031 101.378906 135.097656 103.726562 135.675781 106.050781 C 136.253906 108.375 138.558594 109.800781 140.894531 109.339844 L 141.503906 111.78125 C 139.222656 112.472656 137.863281 114.820312 138.441406 117.144531 C 139.015625 119.460938 141.324219 120.894531 143.664062 120.441406 L 144.335938 123.136719 L 76.015625 140.160156 L 75.34375 137.464844 C 77.625 136.769531 78.984375 134.417969 78.40625 132.101562 C 77.828125 129.777344 75.523438 128.34375 73.1875 128.804688 L 72.578125 126.371094 C 74.859375 125.675781 76.222656 123.332031 75.644531 121.007812 C 75.066406 118.683594 72.757812 117.25 70.421875 117.710938 L 69.816406 115.273438 C 72.09375 114.578125 73.457031 112.238281 72.878906 109.914062 C 72.300781 107.589844 69.996094 106.15625 67.65625 106.617188 L 66.984375 103.914062 L 135.300781 86.890625 L 135.976562 89.59375 C 133.695312 90.28125 132.332031 92.632812 132.910156 94.957031 Z M 99.285156 93.90625 L 80.597656 98.5625 L 134.929688 70.789062 L 136.203125 73.261719 C 134.136719 74.453125 133.339844 77.050781 134.4375 79.175781 C 135.539062 81.300781 138.113281 82.175781 140.285156 81.199219 L 141.4375 83.433594 C 139.378906 84.621094 138.585938 87.21875 139.671875 89.347656 C 140.769531 91.476562 143.351562 92.347656 145.523438 91.371094 L 146.675781 93.605469 C 144.609375 94.792969 143.8125 97.382812 144.910156 99.519531 C 146.007812 101.644531 148.585938 102.519531 150.757812 101.542969 L 152.03125 104.015625 L 142.730469 108.769531 L 142.320312 107.125 L 140.527344 107.472656 C 139.183594 107.742188 137.867188 106.914062 137.539062 105.585938 C 137.207031 104.257812 137.980469 102.910156 139.292969 102.507812 L 141.039062 101.984375 L 139.558594 96.03125 L 138.023438 96.328125 L 135.710938 91.835938 C 135.953125 91.65625 136.226562 91.503906 136.527344 91.414062 L 138.277344 90.886719 L 136.703125 84.582031 L 132.519531 85.625 L 131.816406 84.253906 C 131.605469 84.414062 131.382812 84.550781 131.148438 84.667969 C 128.773438 85.882812 125.867188 84.957031 124.652344 82.597656 C 124.417969 82.136719 124.261719 81.660156 124.1875 81.175781 L 99.285156 93.90625 " fill-opacity="1" fill-rule="nonzero"/></g></g></g></g></g></g></svg>