<svg xmlns="http://www.w3.org/2000/svg" xmlns:xlink="http://www.w3.org/1999/xlink" width="200" zoomAndPan="magnify" viewBox="0 0 150 149.999998" height="200" preserveAspectRatio="xMidYMid meet" version="1.0"><defs><clipPath id="c956154d8c"><path d="M 3 1.6875 L 150 1.6875 L 150 148.6875 L 3 148.6875 Z M 3 1.6875 " clip-rule="nonzero"/></clipPath></defs><g clip-path="url(#c956154d8c)"><path fill="#000000" d="M 149.742188 139.28125 L 143.621094 82.632812 C 143.363281 80.273438 141.386719 78.496094 139.019531 78.496094 L 130.882812 78.496094 L 130.882812 75.28125 C 130.882812 67.195312 124.828125 60.507812 117.023438 59.523438 L 117.023438 40.773438 L 134.71875 47.859375 C 135.234375 48.066406 135.8125 48.054688 136.320312 47.832031 C 136.828125 47.609375 137.230469 47.1875 137.425781 46.667969 L 147.40625 20.523438 C 147.8125 19.460938 147.289062 18.265625 146.238281 17.84375 L 115.71875 5.625 C 115.574219 5.566406 115.429688 5.527344 115.277344 5.5 L 92.039062 1.730469 C 91.929688 1.714844 91.816406 1.707031 91.707031 1.707031 L 59.042969 1.707031 C 58.933594 1.707031 58.820312 1.714844 58.710938 1.730469 L 35.472656 5.5 C 35.320312 5.527344 35.175781 5.566406 35.03125 5.625 L 4.511719 17.84375 C 3.460938 18.265625 2.9375 19.460938 3.34375 20.523438 L 13.324219 46.667969 C 13.519531 47.1875 13.917969 47.609375 14.429688 47.832031 C 14.9375 48.054688 15.515625 48.066406 16.03125 47.859375 L 33.726562 40.773438 L 33.726562 109.417969 C 30.871094 109.3125 27.953125 109.625 25.050781 110.40625 C 9.359375 114.621094 0.0117188 130.851562 4.21875 146.582031 C 4.359375 147.117188 4.707031 147.570312 5.183594 147.847656 C 5.503906 148.03125 5.863281 148.125 6.222656 148.125 C 6.402344 148.125 6.585938 148.101562 6.761719 148.054688 L 35.828125 140.246094 L 66.15625 148.394531 C 66.855469 148.578125 67.554688 148.667969 68.242188 148.667969 C 71.804688 148.667969 75.070312 146.285156 76.035156 142.675781 L 77.582031 136.878906 C 77.878906 135.765625 77.222656 134.625 76.113281 134.328125 L 60.824219 130.21875 C 59.5625 126.121094 57.480469 122.484375 54.804688 119.441406 L 82.476562 119.441406 L 80.332031 139.28125 C 80.070312 141.679688 80.839844 144.078125 82.433594 145.863281 C 84.03125 147.644531 86.328125 148.667969 88.734375 148.667969 L 141.339844 148.667969 C 143.746094 148.667969 146.042969 147.644531 147.636719 145.863281 C 149.234375 144.078125 150 141.679688 149.742188 139.28125 Z M 117.023438 10.632812 L 142.792969 20.949219 L 134.300781 43.207031 L 117.023438 36.289062 Z M 126.730469 75.28125 L 126.730469 78.496094 L 117.023438 78.496094 L 117.023438 63.730469 C 122.527344 64.679688 126.730469 69.496094 126.730469 75.28125 Z M 112.871094 78.496094 L 103.34375 78.496094 L 103.34375 75.28125 C 103.34375 69.558594 107.453125 64.785156 112.871094 63.765625 Z M 89.640625 5.871094 C 88.632812 12.859375 82.621094 18.242188 75.375 18.242188 C 68.128906 18.242188 62.117188 12.859375 61.109375 5.871094 Z M 16.449219 43.207031 L 7.957031 20.949219 L 33.726562 10.632812 L 33.726562 36.289062 Z M 26.125 114.429688 C 28.3125 113.839844 30.507812 113.5625 32.671875 113.5625 C 34.785156 113.5625 36.867188 113.835938 38.875 114.347656 C 37.582031 117.574219 36.027344 124.101562 37.289062 135.542969 L 7.773438 143.472656 C 5.4375 130.617188 13.320312 117.867188 26.125 114.429688 Z M 72.023438 141.597656 C 71.464844 143.6875 69.316406 144.929688 67.234375 144.371094 L 43.855469 138.089844 L 58.964844 134.03125 L 73.035156 137.8125 Z M 41.355469 134.449219 C 40.277344 123.855469 41.84375 118.121094 42.832031 115.710938 C 49.027344 118.441406 54.09375 123.625 56.503906 130.378906 Z M 50.292969 115.277344 C 46.648438 112.554688 42.398438 110.6875 37.878906 109.867188 L 37.878906 9.328125 L 56.96875 6.234375 C 58.167969 15.347656 65.960938 22.410156 75.375 22.410156 C 84.789062 22.410156 92.582031 15.347656 93.78125 6.234375 L 112.871094 9.328125 L 112.871094 59.546875 C 105.152344 60.609375 99.191406 67.257812 99.191406 75.28125 L 99.191406 78.496094 L 91.054688 78.496094 C 88.6875 78.496094 86.707031 80.273438 86.453125 82.632812 L 82.925781 115.277344 Z M 144.546875 143.082031 C 143.726562 144 142.585938 144.503906 141.339844 144.503906 L 88.734375 144.503906 C 87.488281 144.503906 86.347656 143.996094 85.527344 143.082031 C 84.707031 142.164062 84.328125 140.972656 84.460938 139.730469 L 90.582031 83.082031 C 90.609375 82.835938 90.808594 82.660156 91.054688 82.660156 L 99.1875 82.660156 L 99.1875 88.066406 C 98.640625 88.605469 98.300781 89.359375 98.300781 90.1875 C 98.300781 91.824219 99.632812 93.160156 101.265625 93.160156 C 102.902344 93.160156 104.234375 91.824219 104.234375 90.1875 C 104.234375 89.359375 103.890625 88.605469 103.34375 88.066406 L 103.34375 82.660156 L 126.730469 82.660156 L 126.730469 88.066406 C 126.179688 88.605469 125.839844 89.359375 125.839844 90.1875 C 125.839844 91.824219 127.171875 93.160156 128.804688 93.160156 C 130.441406 93.160156 131.773438 91.824219 131.773438 90.1875 C 131.773438 89.359375 131.429688 88.605469 130.882812 88.066406 L 130.882812 82.660156 L 139.019531 82.660156 C 139.265625 82.660156 139.460938 82.835938 139.488281 83.082031 L 145.609375 139.730469 C 145.746094 140.972656 145.367188 142.164062 144.546875 143.082031 Z M 126.859375 111.84375 L 119.625 111.402344 L 116.96875 104.640625 C 116.65625 103.847656 115.890625 103.324219 115.035156 103.324219 C 114.183594 103.324219 113.417969 103.847656 113.105469 104.640625 L 110.449219 111.402344 L 103.214844 111.84375 C 102.363281 111.898438 101.628906 112.464844 101.367188 113.28125 C 101.101562 114.09375 101.363281 114.988281 102.019531 115.53125 L 107.613281 120.152344 L 105.796875 127.183594 C 105.585938 128.011719 105.898438 128.890625 106.589844 129.390625 C 107.277344 129.894531 108.207031 129.921875 108.925781 129.464844 L 115.035156 125.558594 L 121.148438 129.464844 C 121.488281 129.679688 121.878906 129.789062 122.265625 129.789062 C 122.695312 129.789062 123.121094 129.65625 123.484375 129.390625 C 124.175781 128.890625 124.488281 128.015625 124.273438 127.183594 L 122.460938 120.152344 L 128.050781 115.53125 C 128.710938 114.988281 128.96875 114.09375 128.707031 113.28125 C 128.441406 112.46875 127.710938 111.898438 126.859375 111.84375 Z M 118.796875 117.78125 C 118.171875 118.296875 117.90625 119.125 118.105469 119.910156 L 118.933594 123.109375 L 116.152344 121.332031 C 115.8125 121.117188 115.425781 121.007812 115.035156 121.007812 C 114.648438 121.007812 114.261719 121.117188 113.921875 121.332031 L 111.140625 123.109375 L 111.964844 119.910156 C 112.167969 119.125 111.898438 118.296875 111.277344 117.78125 L 108.734375 115.679688 L 112.023438 115.480469 C 112.828125 115.429688 113.53125 114.917969 113.828125 114.164062 L 115.035156 111.089844 L 116.242188 114.164062 C 116.539062 114.917969 117.246094 115.429688 118.050781 115.480469 L 121.339844 115.679688 Z M 118.796875 117.78125 " fill-opacity="1" fill-rule="nonzero"/></g></svg>