<svg xmlns="http://www.w3.org/2000/svg" xmlns:xlink="http://www.w3.org/1999/xlink" width="200" zoomAndPan="magnify" viewBox="0 0 150 149.999998" height="200" preserveAspectRatio="xMidYMid meet" version="1.0"><path fill="#000000" d="M 69.261719 74.902344 C 69.261719 76.285156 68.074219 77.671875 66.6875 77.671875 C 65.304688 77.671875 64.117188 76.484375 64.117188 74.902344 C 64.117188 73.316406 65.304688 72.128906 66.6875 72.128906 C 68.273438 72.128906 69.261719 73.316406 69.261719 74.902344 Z M 69.261719 74.902344 " fill-opacity="1" fill-rule="evenodd"/><path fill="#000000" d="M 80.144531 67.976562 C 80.144531 69.558594 78.957031 70.746094 77.574219 70.746094 C 76.1875 70.746094 75 69.558594 75 67.976562 C 75 66.589844 76.1875 65.203125 77.574219 65.203125 C 78.957031 65.203125 80.144531 66.390625 80.144531 67.976562 Z M 80.144531 67.976562 " fill-opacity="1" fill-rule="evenodd"/><path fill="#000000" d="M 81.132812 82.816406 C 81.132812 84.203125 79.945312 85.585938 78.5625 85.585938 C 77.175781 85.585938 75.988281 84.398438 75.988281 82.816406 C 75.988281 81.234375 77.175781 80.046875 78.5625 80.046875 C 79.945312 80.046875 81.132812 81.429688 81.132812 82.816406 Z M 81.132812 82.816406 " fill-opacity="1" fill-rule="evenodd"/><path fill="#000000" d="M 38.785156 119.425781 C 41.953125 120.414062 52.636719 123.582031 75 123.582031 C 97.363281 123.582031 108.046875 120.414062 111.214844 119.425781 L 111.214844 120.613281 C 111.214844 125.757812 109.433594 128.925781 106.464844 131.300781 C 103.496094 133.476562 99.140625 134.664062 94.195312 134.664062 L 56.003906 134.664062 C 51.054688 134.664062 46.703125 133.476562 43.734375 131.300781 C 40.765625 129.121094 38.984375 125.757812 38.984375 120.613281 L 38.984375 119.425781 Z M 40.566406 110.324219 C 49.867188 110.324219 62.136719 110.71875 70.644531 115.667969 C 71.832031 116.457031 73.21875 117.25 75 117.25 C 76.78125 117.25 78.167969 116.261719 79.355469 115.667969 C 88.65625 110.125 102.507812 110.324219 112.003906 110.324219 C 112.597656 110.917969 113.191406 111.707031 113.191406 112.699219 C 113.191406 113.6875 112.996094 114.480469 112.402344 114.875 C 111.808594 115.074219 99.933594 119.425781 75 119.425781 C 50.066406 119.425781 38.191406 115.074219 37.597656 114.875 C 37.003906 114.480469 36.609375 113.886719 36.808594 112.699219 C 36.808594 111.707031 37.402344 110.917969 37.996094 110.324219 C 38.785156 110.324219 39.578125 110.324219 40.566406 110.324219 Z M 37.003906 101.8125 C 38.390625 102.605469 40.171875 103 42.152344 102.605469 C 43.535156 102.210938 44.128906 102.210938 44.523438 102.40625 C 44.921875 102.40625 45.710938 102.804688 47.296875 103.792969 C 50.066406 105.574219 54.023438 106.167969 57.785156 104.78125 C 60.753906 103.792969 61.148438 103.792969 64.710938 105.375 C 67.480469 106.5625 70.054688 106.367188 71.832031 105.773438 C 73.613281 105.179688 74.605469 104.585938 75.199219 104.585938 C 75.792969 104.585938 76.78125 105.179688 78.5625 105.773438 C 80.34375 106.367188 82.71875 106.5625 85.6875 105.375 C 89.246094 103.792969 89.644531 103.792969 92.613281 104.78125 C 96.371094 106.167969 100.328125 105.574219 103.101562 103.792969 C 104.683594 102.804688 105.476562 102.40625 105.871094 102.40625 C 106.265625 102.40625 106.859375 102.40625 108.246094 102.605469 C 110.222656 103 112.003906 102.605469 113.390625 101.8125 L 116.160156 103.792969 C 117.152344 104.585938 117.152344 105.375 117.152344 105.574219 C 117.152344 105.96875 117.152344 106.167969 115.765625 106.167969 C 106.664062 106.167969 89.839844 104.980469 77.769531 112.105469 C 76.582031 112.894531 75.792969 113.09375 75.59375 113.09375 C 75.199219 113.09375 74.605469 112.699219 73.417969 112.105469 C 61.34375 104.980469 44.328125 106.367188 35.421875 106.167969 C 34.035156 106.167969 34.035156 105.773438 34.035156 105.574219 C 34.035156 105.179688 34.035156 104.386719 35.027344 103.792969 Z M 109.828125 94.492188 C 111.808594 95.480469 112.003906 96.667969 112.003906 97.460938 C 111.808594 98.449219 111.214844 99.242188 108.839844 98.84375 C 107.453125 98.648438 106.265625 98.253906 104.882812 98.648438 C 103.496094 98.84375 102.507812 99.636719 100.921875 100.625 C 99.339844 101.8125 96.570312 102.210938 93.800781 101.21875 C 90.433594 100.03125 87.863281 100.230469 84.101562 101.8125 C 82.125 102.605469 80.9375 102.40625 79.75 102.011719 C 78.363281 101.617188 76.980469 100.625 75 100.625 C 73.019531 100.625 71.636719 101.617188 70.449219 102.011719 C 69.261719 102.40625 68.074219 102.605469 66.09375 101.8125 C 62.136719 100.03125 59.761719 100.03125 56.398438 101.21875 C 53.628906 102.210938 50.859375 101.8125 49.273438 100.625 C 47.691406 99.636719 46.503906 98.84375 45.316406 98.648438 C 43.929688 98.449219 42.941406 98.648438 41.359375 98.84375 C 38.984375 99.4375 38.390625 98.449219 38.191406 97.460938 C 37.996094 96.667969 38.390625 95.480469 40.371094 94.492188 C 42.347656 95.679688 44.523438 96.273438 47.097656 96.273438 L 103.101562 96.273438 C 105.476562 96.273438 107.847656 95.679688 109.828125 94.492188 Z M 75 59.070312 C 85.289062 59.070312 94.394531 62.039062 100.921875 66.789062 C 107.453125 71.535156 111.214844 78.066406 111.214844 85.785156 C 111.214844 88.953125 108.246094 92.511719 102.902344 92.511719 L 47.097656 92.511719 C 41.753906 92.511719 38.785156 88.953125 38.785156 85.785156 C 38.785156 78.066406 42.546875 71.535156 49.078125 66.789062 C 55.605469 61.839844 64.710938 59.070312 75 59.070312 Z M 75 54.914062 C 64.117188 54.914062 54.023438 57.882812 46.703125 63.421875 C 39.378906 68.765625 34.628906 76.683594 34.628906 85.785156 C 34.628906 88.160156 35.621094 90.535156 37.203125 92.316406 C 35.027344 93.898438 34.035156 96.273438 34.433594 98.449219 C 34.433594 98.449219 34.433594 98.648438 34.433594 98.648438 L 31.664062 100.625 C 29.683594 102.210938 28.695312 104.386719 29.089844 106.5625 C 29.484375 108.34375 31.070312 109.730469 33.046875 110.324219 C 32.847656 111.113281 32.652344 111.707031 32.453125 112.5 C 32.257812 114.480469 32.847656 116.65625 34.433594 118.039062 L 34.433594 120.8125 C 34.433594 126.945312 37.003906 131.695312 40.964844 134.664062 C 44.921875 137.632812 50.066406 138.820312 55.804688 138.820312 L 93.996094 138.820312 C 99.539062 138.820312 104.882812 137.632812 108.839844 134.664062 C 112.796875 131.695312 115.171875 126.945312 115.171875 120.8125 L 115.171875 118.039062 C 116.753906 116.65625 117.347656 114.480469 117.152344 112.5 C 117.152344 111.707031 116.953125 111.113281 116.558594 110.324219 C 118.535156 109.925781 120.117188 108.34375 120.515625 106.5625 C 120.910156 104.386719 119.921875 102.011719 117.941406 100.625 L 115.171875 98.648438 C 115.171875 98.648438 115.171875 98.449219 115.171875 98.449219 C 115.566406 96.273438 114.578125 93.898438 112.402344 92.316406 C 113.984375 90.535156 114.972656 88.160156 114.972656 85.785156 C 114.972656 76.683594 110.222656 68.964844 102.902344 63.421875 C 95.976562 57.882812 86.082031 54.914062 75 54.914062 Z M 75 54.914062 " fill-opacity="1" fill-rule="evenodd"/><path fill="#000000" d="M 115.765625 32.355469 C 108.046875 32.355469 100.921875 33.34375 95.382812 34.730469 C 92.613281 35.519531 90.238281 36.3125 88.257812 37.300781 C 86.28125 38.292969 84.894531 39.480469 83.90625 41.261719 C 83.507812 42.050781 83.507812 42.644531 83.507812 43.4375 L 83.507812 53.132812 C 83.507812 54.320312 84.5 55.113281 85.488281 55.113281 C 86.675781 55.113281 87.46875 54.121094 87.46875 53.132812 L 87.46875 49.175781 C 88.0625 49.570312 88.65625 49.769531 89.445312 50.164062 C 93.601562 52.144531 99.734375 53.332031 107.058594 54.121094 C 114.578125 54.714844 122.097656 54.519531 128.824219 53.726562 C 135.554688 52.933594 141.292969 51.351562 145.054688 49.175781 C 145.054688 49.175781 145.25 48.976562 145.25 48.976562 L 145.25 56.101562 C 145.25 56.300781 145.054688 57.089844 143.667969 57.882812 C 142.480469 58.675781 140.304688 59.664062 137.53125 60.457031 C 132.191406 62.039062 124.472656 63.027344 116.160156 63.027344 C 113.984375 63.027344 111.808594 63.027344 109.828125 62.828125 C 108.640625 62.828125 107.652344 63.621094 107.652344 64.808594 C 107.652344 65.996094 108.441406 66.984375 109.628906 66.984375 C 111.808594 67.183594 113.984375 67.183594 116.160156 67.183594 C 124.867188 67.183594 132.785156 66.195312 138.71875 64.414062 C 139.710938 64.214844 140.5 63.820312 141.492188 63.621094 L 138.324219 116.65625 C 138.324219 118.039062 137.730469 120.21875 134.960938 122.394531 C 132.191406 124.375 127.042969 126.351562 117.742188 126.550781 C 116.753906 126.550781 115.964844 127.339844 115.964844 128.527344 C 115.964844 129.519531 116.753906 130.308594 117.941406 130.308594 C 127.636719 130.113281 133.574219 128.132812 137.335938 125.363281 C 140.898438 122.59375 142.085938 119.226562 142.28125 117.050781 L 146.042969 61.640625 C 146.238281 61.445312 146.4375 61.445312 146.636719 61.246094 C 148.417969 60.058594 150 58.277344 150 56.101562 L 150 43.238281 C 150 41.855469 149.207031 40.667969 148.417969 39.675781 C 146.042969 36.90625 141.6875 35.324219 135.160156 33.9375 C 133.972656 33.738281 132.980469 34.332031 132.785156 35.519531 C 132.585938 36.707031 133.179688 37.699219 134.367188 37.894531 C 140.304688 39.082031 144.261719 41.0625 145.25 42.25 C 145.84375 42.84375 145.84375 43.039062 145.644531 43.238281 C 145.449219 43.632812 145.054688 44.425781 143.46875 45.21875 C 140.5 47 135.160156 48.382812 128.824219 49.175781 C 122.492188 49.96875 114.972656 50.164062 107.851562 49.570312 C 100.726562 49.175781 94.789062 47.988281 91.425781 46.207031 C 86.875 44.03125 86.875 42.644531 90.433594 40.863281 C 92.019531 40.074219 93.996094 39.28125 96.570312 38.6875 C 101.714844 37.300781 108.441406 36.511719 115.964844 36.511719 C 117.148438 36.511719 117.941406 35.519531 117.941406 34.53125 C 117.941406 33.144531 116.953125 32.355469 115.765625 32.355469 Z M 115.765625 32.355469 " fill-opacity="1" fill-rule="nonzero"/><path fill="#000000" d="M 129.617188 15.136719 C 129.816406 15.136719 130.011719 15.136719 130.210938 15.136719 C 131.199219 15.335938 131.597656 16.324219 131.398438 17.117188 C 129.222656 25.230469 127.042969 33.34375 124.867188 41.457031 C 123.878906 41.855469 123.085938 42.25 122.492188 42.050781 C 122.097656 42.050781 121.703125 41.65625 121.304688 41.261719 L 128.035156 16.324219 C 128.230469 15.730469 128.824219 15.136719 129.617188 15.136719 Z M 129.816406 11.179688 C 127.242188 11.179688 124.867188 12.960938 124.273438 15.535156 L 117.148438 41.65625 C 116.953125 42.25 117.148438 42.84375 117.347656 43.238281 C 118.335938 44.820312 120.117188 46.007812 121.898438 46.40625 C 123.679688 46.601562 125.660156 46.207031 127.636719 45.019531 C 128.035156 44.820312 128.429688 44.226562 128.628906 43.832031 L 135.355469 18.503906 C 136.148438 15.535156 134.367188 12.171875 131.199219 11.378906 C 130.804688 11.179688 130.210938 11.179688 129.816406 11.179688 Z M 129.816406 11.179688 " fill-opacity="1" fill-rule="nonzero"/><path fill="#000000" d="M 9.695312 50.5625 L 16.425781 68.371094 L 11.675781 68.371094 C 11.28125 68.371094 11.082031 68.371094 10.6875 68.371094 L 4.75 52.339844 Z M 35.421875 22.460938 C 34.234375 22.460938 33.441406 23.449219 33.441406 24.4375 L 33.441406 27.210938 L 24.339844 27.210938 C 23.152344 27.210938 22.363281 28.199219 22.363281 29.1875 L 22.363281 39.480469 L 20.382812 34.136719 C 19.988281 33.144531 18.800781 32.554688 17.808594 32.949219 L 7.320312 36.90625 C 6.332031 37.300781 5.738281 38.488281 6.132812 39.480469 L 8.707031 46.40625 L 1.582031 49.175781 C 0.59375 49.570312 0 50.757812 0.394531 51.746094 L 6.925781 69.558594 C 4.75 71.140625 3.761719 74.109375 4.15625 76.285156 L 11.875 122.789062 C 12.269531 124.769531 12.863281 126.351562 14.246094 127.738281 C 15.632812 129.121094 17.414062 130.113281 19.589844 130.113281 L 32.257812 130.113281 C 33.441406 130.113281 34.234375 129.121094 34.234375 128.132812 C 34.234375 126.945312 33.246094 126.15625 32.257812 126.15625 L 19.589844 126.15625 C 18.601562 126.15625 18.007812 125.757812 17.214844 125.164062 C 16.621094 124.570312 16.027344 123.382812 15.832031 122.195312 L 8.113281 75.691406 C 7.914062 74.703125 8.3125 73.910156 8.707031 73.316406 C 9.300781 72.722656 10.09375 72.328125 11.675781 72.328125 L 22.363281 72.328125 C 23.546875 77.078125 26.515625 81.429688 29.882812 83.804688 C 30.871094 84.398438 32.058594 84.203125 32.847656 83.410156 C 33.441406 82.421875 33.246094 81.234375 32.453125 80.441406 C 29.289062 78.066406 26.914062 74.703125 26.320312 69.953125 C 26.121094 68.964844 25.328125 68.171875 24.339844 68.171875 L 20.976562 68.171875 L 10.488281 40.074219 L 17.214844 37.5 L 22.363281 51.15625 L 23.351562 63.226562 C 23.546875 65.402344 26.320312 65.601562 26.320312 63.226562 L 26.320312 31.167969 L 33.441406 31.167969 L 34.433594 67.183594 C 34.433594 69.164062 37.597656 69.558594 37.597656 67.183594 L 37.597656 26.417969 L 44.722656 26.417969 L 44.722656 29.386719 L 45.316406 58.675781 C 45.316406 61.046875 48.679688 61.445312 48.679688 58.675781 L 48.679688 31.367188 L 55.804688 31.367188 L 56.597656 51.15625 C 56.597656 53.527344 58.574219 53.925781 59.367188 51.945312 L 65.105469 37.894531 L 71.832031 40.46875 L 67.875 51.351562 C 66.886719 54.121094 70.054688 54.714844 70.84375 52.738281 L 76.386719 40.074219 C 76.78125 39.082031 76.1875 37.894531 75.199219 37.5 L 64.710938 33.542969 C 63.71875 33.144531 62.53125 33.738281 62.136719 34.730469 L 60.160156 40.074219 L 60.160156 29.386719 C 60.160156 28.199219 59.167969 27.40625 58.179688 27.40625 L 49.078125 27.40625 L 49.078125 24.636719 C 49.078125 23.449219 48.085938 22.660156 47.097656 22.660156 L 35.421875 22.660156 Z M 35.421875 22.460938 " fill-opacity="1" fill-rule="nonzero"/></svg>