<svg xmlns="http://www.w3.org/2000/svg" xmlns:xlink="http://www.w3.org/1999/xlink" width="200" zoomAndPan="magnify" viewBox="0 0 150 149.999998" height="200" preserveAspectRatio="xMidYMid meet" version="1.0"><defs><clipPath id="44ab75320c"><path d="M 28 84 L 99 84 L 99 145.6875 L 28 145.6875 Z M 28 84 " clip-rule="nonzero"/></clipPath></defs><g clip-path="url(#44ab75320c)"><path fill="#000000" d="M 75.351562 145.359375 C 73.851562 145.34375 72.40625 145.058594 71.015625 144.503906 C 69.621094 143.945312 68.378906 143.160156 67.277344 142.136719 C 67.039062 141.910156 66.777344 141.707031 66.5 141.53125 C 66.21875 141.351562 65.925781 141.203125 65.617188 141.078125 C 65.308594 140.957031 64.996094 140.867188 64.667969 140.804688 C 64.34375 140.742188 64.015625 140.710938 63.6875 140.710938 C 63.355469 140.710938 63.027344 140.742188 62.703125 140.804688 C 62.378906 140.867188 62.0625 140.957031 61.753906 141.078125 C 61.445312 141.203125 61.152344 141.351562 60.875 141.53125 C 60.59375 141.707031 60.335938 141.910156 60.09375 142.136719 C 58.996094 143.160156 57.75 143.945312 56.355469 144.5 C 54.964844 145.058594 53.519531 145.34375 52.023438 145.359375 C 38.503906 145.359375 28.695312 129.621094 28.695312 107.933594 C 28.695312 95.035156 37.066406 84.542969 47.355469 84.542969 C 48.703125 84.53125 50.035156 84.65625 51.355469 84.917969 C 52.675781 85.183594 53.957031 85.582031 55.191406 86.113281 C 56.429688 86.648438 57.597656 87.300781 58.699219 88.078125 C 59.800781 88.855469 60.8125 89.738281 61.730469 90.726562 C 61.988281 90.980469 62.289062 91.179688 62.628906 91.316406 C 62.96875 91.457031 63.320312 91.527344 63.6875 91.527344 C 64.050781 91.527344 64.402344 91.457031 64.742188 91.316406 C 65.082031 91.179688 65.382812 90.980469 65.644531 90.726562 C 66.5625 89.738281 67.570312 88.855469 68.671875 88.078125 C 69.773438 87.300781 70.941406 86.648438 72.179688 86.113281 C 73.417969 85.582031 74.695312 85.183594 76.015625 84.917969 C 77.335938 84.65625 78.667969 84.53125 80.015625 84.542969 C 90.304688 84.542969 98.679688 95.035156 98.679688 107.933594 C 98.679688 129.621094 88.867188 145.359375 75.351562 145.359375 Z M 63.6875 136.003906 C 64.925781 136.015625 66.121094 136.25 67.273438 136.703125 C 68.429688 137.160156 69.460938 137.804688 70.378906 138.644531 C 71.050781 139.28125 71.816406 139.773438 72.675781 140.125 C 73.53125 140.476562 74.425781 140.660156 75.351562 140.679688 C 85.988281 140.679688 94.011719 126.601562 94.011719 107.933594 C 94.011719 97.617188 87.734375 89.222656 80.015625 89.222656 C 77.949219 89.191406 75.96875 89.582031 74.066406 90.394531 C 72.167969 91.203125 70.511719 92.363281 69.097656 93.871094 C 68.753906 94.246094 68.371094 94.578125 67.957031 94.875 C 67.542969 95.167969 67.105469 95.417969 66.636719 95.621094 C 66.171875 95.824219 65.691406 95.980469 65.195312 96.085938 C 64.695312 96.1875 64.195312 96.238281 63.6875 96.238281 C 63.179688 96.238281 62.675781 96.1875 62.175781 96.085938 C 61.679688 95.980469 61.199219 95.824219 60.734375 95.621094 C 60.269531 95.417969 59.828125 95.167969 59.414062 94.875 C 59 94.578125 58.621094 94.246094 58.273438 93.871094 C 56.859375 92.363281 55.203125 91.203125 53.304688 90.394531 C 51.402344 89.582031 49.421875 89.191406 47.355469 89.222656 C 39.636719 89.222656 33.359375 97.617188 33.359375 107.933594 C 33.359375 126.601562 41.382812 140.679688 52.023438 140.679688 C 52.949219 140.660156 53.839844 140.476562 54.695312 140.125 C 55.554688 139.773438 56.320312 139.28125 56.992188 138.644531 C 57.910156 137.804688 58.945312 137.160156 60.097656 136.703125 C 61.25 136.25 62.445312 136.015625 63.6875 136.003906 Z M 63.6875 136.003906 " fill-opacity="1" fill-rule="nonzero"/></g><path fill="#000000" d="M 63.6875 93.898438 C 63.375 93.898438 63.078125 93.839844 62.792969 93.722656 C 62.507812 93.601562 62.253906 93.433594 62.035156 93.214844 C 61.816406 92.996094 61.648438 92.742188 61.53125 92.457031 C 61.414062 92.167969 61.351562 91.871094 61.351562 91.5625 C 61.351562 79.953125 68.679688 70.507812 77.683594 70.507812 C 77.992188 70.507812 78.289062 70.570312 78.574219 70.6875 C 78.859375 70.804688 79.113281 70.976562 79.332031 71.195312 C 79.550781 71.414062 79.71875 71.667969 79.839844 71.953125 C 79.957031 72.238281 80.015625 72.539062 80.015625 72.847656 C 80.015625 73.160156 79.957031 73.457031 79.839844 73.742188 C 79.71875 74.03125 79.550781 74.28125 79.332031 74.503906 C 79.113281 74.722656 78.859375 74.890625 78.574219 75.007812 C 78.289062 75.128906 77.992188 75.1875 77.683594 75.1875 C 71.25 75.1875 66.019531 82.535156 66.019531 91.5625 C 66.019531 91.871094 65.960938 92.167969 65.839844 92.457031 C 65.722656 92.742188 65.554688 92.996094 65.335938 93.214844 C 65.117188 93.433594 64.863281 93.601562 64.578125 93.722656 C 64.292969 93.839844 63.996094 93.898438 63.6875 93.898438 Z M 63.6875 93.898438 " fill-opacity="1" fill-rule="nonzero"/><path fill="#000000" d="M 38.023438 35.425781 L 19.363281 35.425781 C 19.054688 35.425781 18.753906 35.363281 18.46875 35.246094 C 18.183594 35.128906 17.929688 34.957031 17.710938 34.738281 C 17.492188 34.519531 17.324219 34.265625 17.207031 33.980469 C 17.089844 33.695312 17.03125 33.394531 17.03125 33.085938 L 17.03125 26.066406 C 17.03125 25.605469 17.074219 25.152344 17.164062 24.699219 C 17.253906 24.246094 17.386719 23.808594 17.5625 23.382812 C 17.738281 22.957031 17.953125 22.550781 18.210938 22.167969 C 18.464844 21.785156 18.753906 21.433594 19.078125 21.105469 C 19.402344 20.78125 19.757812 20.488281 20.140625 20.234375 C 20.523438 19.976562 20.925781 19.761719 21.351562 19.585938 C 21.773438 19.410156 22.210938 19.273438 22.664062 19.183594 C 23.113281 19.09375 23.570312 19.050781 24.027344 19.050781 L 33.359375 19.050781 C 33.820312 19.050781 34.273438 19.09375 34.722656 19.183594 C 35.175781 19.273438 35.613281 19.410156 36.039062 19.585938 C 36.460938 19.761719 36.867188 19.976562 37.246094 20.234375 C 37.628906 20.488281 37.984375 20.78125 38.308594 21.105469 C 38.632812 21.433594 38.921875 21.785156 39.179688 22.167969 C 39.433594 22.550781 39.648438 22.957031 39.824219 23.382812 C 40 23.808594 40.132812 24.246094 40.222656 24.699219 C 40.3125 25.152344 40.359375 25.605469 40.359375 26.066406 L 40.359375 33.085938 C 40.359375 33.394531 40.296875 33.695312 40.179688 33.980469 C 40.0625 34.265625 39.894531 34.519531 39.675781 34.738281 C 39.457031 34.957031 39.203125 35.128906 38.917969 35.246094 C 38.632812 35.363281 38.335938 35.425781 38.023438 35.425781 Z M 21.695312 30.746094 L 35.691406 30.746094 L 35.691406 26.066406 C 35.691406 25.757812 35.632812 25.460938 35.515625 25.171875 C 35.394531 24.886719 35.226562 24.632812 35.007812 24.414062 C 34.789062 24.195312 34.539062 24.027344 34.253906 23.90625 C 33.964844 23.789062 33.667969 23.730469 33.359375 23.730469 L 24.027344 23.730469 C 23.71875 23.730469 23.421875 23.789062 23.136719 23.90625 C 22.847656 24.027344 22.597656 24.195312 22.378906 24.414062 C 22.160156 24.632812 21.992188 24.886719 21.871094 25.171875 C 21.753906 25.460938 21.695312 25.757812 21.695312 26.066406 Z M 21.695312 30.746094 " fill-opacity="1" fill-rule="nonzero"/><path fill="#000000" d="M 40.359375 140.679688 L 12.363281 140.679688 C 11.90625 140.679688 11.449219 140.636719 11 140.546875 C 10.546875 140.457031 10.109375 140.324219 9.6875 140.144531 C 9.261719 139.96875 8.859375 139.753906 8.476562 139.496094 C 8.09375 139.242188 7.738281 138.949219 7.414062 138.625 C 7.089844 138.300781 6.800781 137.945312 6.546875 137.5625 C 6.289062 137.179688 6.074219 136.773438 5.898438 136.347656 C 5.722656 135.921875 5.589844 135.484375 5.5 135.03125 C 5.410156 134.582031 5.367188 134.125 5.367188 133.664062 L 5.367188 97.316406 C 5.386719 96.933594 5.308594 96.570312 5.132812 96.230469 C 4.957031 95.886719 4.710938 95.613281 4.386719 95.40625 C 3.921875 95.15625 3.488281 94.855469 3.089844 94.503906 C 2.691406 94.15625 2.339844 93.765625 2.027344 93.335938 C 1.71875 92.90625 1.460938 92.445312 1.253906 91.957031 C 1.046875 91.464844 0.898438 90.960938 0.808594 90.4375 C 0.714844 89.914062 0.683594 89.386719 0.710938 88.859375 C 0.738281 88.328125 0.824219 87.808594 0.972656 87.296875 C 1.117188 86.785156 1.316406 86.300781 1.574219 85.835938 C 1.828125 85.371094 2.132812 84.9375 2.488281 84.542969 C 2.203125 84.226562 1.949219 83.882812 1.726562 83.519531 C 1.503906 83.152344 1.316406 82.769531 1.160156 82.371094 C 1.007812 81.96875 0.894531 81.558594 0.816406 81.140625 C 0.738281 80.71875 0.699219 80.292969 0.699219 79.867188 C 0.699219 79.4375 0.738281 79.011719 0.816406 78.59375 C 0.894531 78.171875 1.007812 77.761719 1.160156 77.359375 C 1.316406 76.960938 1.503906 76.578125 1.726562 76.214844 C 1.949219 75.847656 2.203125 75.507812 2.488281 75.1875 C 2.132812 74.792969 1.828125 74.363281 1.574219 73.898438 C 1.316406 73.433594 1.117188 72.945312 0.972656 72.433594 C 0.824219 71.925781 0.738281 71.402344 0.710938 70.875 C 0.683594 70.34375 0.714844 69.816406 0.804688 69.292969 C 0.898438 68.769531 1.046875 68.265625 1.253906 67.777344 C 1.457031 67.285156 1.714844 66.828125 2.027344 66.398438 C 2.335938 65.964844 2.691406 65.578125 3.089844 65.226562 C 3.488281 64.878906 3.917969 64.578125 4.386719 64.324219 C 4.707031 64.117188 4.957031 63.84375 5.132812 63.503906 C 5.308594 63.160156 5.386719 62.800781 5.367188 62.417969 L 5.367188 54.136719 C 5.367188 47.6875 9.550781 42.441406 14.695312 42.441406 C 17.226562 42.441406 19.363281 39.226562 19.363281 35.425781 L 19.363281 33.085938 L 24.027344 33.085938 L 24.027344 35.425781 C 24.027344 41.871094 19.84375 47.117188 14.695312 47.117188 C 12.167969 47.117188 10.03125 50.332031 10.03125 54.136719 L 10.03125 62.417969 C 10.042969 63.027344 9.976562 63.628906 9.824219 64.222656 C 9.671875 64.816406 9.449219 65.375 9.144531 65.90625 C 8.84375 66.4375 8.472656 66.917969 8.042969 67.351562 C 7.609375 67.78125 7.125 68.148438 6.59375 68.445312 C 6.367188 68.570312 6.160156 68.726562 5.984375 68.917969 C 5.808594 69.109375 5.667969 69.324219 5.5625 69.5625 C 5.457031 69.800781 5.390625 70.050781 5.371094 70.308594 C 5.347656 70.570312 5.367188 70.828125 5.433594 71.078125 C 5.496094 71.332031 5.597656 71.570312 5.738281 71.785156 C 5.882812 72.003906 6.054688 72.195312 6.261719 72.355469 C 6.464844 72.515625 6.691406 72.636719 6.9375 72.722656 C 7.183594 72.808594 7.4375 72.847656 7.699219 72.847656 C 8.007812 72.847656 8.304688 72.90625 8.589844 73.027344 C 8.875 73.144531 9.128906 73.3125 9.347656 73.535156 C 9.566406 73.753906 9.734375 74.003906 9.855469 74.292969 C 9.972656 74.578125 10.03125 74.878906 10.03125 75.1875 C 10.03125 75.496094 9.972656 75.796875 9.855469 76.082031 C 9.734375 76.371094 9.566406 76.621094 9.347656 76.839844 C 9.128906 77.0625 8.875 77.230469 8.589844 77.347656 C 8.304688 77.46875 8.007812 77.527344 7.699219 77.527344 C 7.390625 77.527344 7.089844 77.585938 6.804688 77.703125 C 6.519531 77.824219 6.265625 77.992188 6.046875 78.210938 C 5.828125 78.429688 5.660156 78.683594 5.542969 78.96875 C 5.425781 79.257812 5.367188 79.554688 5.367188 79.867188 C 5.367188 80.175781 5.425781 80.472656 5.542969 80.761719 C 5.660156 81.046875 5.828125 81.300781 6.046875 81.519531 C 6.265625 81.738281 6.519531 81.90625 6.804688 82.027344 C 7.089844 82.144531 7.390625 82.203125 7.699219 82.203125 C 8.007812 82.203125 8.304688 82.265625 8.589844 82.382812 C 8.875 82.5 9.128906 82.671875 9.347656 82.890625 C 9.566406 83.109375 9.734375 83.363281 9.855469 83.648438 C 9.972656 83.933594 10.03125 84.234375 10.03125 84.542969 C 10.03125 84.855469 9.972656 85.152344 9.855469 85.4375 C 9.734375 85.726562 9.566406 85.976562 9.347656 86.199219 C 9.128906 86.417969 8.875 86.585938 8.589844 86.703125 C 8.304688 86.824219 8.007812 86.882812 7.699219 86.882812 C 7.4375 86.882812 7.183594 86.925781 6.9375 87.007812 C 6.691406 87.09375 6.46875 87.214844 6.261719 87.378906 C 6.058594 87.539062 5.882812 87.726562 5.742188 87.945312 C 5.601562 88.164062 5.496094 88.398438 5.433594 88.652344 C 5.371094 88.90625 5.351562 89.164062 5.371094 89.421875 C 5.394531 89.683594 5.457031 89.929688 5.5625 90.167969 C 5.667969 90.40625 5.808594 90.621094 5.988281 90.8125 C 6.164062 91.003906 6.367188 91.160156 6.597656 91.285156 C 7.128906 91.585938 7.609375 91.949219 8.042969 92.382812 C 8.476562 92.8125 8.84375 93.292969 9.144531 93.824219 C 9.449219 94.355469 9.671875 94.917969 9.824219 95.507812 C 9.972656 96.101562 10.042969 96.703125 10.03125 97.316406 L 10.03125 133.664062 C 10.03125 133.972656 10.089844 134.273438 10.207031 134.558594 C 10.328125 134.84375 10.496094 135.097656 10.714844 135.316406 C 10.933594 135.535156 11.183594 135.707031 11.472656 135.824219 C 11.757812 135.941406 12.054688 136.003906 12.363281 136.003906 L 40.359375 136.003906 Z M 40.359375 140.679688 " fill-opacity="1" fill-rule="nonzero"/><path fill="#000000" d="M 49.6875 86.882812 C 49.378906 86.882812 49.082031 86.824219 48.796875 86.703125 C 48.511719 86.585938 48.257812 86.417969 48.039062 86.199219 C 47.820312 85.976562 47.652344 85.726562 47.535156 85.4375 C 47.414062 85.152344 47.355469 84.855469 47.355469 84.542969 C 47.355469 84.234375 47.414062 83.933594 47.535156 83.648438 C 47.652344 83.363281 47.820312 83.109375 48.039062 82.890625 C 48.257812 82.671875 48.511719 82.5 48.796875 82.382812 C 49.082031 82.265625 49.378906 82.203125 49.6875 82.203125 C 50 82.203125 50.296875 82.144531 50.582031 82.027344 C 50.867188 81.90625 51.121094 81.738281 51.339844 81.519531 C 51.558594 81.300781 51.726562 81.046875 51.84375 80.761719 C 51.960938 80.472656 52.023438 80.175781 52.023438 79.867188 C 52.023438 79.554688 51.960938 79.257812 51.84375 78.96875 C 51.726562 78.683594 51.558594 78.429688 51.339844 78.210938 C 51.121094 77.992188 50.867188 77.824219 50.582031 77.703125 C 50.296875 77.585938 50 77.527344 49.6875 77.527344 C 49.378906 77.527344 49.082031 77.46875 48.796875 77.347656 C 48.511719 77.230469 48.257812 77.0625 48.039062 76.839844 C 47.820312 76.621094 47.652344 76.371094 47.535156 76.082031 C 47.414062 75.796875 47.355469 75.496094 47.355469 75.1875 C 47.355469 74.878906 47.414062 74.578125 47.535156 74.292969 C 47.652344 74.003906 47.820312 73.753906 48.039062 73.535156 C 48.257812 73.3125 48.511719 73.144531 48.796875 73.027344 C 49.082031 72.90625 49.378906 72.847656 49.6875 72.847656 C 49.949219 72.847656 50.203125 72.804688 50.449219 72.722656 C 50.695312 72.636719 50.917969 72.515625 51.125 72.355469 C 51.332031 72.195312 51.503906 72.003906 51.644531 71.785156 C 51.789062 71.566406 51.890625 71.332031 51.953125 71.078125 C 52.015625 70.824219 52.039062 70.570312 52.015625 70.308594 C 51.992188 70.050781 51.929688 69.800781 51.824219 69.5625 C 51.71875 69.324219 51.578125 69.109375 51.398438 68.917969 C 51.222656 68.726562 51.019531 68.570312 50.789062 68.445312 C 50.257812 68.144531 49.777344 67.78125 49.34375 67.351562 C 48.910156 66.917969 48.542969 66.4375 48.242188 65.90625 C 47.941406 65.375 47.714844 64.8125 47.5625 64.222656 C 47.414062 63.628906 47.34375 63.027344 47.355469 62.417969 L 47.355469 54.136719 C 47.355469 50.332031 45.21875 47.117188 42.691406 47.117188 C 37.542969 47.117188 33.359375 41.871094 33.359375 35.425781 L 33.359375 33.085938 C 33.359375 32.773438 33.417969 32.476562 33.535156 32.191406 C 33.65625 31.902344 33.824219 31.648438 34.042969 31.429688 C 34.261719 31.210938 34.511719 31.042969 34.800781 30.925781 C 35.085938 30.804688 35.382812 30.746094 35.691406 30.746094 C 36 30.746094 36.300781 30.804688 36.585938 30.925781 C 36.871094 31.042969 37.121094 31.210938 37.339844 31.429688 C 37.558594 31.648438 37.730469 31.902344 37.847656 32.191406 C 37.964844 32.476562 38.023438 32.773438 38.023438 33.085938 L 38.023438 35.425781 C 38.023438 39.226562 40.160156 42.441406 42.691406 42.441406 C 47.835938 42.441406 52.023438 47.6875 52.023438 54.136719 L 52.023438 62.417969 C 52.003906 62.800781 52.078125 63.160156 52.253906 63.503906 C 52.429688 63.84375 52.675781 64.117188 53 64.324219 C 53.464844 64.578125 53.898438 64.875 54.296875 65.226562 C 54.695312 65.574219 55.050781 65.964844 55.359375 66.394531 C 55.667969 66.828125 55.925781 67.285156 56.132812 67.777344 C 56.339844 68.265625 56.488281 68.769531 56.578125 69.292969 C 56.671875 69.816406 56.703125 70.34375 56.675781 70.875 C 56.648438 71.402344 56.5625 71.921875 56.417969 72.433594 C 56.269531 72.945312 56.070312 73.433594 55.8125 73.898438 C 55.558594 74.363281 55.253906 74.792969 54.902344 75.1875 C 55.351562 75.691406 55.71875 76.25 56.007812 76.863281 C 56.296875 77.472656 56.496094 78.113281 56.597656 78.785156 C 56.703125 79.453125 56.710938 80.121094 56.621094 80.792969 C 56.53125 81.464844 56.347656 82.109375 56.074219 82.726562 C 55.796875 83.347656 55.441406 83.914062 55.003906 84.425781 C 54.5625 84.941406 54.058594 85.382812 53.492188 85.75 C 52.925781 86.121094 52.320312 86.402344 51.671875 86.59375 C 51.027344 86.785156 50.363281 86.882812 49.6875 86.882812 Z M 49.6875 86.882812 " fill-opacity="1" fill-rule="nonzero"/><path fill="#000000" d="M 7.699219 72.847656 L 49.6875 72.847656 L 49.6875 77.527344 L 7.699219 77.527344 Z M 7.699219 72.847656 " fill-opacity="1" fill-rule="nonzero"/><path fill="#000000" d="M 7.699219 82.203125 L 49.6875 82.203125 L 49.6875 86.882812 L 7.699219 86.882812 Z M 7.699219 82.203125 " fill-opacity="1" fill-rule="nonzero"/><path fill="#000000" d="M 42.691406 68.171875 L 14.695312 68.171875 C 14.386719 68.171875 14.089844 68.109375 13.804688 67.992188 C 13.519531 67.875 13.265625 67.703125 13.046875 67.484375 C 12.828125 67.265625 12.660156 67.011719 12.542969 66.726562 C 12.421875 66.441406 12.363281 66.140625 12.363281 65.832031 C 12.363281 65.519531 12.421875 65.222656 12.542969 64.9375 C 12.660156 64.648438 12.828125 64.398438 13.046875 64.175781 C 13.265625 63.957031 13.519531 63.789062 13.804688 63.671875 C 14.089844 63.550781 14.386719 63.492188 14.695312 63.492188 L 42.691406 63.492188 C 43 63.492188 43.296875 63.550781 43.582031 63.671875 C 43.867188 63.789062 44.121094 63.957031 44.339844 64.175781 C 44.558594 64.398438 44.726562 64.648438 44.847656 64.9375 C 44.964844 65.222656 45.023438 65.519531 45.023438 65.832031 C 45.023438 66.140625 44.964844 66.441406 44.847656 66.726562 C 44.726562 67.011719 44.558594 67.265625 44.339844 67.484375 C 44.121094 67.703125 43.867188 67.875 43.582031 67.992188 C 43.296875 68.109375 43 68.171875 42.691406 68.171875 Z M 42.691406 68.171875 " fill-opacity="1" fill-rule="nonzero"/><path fill="#000000" d="M 33.359375 96.238281 L 14.695312 96.238281 C 14.386719 96.238281 14.089844 96.179688 13.804688 96.0625 C 13.519531 95.941406 13.265625 95.773438 13.046875 95.554688 C 12.828125 95.335938 12.660156 95.082031 12.542969 94.792969 C 12.421875 94.507812 12.363281 94.210938 12.363281 93.898438 C 12.363281 93.589844 12.421875 93.292969 12.542969 93.003906 C 12.660156 92.71875 12.828125 92.464844 13.046875 92.246094 C 13.265625 92.027344 13.519531 91.859375 13.804688 91.738281 C 14.089844 91.621094 14.386719 91.5625 14.695312 91.5625 L 33.359375 91.5625 C 33.667969 91.5625 33.964844 91.621094 34.253906 91.738281 C 34.539062 91.859375 34.789062 92.027344 35.007812 92.246094 C 35.226562 92.464844 35.394531 92.71875 35.515625 93.003906 C 35.632812 93.292969 35.691406 93.589844 35.691406 93.898438 C 35.691406 94.210938 35.632812 94.507812 35.515625 94.792969 C 35.394531 95.082031 35.226562 95.335938 35.007812 95.554688 C 34.789062 95.773438 34.539062 95.941406 34.253906 96.0625 C 33.964844 96.179688 33.667969 96.238281 33.359375 96.238281 Z M 33.359375 96.238281 " fill-opacity="1" fill-rule="nonzero"/><path fill="#000000" d="M 103.34375 136.003906 L 89.347656 136.003906 L 89.347656 131.324219 L 101.011719 131.324219 L 101.011719 47.117188 L 47.355469 47.117188 L 47.355469 42.441406 L 103.34375 42.441406 C 103.652344 42.441406 103.949219 42.5 104.238281 42.617188 C 104.523438 42.738281 104.773438 42.90625 104.992188 43.125 C 105.210938 43.34375 105.378906 43.597656 105.5 43.886719 C 105.617188 44.171875 105.675781 44.46875 105.675781 44.78125 L 105.675781 133.664062 C 105.675781 133.972656 105.617188 134.273438 105.5 134.558594 C 105.378906 134.84375 105.210938 135.097656 104.992188 135.316406 C 104.773438 135.535156 104.523438 135.707031 104.238281 135.824219 C 103.949219 135.941406 103.652344 136.003906 103.34375 136.003906 Z M 103.34375 136.003906 " fill-opacity="1" fill-rule="nonzero"/><path fill="#000000" d="M 122.007812 136.003906 L 103.34375 136.003906 C 103.035156 136.003906 102.738281 135.941406 102.449219 135.824219 C 102.164062 135.707031 101.914062 135.535156 101.695312 135.316406 C 101.476562 135.097656 101.308594 134.84375 101.1875 134.558594 C 101.070312 134.273438 101.011719 133.972656 101.011719 133.664062 C 101.011719 133.351562 101.070312 133.054688 101.1875 132.769531 C 101.308594 132.480469 101.476562 132.230469 101.695312 132.007812 C 101.914062 131.789062 102.164062 131.621094 102.449219 131.503906 C 102.738281 131.382812 103.035156 131.324219 103.34375 131.324219 L 119.671875 131.324219 L 119.671875 45.332031 L 112.675781 31.296875 L 105.441406 45.824219 C 105.304688 46.101562 105.117188 46.34375 104.886719 46.546875 C 104.652344 46.75 104.386719 46.902344 104.09375 47 C 103.800781 47.097656 103.5 47.136719 103.191406 47.113281 C 102.882812 47.09375 102.589844 47.011719 102.3125 46.875 C 102.035156 46.734375 101.796875 46.546875 101.59375 46.3125 C 101.390625 46.078125 101.238281 45.816406 101.140625 45.519531 C 101.042969 45.226562 101.003906 44.925781 101.027344 44.613281 C 101.050781 44.304688 101.128906 44.011719 101.265625 43.734375 L 110.597656 25.023438 C 110.707031 24.839844 110.835938 24.675781 110.984375 24.527344 C 111.136719 24.382812 111.304688 24.253906 111.484375 24.152344 C 111.667969 24.046875 111.863281 23.96875 112.066406 23.914062 C 112.269531 23.859375 112.476562 23.832031 112.6875 23.832031 C 112.898438 23.832031 113.105469 23.859375 113.308594 23.914062 C 113.511719 23.96875 113.703125 24.046875 113.886719 24.152344 C 114.070312 24.253906 114.238281 24.382812 114.386719 24.527344 C 114.539062 24.675781 114.667969 24.839844 114.773438 25.023438 L 124.105469 43.734375 C 124.265625 44.066406 124.34375 44.414062 124.339844 44.78125 L 124.339844 133.664062 C 124.339844 133.972656 124.28125 134.273438 124.160156 134.558594 C 124.042969 134.84375 123.875 135.097656 123.65625 135.316406 C 123.4375 135.535156 123.183594 135.707031 122.898438 135.824219 C 122.613281 135.941406 122.316406 136.003906 122.007812 136.003906 Z M 122.007812 136.003906 " fill-opacity="1" fill-rule="nonzero"/><path fill="#000000" d="M 47.355469 47.117188 C 47.15625 47.117188 46.960938 47.09375 46.769531 47.042969 C 46.578125 46.992188 46.394531 46.917969 46.21875 46.824219 C 46.046875 46.726562 45.886719 46.609375 45.746094 46.46875 C 45.601562 46.332031 45.476562 46.179688 45.371094 46.007812 C 45.269531 45.839844 45.1875 45.660156 45.128906 45.46875 C 45.070312 45.277344 45.035156 45.085938 45.027344 44.886719 C 45.019531 44.6875 45.035156 44.488281 45.074219 44.292969 C 45.117188 44.097656 45.183594 43.914062 45.269531 43.734375 L 54.601562 25.023438 C 54.738281 24.746094 54.925781 24.503906 55.160156 24.300781 C 55.394531 24.097656 55.65625 23.945312 55.949219 23.847656 C 56.246094 23.75 56.546875 23.710938 56.855469 23.734375 C 57.164062 23.753906 57.457031 23.835938 57.734375 23.972656 C 58.007812 24.113281 58.25 24.300781 58.453125 24.535156 C 58.65625 24.769531 58.804688 25.03125 58.902344 25.328125 C 59 25.621094 59.039062 25.921875 59.019531 26.234375 C 58.996094 26.542969 58.914062 26.835938 58.777344 27.113281 L 49.445312 45.824219 C 49.25 46.222656 48.960938 46.539062 48.585938 46.769531 C 48.207031 47.003906 47.796875 47.121094 47.355469 47.117188 Z M 47.355469 47.117188 " fill-opacity="1" fill-rule="nonzero"/><path fill="#000000" d="M 112.675781 28.40625 L 56.6875 28.40625 C 56.378906 28.40625 56.082031 28.347656 55.792969 28.230469 C 55.507812 28.109375 55.257812 27.941406 55.039062 27.722656 C 54.820312 27.503906 54.652344 27.25 54.53125 26.960938 C 54.414062 26.675781 54.355469 26.378906 54.355469 26.066406 L 54.355469 12.035156 C 54.355469 11.574219 54.398438 11.117188 54.488281 10.664062 C 54.578125 10.210938 54.710938 9.773438 54.886719 9.347656 C 55.0625 8.921875 55.277344 8.519531 55.535156 8.136719 C 55.789062 7.75 56.078125 7.398438 56.40625 7.070312 C 56.730469 6.746094 57.082031 6.453125 57.464844 6.199219 C 57.847656 5.941406 58.25 5.726562 58.675781 5.550781 C 59.097656 5.375 59.535156 5.242188 59.988281 5.152344 C 60.4375 5.0625 60.894531 5.015625 61.351562 5.015625 L 108.007812 5.015625 C 108.46875 5.015625 108.925781 5.0625 109.375 5.152344 C 109.824219 5.242188 110.261719 5.375 110.6875 5.550781 C 111.113281 5.726562 111.515625 5.941406 111.898438 6.199219 C 112.28125 6.453125 112.632812 6.746094 112.957031 7.070312 C 113.28125 7.398438 113.574219 7.75 113.828125 8.136719 C 114.082031 8.519531 114.300781 8.921875 114.476562 9.347656 C 114.652344 9.773438 114.785156 10.210938 114.875 10.664062 C 114.964844 11.117188 115.007812 11.574219 115.007812 12.035156 L 115.007812 26.066406 C 115.007812 26.378906 114.949219 26.675781 114.832031 26.960938 C 114.710938 27.25 114.542969 27.503906 114.324219 27.722656 C 114.105469 27.941406 113.851562 28.109375 113.566406 28.230469 C 113.28125 28.347656 112.984375 28.40625 112.675781 28.40625 Z M 59.019531 23.730469 L 110.34375 23.730469 L 110.34375 12.035156 C 110.34375 11.722656 110.28125 11.425781 110.164062 11.136719 C 110.046875 10.851562 109.878906 10.597656 109.660156 10.378906 C 109.441406 10.160156 109.1875 9.992188 108.902344 9.871094 C 108.617188 9.753906 108.320312 9.695312 108.007812 9.695312 L 61.351562 9.695312 C 61.042969 9.695312 60.746094 9.753906 60.460938 9.871094 C 60.175781 9.992188 59.921875 10.160156 59.703125 10.378906 C 59.484375 10.597656 59.316406 10.851562 59.199219 11.136719 C 59.078125 11.425781 59.019531 11.722656 59.019531 12.035156 Z M 59.019531 23.730469 " fill-opacity="1" fill-rule="nonzero"/><path fill="#000000" d="M 143 131.324219 L 122.007812 131.324219 C 121.695312 131.324219 121.398438 131.265625 121.113281 131.144531 C 120.828125 131.027344 120.574219 130.859375 120.355469 130.640625 C 120.136719 130.417969 119.96875 130.167969 119.851562 129.878906 C 119.734375 129.59375 119.671875 129.296875 119.671875 128.984375 C 119.671875 128.675781 119.734375 128.375 119.851562 128.089844 C 119.96875 127.804688 120.136719 127.550781 120.355469 127.332031 C 120.574219 127.113281 120.828125 126.941406 121.113281 126.824219 C 121.398438 126.707031 121.695312 126.644531 122.007812 126.644531 L 143 126.644531 C 143.3125 126.644531 143.609375 126.585938 143.894531 126.46875 C 144.179688 126.347656 144.433594 126.179688 144.652344 125.960938 C 144.871094 125.742188 145.039062 125.488281 145.15625 125.203125 C 145.273438 124.914062 145.335938 124.617188 145.335938 124.308594 L 145.335938 98.578125 C 145.328125 98.113281 145.28125 97.652344 145.183594 97.195312 C 145.089844 96.742188 144.949219 96.296875 144.769531 95.871094 C 144.585938 95.441406 144.363281 95.035156 144.101562 94.652344 C 143.839844 94.265625 143.542969 93.914062 143.210938 93.585938 C 142.878906 93.261719 142.519531 92.96875 142.132812 92.714844 C 141.742188 92.460938 141.332031 92.246094 140.902344 92.074219 C 140.472656 91.898438 140.027344 91.769531 139.570312 91.683594 C 139.117188 91.597656 138.65625 91.554688 138.191406 91.5625 C 137.585938 91.546875 136.988281 91.476562 136.394531 91.351562 C 135.800781 91.222656 135.226562 91.035156 134.671875 90.796875 C 134.113281 90.554688 133.585938 90.265625 133.085938 89.921875 C 132.585938 89.578125 132.125 89.191406 131.699219 88.757812 C 131.273438 88.324219 130.894531 87.855469 130.558594 87.347656 C 130.226562 86.839844 129.941406 86.308594 129.710938 85.746094 C 129.480469 85.183594 129.304688 84.605469 129.1875 84.007812 C 129.066406 83.414062 129.007812 82.8125 129.003906 82.203125 L 129.003906 77.527344 C 129.003906 77.214844 129.0625 76.917969 129.183594 76.632812 C 129.300781 76.34375 129.46875 76.09375 129.6875 75.871094 C 129.90625 75.652344 130.160156 75.484375 130.445312 75.367188 C 130.730469 75.246094 131.027344 75.1875 131.335938 75.1875 C 131.648438 75.1875 131.945312 75.246094 132.230469 75.367188 C 132.515625 75.484375 132.769531 75.652344 132.988281 75.871094 C 133.207031 76.09375 133.375 76.34375 133.492188 76.632812 C 133.609375 76.917969 133.671875 77.214844 133.671875 77.527344 L 133.671875 82.203125 C 133.671875 82.507812 133.703125 82.808594 133.761719 83.105469 C 133.820312 83.40625 133.910156 83.695312 134.023438 83.976562 C 134.140625 84.257812 134.28125 84.523438 134.449219 84.777344 C 134.613281 85.03125 134.804688 85.265625 135.015625 85.480469 C 135.230469 85.699219 135.460938 85.890625 135.710938 86.0625 C 135.960938 86.234375 136.226562 86.378906 136.503906 86.5 C 136.78125 86.621094 137.070312 86.710938 137.363281 86.777344 C 137.660156 86.839844 137.960938 86.875 138.261719 86.882812 C 139.03125 86.878906 139.792969 86.953125 140.546875 87.101562 C 141.300781 87.25 142.035156 87.46875 142.742188 87.761719 C 143.453125 88.054688 144.128906 88.414062 144.769531 88.839844 C 145.410156 89.265625 146.003906 89.75 146.546875 90.292969 C 147.09375 90.835938 147.578125 91.425781 148.007812 92.066406 C 148.4375 92.707031 148.800781 93.378906 149.097656 94.089844 C 149.390625 94.800781 149.617188 95.535156 149.769531 96.289062 C 149.921875 97.042969 149.996094 97.808594 150 98.578125 L 150 124.308594 C 150 124.769531 149.957031 125.222656 149.867188 125.675781 C 149.777344 126.128906 149.644531 126.566406 149.46875 126.992188 C 149.292969 127.417969 149.074219 127.824219 148.820312 128.207031 C 148.566406 128.589844 148.273438 128.941406 147.949219 129.269531 C 147.625 129.59375 147.273438 129.886719 146.890625 130.140625 C 146.507812 130.398438 146.105469 130.613281 145.679688 130.789062 C 145.253906 130.964844 144.816406 131.097656 144.367188 131.191406 C 143.917969 131.28125 143.460938 131.324219 143 131.324219 Z M 143 131.324219 " fill-opacity="1" fill-rule="nonzero"/><path fill="#000000" d="M 136.003906 79.867188 L 122.007812 79.867188 C 121.695312 79.867188 121.398438 79.804688 121.113281 79.6875 C 120.828125 79.570312 120.574219 79.398438 120.355469 79.179688 C 120.136719 78.960938 119.96875 78.707031 119.851562 78.421875 C 119.734375 78.136719 119.671875 77.835938 119.671875 77.527344 L 119.671875 68.171875 C 119.671875 67.859375 119.734375 67.5625 119.851562 67.273438 C 119.96875 66.988281 120.136719 66.734375 120.355469 66.515625 C 120.574219 66.296875 120.828125 66.128906 121.113281 66.007812 C 121.398438 65.890625 121.695312 65.832031 122.007812 65.832031 L 131.335938 65.832031 C 131.796875 65.832031 132.253906 65.875 132.703125 65.964844 C 133.152344 66.054688 133.589844 66.1875 134.015625 66.367188 C 134.441406 66.542969 134.84375 66.757812 135.226562 67.015625 C 135.609375 67.269531 135.960938 67.5625 136.285156 67.886719 C 136.609375 68.210938 136.902344 68.566406 137.15625 68.949219 C 137.410156 69.332031 137.628906 69.738281 137.804688 70.164062 C 137.980469 70.589844 138.113281 71.027344 138.203125 71.480469 C 138.292969 71.929688 138.335938 72.386719 138.335938 72.847656 L 138.335938 77.527344 C 138.335938 77.835938 138.277344 78.136719 138.160156 78.421875 C 138.039062 78.707031 137.871094 78.960938 137.652344 79.179688 C 137.433594 79.398438 137.179688 79.570312 136.894531 79.6875 C 136.609375 79.804688 136.3125 79.867188 136.003906 79.867188 Z M 124.339844 75.1875 L 133.671875 75.1875 L 133.671875 72.847656 C 133.671875 72.539062 133.609375 72.238281 133.492188 71.953125 C 133.375 71.667969 133.207031 71.414062 132.988281 71.195312 C 132.769531 70.976562 132.515625 70.804688 132.230469 70.6875 C 131.945312 70.570312 131.648438 70.507812 131.335938 70.507812 L 124.339844 70.507812 Z M 124.339844 75.1875 " fill-opacity="1" fill-rule="nonzero"/><path fill="#000000" d="M 136.003906 121.96875 L 122.007812 121.96875 C 121.695312 121.96875 121.398438 121.910156 121.113281 121.789062 C 120.828125 121.671875 120.574219 121.503906 120.355469 121.28125 C 120.136719 121.0625 119.96875 120.8125 119.851562 120.523438 C 119.734375 120.238281 119.671875 119.9375 119.671875 119.628906 C 119.671875 119.320312 119.734375 119.019531 119.851562 118.734375 C 119.96875 118.449219 120.136719 118.195312 120.355469 117.976562 C 120.574219 117.757812 120.828125 117.585938 121.113281 117.46875 C 121.398438 117.347656 121.695312 117.289062 122.007812 117.289062 L 133.671875 117.289062 L 133.671875 100.917969 L 122.007812 100.917969 C 121.695312 100.917969 121.398438 100.859375 121.113281 100.738281 C 120.828125 100.621094 120.574219 100.449219 120.355469 100.230469 C 120.136719 100.011719 119.96875 99.757812 119.851562 99.472656 C 119.734375 99.1875 119.671875 98.886719 119.671875 98.578125 C 119.671875 98.269531 119.734375 97.96875 119.851562 97.683594 C 119.96875 97.394531 120.136719 97.144531 120.355469 96.925781 C 120.574219 96.703125 120.828125 96.535156 121.113281 96.417969 C 121.398438 96.296875 121.695312 96.238281 122.007812 96.238281 L 136.003906 96.238281 C 136.3125 96.238281 136.609375 96.296875 136.894531 96.417969 C 137.179688 96.535156 137.433594 96.703125 137.652344 96.925781 C 137.871094 97.144531 138.039062 97.394531 138.160156 97.683594 C 138.277344 97.96875 138.335938 98.269531 138.335938 98.578125 L 138.335938 119.628906 C 138.335938 119.9375 138.277344 120.238281 138.160156 120.523438 C 138.039062 120.8125 137.871094 121.0625 137.652344 121.28125 C 137.433594 121.503906 137.179688 121.671875 136.894531 121.789062 C 136.609375 121.910156 136.3125 121.96875 136.003906 121.96875 Z M 136.003906 121.96875 " fill-opacity="1" fill-rule="nonzero"/><path fill="#000000" d="M 94.011719 93.898438 L 89.347656 93.898438 L 89.347656 58.8125 L 56.6875 58.8125 L 56.6875 89.222656 L 52.023438 89.222656 L 52.023438 56.476562 C 52.023438 56.164062 52.082031 55.867188 52.199219 55.582031 C 52.316406 55.292969 52.484375 55.039062 52.703125 54.820312 C 52.921875 54.601562 53.175781 54.433594 53.460938 54.3125 C 53.746094 54.195312 54.046875 54.136719 54.355469 54.136719 L 91.679688 54.136719 C 91.988281 54.136719 92.285156 54.195312 92.574219 54.3125 C 92.859375 54.433594 93.109375 54.601562 93.328125 54.820312 C 93.546875 55.039062 93.714844 55.292969 93.835938 55.582031 C 93.953125 55.867188 94.011719 56.164062 94.011719 56.476562 Z M 94.011719 93.898438 " fill-opacity="1" fill-rule="nonzero"/></svg>