<svg xmlns="http://www.w3.org/2000/svg" xmlns:xlink="http://www.w3.org/1999/xlink" width="200" zoomAndPan="magnify" viewBox="0 0 150 149.999998" height="200" preserveAspectRatio="xMidYMid meet" version="1.0"><defs><clipPath id="50a4553ba1"><path d="M 80 61 L 149.25 61 L 149.25 106 L 80 106 Z M 80 61 " clip-rule="nonzero"/></clipPath></defs><path fill="#000000" d="M 22.941406 121.304688 C 18.796875 116.554688 15.367188 111.335938 12.652344 105.648438 C 9.9375 99.957031 8.039062 94.007812 6.957031 87.796875 L 2.085938 88.644531 C 2.664062 91.941406 3.464844 95.183594 4.480469 98.375 C 5.5 101.5625 6.726562 104.667969 8.164062 107.691406 C 9.601562 110.714844 11.238281 113.628906 13.070312 116.429688 C 14.902344 119.230469 16.914062 121.898438 19.109375 124.425781 C 21.300781 126.957031 23.652344 129.328125 26.167969 131.539062 C 28.679688 133.75 31.332031 135.78125 34.121094 137.632812 C 36.910156 139.488281 39.808594 141.144531 42.824219 142.605469 C 45.835938 144.0625 48.933594 145.316406 52.113281 146.355469 L 53.644531 141.65625 C 47.703125 139.714844 42.128906 137.015625 36.917969 133.558594 C 31.707031 130.105469 27.046875 126.019531 22.941406 121.304688 Z M 22.941406 121.304688 " fill-opacity="1" fill-rule="nonzero"/><path fill="#000000" d="M 36.949219 18.148438 L 34.21875 14.03125 C 28.410156 17.871094 23.246094 22.441406 18.722656 27.738281 C 14.203125 33.035156 10.5 38.851562 7.613281 45.1875 L 12.113281 47.234375 C 14.804688 41.320312 18.261719 35.890625 22.484375 30.945312 C 26.707031 26.003906 31.527344 21.738281 36.949219 18.148438 Z M 36.949219 18.148438 " fill-opacity="1" fill-rule="nonzero"/><path fill="#000000" d="M 96.59375 141.65625 L 98.125 146.355469 C 102.554688 144.914062 106.808594 143.070312 110.890625 140.824219 C 114.972656 138.578125 118.808594 135.972656 122.398438 133 C 125.984375 130.03125 129.265625 126.75 132.234375 123.160156 C 135.203125 119.570312 137.808594 115.734375 140.054688 111.652344 L 135.726562 109.265625 C 133.632812 113.074219 131.199219 116.65625 128.429688 120.007812 C 125.65625 123.355469 122.597656 126.417969 119.246094 129.191406 C 115.898438 131.964844 112.316406 134.398438 108.507812 136.496094 C 104.699219 138.589844 100.726562 140.3125 96.59375 141.65625 Z M 96.59375 141.65625 " fill-opacity="1" fill-rule="nonzero"/><path fill="#000000" d="M 141.640625 56.777344 L 146.394531 55.417969 C 145.183594 51.207031 143.613281 47.136719 141.679688 43.207031 C 139.75 39.277344 137.488281 35.546875 134.898438 32.015625 C 132.304688 28.484375 129.425781 25.207031 126.253906 22.1875 C 123.085938 19.164062 119.671875 16.445312 116.019531 14.03125 L 113.289062 18.148438 C 116.699219 20.40625 119.882812 22.941406 122.84375 25.761719 C 125.804688 28.582031 128.492188 31.640625 130.910156 34.933594 C 133.328125 38.230469 135.441406 41.710938 137.242188 45.382812 C 139.046875 49.050781 140.511719 52.847656 141.640625 56.777344 Z M 141.640625 56.777344 " fill-opacity="1" fill-rule="nonzero"/><path fill="#000000" d="M 117.125 120.34375 C 117.125 119.855469 117.078125 119.375 116.984375 118.898438 C 116.886719 118.421875 116.746094 117.957031 116.558594 117.507812 C 116.375 117.058594 116.144531 116.632812 115.875 116.226562 C 115.605469 115.824219 115.296875 115.449219 114.953125 115.105469 C 114.609375 114.761719 114.234375 114.453125 113.828125 114.183594 C 113.425781 113.910156 113 113.683594 112.550781 113.496094 C 112.101562 113.308594 111.636719 113.167969 111.160156 113.074219 C 110.683594 112.980469 110.199219 112.929688 109.714844 112.929688 L 82.53125 112.929688 L 82.53125 111.484375 L 83.855469 110.160156 C 85.019531 109.003906 85.914062 107.667969 86.539062 106.152344 C 87.167969 104.640625 87.480469 103.0625 87.472656 101.421875 L 87.472656 95.632812 C 87.472656 94.820312 87.394531 94.019531 87.238281 93.222656 C 87.078125 92.425781 86.84375 91.65625 86.535156 90.90625 C 86.222656 90.15625 85.84375 89.445312 85.390625 88.769531 C 84.941406 88.09375 84.429688 87.46875 83.855469 86.898438 C 83.28125 86.324219 82.65625 85.8125 81.984375 85.359375 C 81.308594 84.910156 80.597656 84.527344 79.847656 84.21875 C 79.097656 83.90625 78.324219 83.671875 77.53125 83.515625 C 76.734375 83.355469 75.929688 83.277344 75.121094 83.277344 C 74.308594 83.277344 73.503906 83.355469 72.707031 83.515625 C 71.914062 83.671875 71.140625 83.90625 70.390625 84.21875 C 69.640625 84.527344 68.929688 84.910156 68.253906 85.359375 C 67.582031 85.8125 66.957031 86.324219 66.382812 86.898438 C 65.808594 87.46875 65.296875 88.09375 64.847656 88.769531 C 64.394531 89.445312 64.015625 90.15625 63.703125 90.90625 C 63.394531 91.65625 63.160156 92.425781 63 93.222656 C 62.84375 94.019531 62.765625 94.820312 62.765625 95.632812 L 62.765625 101.421875 C 62.757812 103.0625 63.070312 104.640625 63.699219 106.152344 C 64.324219 107.667969 65.21875 109.003906 66.382812 110.160156 L 67.707031 111.484375 L 67.707031 112.929688 L 40.523438 112.929688 C 40.039062 112.929688 39.554688 112.976562 39.078125 113.074219 C 38.601562 113.167969 38.136719 113.308594 37.6875 113.496094 C 37.238281 113.679688 36.8125 113.910156 36.40625 114.179688 C 36 114.449219 35.628906 114.757812 35.28125 115.101562 C 34.9375 115.445312 34.632812 115.820312 34.359375 116.226562 C 34.089844 116.628906 33.863281 117.058594 33.675781 117.507812 C 33.488281 117.957031 33.347656 118.417969 33.253906 118.898438 C 33.160156 119.375 33.113281 119.855469 33.113281 120.34375 C 33.113281 120.828125 33.160156 121.3125 33.253906 121.789062 C 33.347656 122.265625 33.488281 122.730469 33.675781 123.179688 C 33.863281 123.628906 34.089844 124.058594 34.359375 124.460938 C 34.632812 124.867188 34.9375 125.242188 35.28125 125.585938 C 35.628906 125.929688 36 126.238281 36.40625 126.507812 C 36.8125 126.777344 37.238281 127.003906 37.6875 127.191406 C 38.136719 127.378906 38.601562 127.519531 39.078125 127.613281 C 39.554688 127.707031 40.039062 127.757812 40.523438 127.757812 L 57.820312 127.757812 L 57.820312 149.996094 L 62.765625 149.996094 L 62.765625 125.285156 C 62.765625 124.957031 62.703125 124.640625 62.574219 124.339844 C 62.449219 124.035156 62.273438 123.769531 62.039062 123.539062 C 61.808594 123.304688 61.542969 123.128906 61.238281 123.003906 C 60.9375 122.878906 60.621094 122.8125 60.292969 122.8125 L 40.523438 122.8125 C 40.195312 122.8125 39.882812 122.75 39.578125 122.625 C 39.277344 122.5 39.007812 122.324219 38.777344 122.089844 C 38.546875 121.859375 38.367188 121.589844 38.242188 121.289062 C 38.117188 120.984375 38.054688 120.671875 38.054688 120.34375 C 38.054688 120.015625 38.117188 119.699219 38.242188 119.398438 C 38.367188 119.09375 38.546875 118.828125 38.777344 118.597656 C 39.007812 118.363281 39.277344 118.1875 39.578125 118.058594 C 39.882812 117.933594 40.195312 117.871094 40.523438 117.871094 L 70.175781 117.871094 C 70.503906 117.871094 70.820312 117.808594 71.121094 117.683594 C 71.425781 117.558594 71.691406 117.378906 71.925781 117.148438 C 72.15625 116.917969 72.335938 116.648438 72.460938 116.347656 C 72.585938 116.042969 72.648438 115.730469 72.648438 115.402344 L 72.648438 110.460938 C 72.648438 109.777344 72.40625 109.195312 71.925781 108.710938 L 69.878906 106.664062 C 69.179688 105.972656 68.644531 105.171875 68.265625 104.261719 C 67.890625 103.351562 67.703125 102.40625 67.707031 101.421875 L 67.707031 95.632812 C 67.707031 95.144531 67.753906 94.664062 67.847656 94.1875 C 67.945312 93.710938 68.085938 93.246094 68.269531 92.796875 C 68.457031 92.347656 68.683594 91.917969 68.957031 91.515625 C 69.226562 91.109375 69.53125 90.734375 69.878906 90.390625 C 70.222656 90.046875 70.597656 89.738281 71 89.46875 C 71.40625 89.199219 71.832031 88.96875 72.28125 88.785156 C 72.730469 88.597656 73.195312 88.457031 73.671875 88.363281 C 74.148438 88.265625 74.632812 88.21875 75.121094 88.21875 C 75.605469 88.21875 76.089844 88.265625 76.566406 88.363281 C 77.042969 88.457031 77.507812 88.597656 77.957031 88.785156 C 78.40625 88.96875 78.832031 89.199219 79.238281 89.46875 C 79.640625 89.738281 80.015625 90.046875 80.359375 90.390625 C 80.707031 90.734375 81.011719 91.109375 81.28125 91.515625 C 81.554688 91.917969 81.78125 92.347656 81.96875 92.796875 C 82.152344 93.246094 82.292969 93.710938 82.390625 94.1875 C 82.484375 94.664062 82.53125 95.144531 82.53125 95.632812 L 82.53125 101.421875 C 82.535156 102.40625 82.347656 103.351562 81.972656 104.261719 C 81.59375 105.171875 81.058594 105.972656 80.359375 106.664062 L 78.3125 108.710938 C 77.832031 109.195312 77.589844 109.777344 77.589844 110.460938 L 77.589844 115.402344 C 77.589844 115.730469 77.652344 116.042969 77.777344 116.347656 C 77.902344 116.648438 78.082031 116.917969 78.3125 117.148438 C 78.546875 117.378906 78.8125 117.558594 79.117188 117.683594 C 79.417969 117.808594 79.734375 117.871094 80.0625 117.871094 L 109.714844 117.871094 C 110.042969 117.871094 110.355469 117.933594 110.660156 118.058594 C 110.960938 118.1875 111.230469 118.363281 111.460938 118.597656 C 111.691406 118.828125 111.871094 119.09375 111.996094 119.398438 C 112.121094 119.699219 112.183594 120.015625 112.183594 120.34375 C 112.183594 120.671875 112.121094 120.984375 111.996094 121.289062 C 111.871094 121.589844 111.691406 121.859375 111.460938 122.089844 C 111.230469 122.324219 110.960938 122.5 110.660156 122.625 C 110.355469 122.75 110.042969 122.8125 109.714844 122.8125 L 89.945312 122.8125 C 89.617188 122.8125 89.300781 122.878906 89 123.003906 C 88.695312 123.128906 88.429688 123.304688 88.199219 123.539062 C 87.964844 123.769531 87.789062 124.035156 87.664062 124.339844 C 87.535156 124.640625 87.472656 124.957031 87.472656 125.285156 L 87.472656 149.996094 L 92.417969 149.996094 L 92.417969 127.757812 L 109.714844 127.757812 C 110.199219 127.753906 110.683594 127.707031 111.160156 127.613281 C 111.636719 127.515625 112.101562 127.375 112.550781 127.191406 C 113 127.003906 113.425781 126.773438 113.828125 126.503906 C 114.234375 126.234375 114.609375 125.925781 114.953125 125.582031 C 115.296875 125.238281 115.605469 124.863281 115.875 124.460938 C 116.144531 124.054688 116.375 123.628906 116.558594 123.179688 C 116.746094 122.730469 116.886719 122.265625 116.984375 121.789062 C 117.078125 121.3125 117.125 120.828125 117.125 120.34375 Z M 117.125 120.34375 " fill-opacity="1" fill-rule="nonzero"/><g clip-path="url(#50a4553ba1)"><path fill="#000000" d="M 141.835938 61.039062 L 131.953125 61.039062 C 131.464844 61.039062 130.984375 61.085938 130.507812 61.183594 C 130.03125 61.277344 129.566406 61.417969 129.117188 61.605469 C 128.667969 61.792969 128.242188 62.019531 127.835938 62.289062 C 127.433594 62.5625 127.058594 62.867188 126.714844 63.210938 C 126.371094 63.554688 126.0625 63.929688 125.792969 64.335938 C 125.519531 64.738281 125.292969 65.167969 125.105469 65.617188 C 124.917969 66.066406 124.777344 66.527344 124.683594 67.007812 C 124.589844 67.484375 124.539062 67.964844 124.539062 68.453125 L 124.539062 73.394531 L 104.773438 73.394531 L 104.773438 68.453125 C 104.769531 67.964844 104.722656 67.484375 104.628906 67.007812 C 104.53125 66.527344 104.390625 66.066406 104.203125 65.617188 C 104.019531 65.167969 103.789062 64.738281 103.519531 64.335938 C 103.25 63.929688 102.941406 63.554688 102.597656 63.210938 C 102.253906 62.867188 101.878906 62.5625 101.476562 62.289062 C 101.070312 62.019531 100.644531 61.792969 100.195312 61.605469 C 99.746094 61.417969 99.28125 61.277344 98.804688 61.183594 C 98.328125 61.085938 97.84375 61.039062 97.359375 61.039062 L 87.472656 61.039062 C 86.988281 61.039062 86.503906 61.085938 86.027344 61.183594 C 85.550781 61.277344 85.089844 61.417969 84.640625 61.605469 C 84.1875 61.792969 83.761719 62.019531 83.359375 62.289062 C 82.953125 62.5625 82.578125 62.867188 82.234375 63.210938 C 81.890625 63.554688 81.582031 63.929688 81.3125 64.335938 C 81.042969 64.738281 80.8125 65.167969 80.628906 65.617188 C 80.441406 66.066406 80.300781 66.527344 80.203125 67.007812 C 80.109375 67.484375 80.0625 67.964844 80.0625 68.453125 L 80.0625 78.335938 L 85.003906 78.335938 L 85.003906 68.453125 C 85.003906 68.125 85.066406 67.808594 85.191406 67.507812 C 85.316406 67.203125 85.496094 66.9375 85.726562 66.707031 C 85.960938 66.472656 86.226562 66.296875 86.527344 66.167969 C 86.832031 66.042969 87.148438 65.980469 87.472656 65.980469 L 97.359375 65.980469 C 97.6875 65.980469 98 66.042969 98.304688 66.167969 C 98.605469 66.296875 98.875 66.472656 99.105469 66.707031 C 99.335938 66.9375 99.515625 67.203125 99.640625 67.507812 C 99.765625 67.808594 99.828125 68.125 99.828125 68.453125 L 99.828125 98.105469 C 99.828125 98.433594 99.765625 98.746094 99.640625 99.050781 C 99.515625 99.351562 99.335938 99.617188 99.105469 99.851562 C 98.875 100.082031 98.605469 100.261719 98.304688 100.386719 C 98 100.511719 97.6875 100.574219 97.359375 100.574219 L 92.417969 100.574219 L 92.417969 105.515625 L 97.359375 105.515625 C 97.84375 105.515625 98.328125 105.46875 98.804688 105.375 C 99.28125 105.277344 99.746094 105.136719 100.195312 104.949219 C 100.644531 104.765625 101.070312 104.535156 101.476562 104.265625 C 101.878906 103.996094 102.253906 103.6875 102.597656 103.34375 C 102.941406 103 103.25 102.625 103.519531 102.21875 C 103.789062 101.816406 104.019531 101.390625 104.203125 100.941406 C 104.390625 100.488281 104.53125 100.027344 104.628906 99.550781 C 104.722656 99.074219 104.769531 98.589844 104.773438 98.105469 L 104.773438 93.160156 L 124.539062 93.160156 L 124.539062 98.105469 C 124.539062 98.589844 124.589844 99.074219 124.683594 99.550781 C 124.777344 100.027344 124.917969 100.488281 125.105469 100.941406 C 125.292969 101.390625 125.519531 101.816406 125.792969 102.21875 C 126.0625 102.625 126.371094 103 126.714844 103.34375 C 127.058594 103.6875 127.433594 103.996094 127.835938 104.265625 C 128.242188 104.535156 128.667969 104.765625 129.117188 104.949219 C 129.566406 105.136719 130.03125 105.277344 130.507812 105.375 C 130.984375 105.46875 131.464844 105.515625 131.953125 105.515625 L 141.835938 105.515625 C 142.324219 105.515625 142.804688 105.46875 143.28125 105.375 C 143.757812 105.277344 144.222656 105.136719 144.671875 104.949219 C 145.121094 104.765625 145.550781 104.535156 145.953125 104.265625 C 146.359375 103.996094 146.730469 103.6875 147.078125 103.34375 C 147.421875 103 147.726562 102.625 148 102.21875 C 148.269531 101.816406 148.496094 101.390625 148.683594 100.941406 C 148.871094 100.488281 149.011719 100.027344 149.105469 99.550781 C 149.203125 99.074219 149.25 98.589844 149.25 98.105469 L 149.25 68.453125 C 149.25 67.964844 149.203125 67.484375 149.105469 67.007812 C 149.011719 66.527344 148.871094 66.066406 148.683594 65.617188 C 148.496094 65.167969 148.269531 64.738281 148 64.335938 C 147.726562 63.929688 147.421875 63.554688 147.078125 63.210938 C 146.730469 62.867188 146.359375 62.5625 145.953125 62.289062 C 145.550781 62.019531 145.121094 61.792969 144.671875 61.605469 C 144.222656 61.417969 143.757812 61.277344 143.28125 61.183594 C 142.804688 61.085938 142.324219 61.039062 141.835938 61.039062 Z M 104.773438 88.21875 L 104.773438 78.335938 L 124.539062 78.335938 L 124.539062 88.21875 Z M 144.308594 98.105469 C 144.308594 98.433594 144.246094 98.746094 144.117188 99.050781 C 143.992188 99.351562 143.816406 99.617188 143.582031 99.851562 C 143.351562 100.082031 143.085938 100.261719 142.78125 100.386719 C 142.480469 100.511719 142.164062 100.574219 141.835938 100.574219 L 131.953125 100.574219 C 131.625 100.574219 131.308594 100.511719 131.007812 100.386719 C 130.703125 100.261719 130.4375 100.082031 130.207031 99.851562 C 129.976562 99.617188 129.796875 99.351562 129.671875 99.050781 C 129.546875 98.746094 129.480469 98.433594 129.480469 98.105469 L 129.480469 68.453125 C 129.480469 68.125 129.546875 67.808594 129.671875 67.507812 C 129.796875 67.203125 129.976562 66.9375 130.207031 66.707031 C 130.4375 66.472656 130.703125 66.296875 131.007812 66.167969 C 131.308594 66.042969 131.625 65.980469 131.953125 65.980469 L 141.835938 65.980469 C 142.164062 65.980469 142.480469 66.042969 142.78125 66.167969 C 143.085938 66.296875 143.351562 66.472656 143.582031 66.707031 C 143.816406 66.9375 143.992188 67.203125 144.117188 67.507812 C 144.246094 67.808594 144.308594 68.125 144.308594 68.453125 Z M 144.308594 98.105469 " fill-opacity="1" fill-rule="nonzero"/></g><path fill="#000000" d="M 73.371094 58.742188 C 73.605469 58.976562 73.871094 59.152344 74.171875 59.277344 C 74.476562 59.40625 74.792969 59.46875 75.121094 59.46875 C 75.445312 59.46875 75.761719 59.40625 76.066406 59.277344 C 76.367188 59.152344 76.636719 58.976562 76.867188 58.742188 L 95.910156 39.699219 L 109.714844 39.699219 L 109.714844 34.757812 L 100.851562 34.757812 L 102.8125 32.796875 C 103.234375 32.375 103.632812 31.933594 104.011719 31.472656 C 104.390625 31.011719 104.742188 30.535156 105.074219 30.039062 C 105.40625 29.542969 105.710938 29.035156 105.992188 28.507812 C 106.273438 27.984375 106.527344 27.445312 106.753906 26.894531 C 106.980469 26.34375 107.183594 25.785156 107.355469 25.214844 C 107.527344 24.644531 107.671875 24.066406 107.789062 23.480469 C 107.90625 22.898438 107.992188 22.308594 108.050781 21.714844 C 108.109375 21.121094 108.136719 20.527344 108.136719 19.933594 C 108.136719 19.335938 108.109375 18.742188 108.050781 18.148438 C 107.992188 17.554688 107.902344 16.96875 107.789062 16.382812 C 107.671875 15.796875 107.527344 15.222656 107.351562 14.652344 C 107.179688 14.082031 106.980469 13.519531 106.75 12.96875 C 106.523438 12.417969 106.269531 11.882812 105.988281 11.355469 C 105.707031 10.832031 105.402344 10.320312 105.070312 9.824219 C 104.738281 9.328125 104.386719 8.851562 104.007812 8.390625 C 103.628906 7.929688 103.230469 7.488281 102.808594 7.066406 C 102.386719 6.648438 101.945312 6.246094 101.484375 5.867188 C 101.023438 5.492188 100.546875 5.136719 100.050781 4.804688 C 99.554688 4.472656 99.046875 4.167969 98.519531 3.886719 C 97.996094 3.605469 97.457031 3.351562 96.90625 3.125 C 96.355469 2.894531 95.796875 2.695312 95.226562 2.523438 C 94.65625 2.347656 94.078125 2.203125 93.492188 2.089844 C 92.910156 1.972656 92.320312 1.886719 91.726562 1.828125 C 91.132812 1.769531 90.539062 1.738281 89.945312 1.738281 C 89.347656 1.738281 88.753906 1.765625 88.160156 1.824219 C 87.566406 1.882812 86.980469 1.972656 86.394531 2.085938 C 85.808594 2.203125 85.234375 2.347656 84.664062 2.519531 C 84.09375 2.695312 83.53125 2.894531 82.980469 3.121094 C 82.429688 3.351562 81.894531 3.605469 81.367188 3.882812 C 80.84375 4.164062 80.332031 4.472656 79.835938 4.800781 C 79.339844 5.132812 78.863281 5.488281 78.402344 5.863281 C 77.941406 6.242188 77.5 6.640625 77.078125 7.0625 L 75.121094 9.023438 L 73.160156 7.0625 C 72.738281 6.640625 72.296875 6.242188 71.835938 5.863281 C 71.375 5.484375 70.898438 5.128906 70.402344 4.800781 C 69.90625 4.46875 69.398438 4.160156 68.871094 3.878906 C 68.34375 3.597656 67.808594 3.34375 67.257812 3.117188 C 66.707031 2.886719 66.144531 2.6875 65.574219 2.515625 C 65.003906 2.339844 64.425781 2.195312 63.84375 2.078125 C 63.257812 1.964844 62.667969 1.875 62.074219 1.816406 C 61.484375 1.757812 60.886719 1.730469 60.292969 1.730469 C 59.695312 1.730469 59.101562 1.757812 58.507812 1.816406 C 57.914062 1.875 57.324219 1.960938 56.742188 2.078125 C 56.15625 2.195312 55.578125 2.339844 55.007812 2.511719 C 54.4375 2.683594 53.878906 2.886719 53.328125 3.113281 C 52.777344 3.34375 52.238281 3.597656 51.710938 3.878906 C 51.1875 4.160156 50.675781 4.464844 50.179688 4.796875 C 49.683594 5.125 49.207031 5.480469 48.746094 5.859375 C 48.285156 6.238281 47.84375 6.636719 47.421875 7.058594 C 47 7.480469 46.601562 7.921875 46.222656 8.382812 C 45.84375 8.84375 45.488281 9.320312 45.160156 9.816406 C 44.828125 10.3125 44.519531 10.824219 44.238281 11.347656 C 43.960938 11.875 43.703125 12.414062 43.476562 12.964844 C 43.25 13.515625 43.046875 14.074219 42.875 14.644531 C 42.703125 15.214844 42.558594 15.792969 42.441406 16.378906 C 42.324219 16.964844 42.238281 17.550781 42.179688 18.144531 C 42.121094 18.738281 42.09375 19.332031 42.09375 19.929688 C 42.09375 20.523438 42.121094 21.121094 42.179688 21.714844 C 42.238281 22.304688 42.324219 22.894531 42.441406 23.480469 C 42.558594 24.066406 42.703125 24.640625 42.875 25.210938 C 43.050781 25.78125 43.25 26.34375 43.480469 26.894531 C 43.707031 27.445312 43.960938 27.984375 44.242188 28.507812 C 44.523438 29.035156 44.832031 29.542969 45.160156 30.039062 C 45.492188 30.535156 45.847656 31.015625 46.226562 31.472656 C 46.605469 31.933594 47.003906 32.375 47.425781 32.796875 L 49.386719 34.757812 L 38.054688 34.757812 L 38.054688 39.699219 L 54.328125 39.699219 Z M 75.121094 53.5 L 61.15625 39.539062 C 61.761719 39.3125 62.210938 38.910156 62.503906 38.332031 L 67.707031 27.925781 L 72.910156 38.332031 C 73.117188 38.75 73.421875 39.082031 73.820312 39.328125 C 74.21875 39.574219 74.652344 39.699219 75.121094 39.699219 L 88.921875 39.699219 Z M 50.921875 29.304688 C 50.304688 28.6875 49.757812 28.019531 49.273438 27.292969 C 48.789062 26.570312 48.382812 25.808594 48.050781 25.003906 C 47.714844 24.199219 47.464844 23.371094 47.296875 22.515625 C 47.125 21.664062 47.042969 20.800781 47.042969 19.929688 C 47.042969 19.0625 47.128906 18.199219 47.296875 17.347656 C 47.464844 16.492188 47.71875 15.664062 48.050781 14.859375 C 48.382812 14.058594 48.792969 13.292969 49.277344 12.570312 C 49.757812 11.847656 50.308594 11.175781 50.925781 10.5625 C 51.539062 9.945312 52.207031 9.398438 52.933594 8.914062 C 53.65625 8.429688 54.417969 8.023438 55.222656 7.6875 C 56.027344 7.355469 56.855469 7.105469 57.707031 6.933594 C 58.5625 6.765625 59.421875 6.679688 60.292969 6.679688 C 61.164062 6.679688 62.027344 6.765625 62.878906 6.933594 C 63.734375 7.101562 64.5625 7.355469 65.367188 7.6875 C 66.167969 8.019531 66.933594 8.425781 67.65625 8.910156 C 68.378906 9.394531 69.050781 9.941406 69.664062 10.558594 L 73.371094 14.265625 C 73.605469 14.496094 73.871094 14.675781 74.171875 14.800781 C 74.476562 14.925781 74.792969 14.988281 75.121094 14.988281 C 75.445312 14.988281 75.761719 14.925781 76.066406 14.800781 C 76.367188 14.675781 76.636719 14.496094 76.867188 14.265625 L 80.574219 10.558594 C 81.1875 9.941406 81.859375 9.394531 82.582031 8.910156 C 83.304688 8.425781 84.070312 8.019531 84.875 7.683594 C 85.675781 7.351562 86.507812 7.101562 87.359375 6.929688 C 88.214844 6.761719 89.074219 6.675781 89.945312 6.675781 C 90.816406 6.675781 91.675781 6.761719 92.53125 6.929688 C 93.386719 7.101562 94.214844 7.351562 95.019531 7.683594 C 95.820312 8.019531 96.585938 8.425781 97.308594 8.910156 C 98.03125 9.394531 98.703125 9.941406 99.316406 10.558594 C 99.933594 11.171875 100.484375 11.84375 100.964844 12.566406 C 101.449219 13.289062 101.859375 14.054688 102.191406 14.859375 C 102.523438 15.664062 102.773438 16.492188 102.945312 17.34375 C 103.113281 18.199219 103.199219 19.058594 103.199219 19.929688 C 103.199219 20.800781 103.113281 21.664062 102.945312 22.515625 C 102.773438 23.371094 102.523438 24.199219 102.191406 25.003906 C 101.859375 25.808594 101.449219 26.570312 100.964844 27.292969 C 100.484375 28.019531 99.933594 28.6875 99.316406 29.304688 L 93.863281 34.757812 L 76.644531 34.757812 L 69.917969 21.296875 C 69.707031 20.878906 69.402344 20.546875 69.003906 20.300781 C 68.605469 20.054688 68.175781 19.929688 67.707031 19.929688 C 67.238281 19.929688 66.804688 20.054688 66.40625 20.300781 C 66.007812 20.546875 65.707031 20.878906 65.496094 21.296875 L 58.765625 34.757812 L 56.375 34.757812 Z M 50.921875 29.304688 " fill-opacity="1" fill-rule="nonzero"/><path fill="#000000" d="M 11.574219 86.917969 C 12.789062 88.140625 14.191406 89.078125 15.78125 89.738281 C 17.375 90.398438 19.03125 90.726562 20.753906 90.71875 L 22.832031 90.71875 L 31.25 99.136719 L 31.25 100.992188 C 31.25 101.722656 31.355469 102.441406 31.570312 103.144531 C 31.78125 103.84375 32.09375 104.5 32.5 105.109375 C 32.90625 105.71875 33.394531 106.257812 33.960938 106.722656 C 34.527344 107.1875 35.152344 107.5625 35.828125 107.84375 C 36.503906 108.125 37.210938 108.300781 37.9375 108.371094 C 38.667969 108.445312 39.394531 108.410156 40.113281 108.265625 C 40.832031 108.125 41.515625 107.878906 42.164062 107.535156 C 42.808594 107.191406 43.394531 106.757812 43.914062 106.242188 L 49.289062 100.867188 C 49.804688 100.347656 50.238281 99.765625 50.582031 99.117188 C 50.929688 98.472656 51.171875 97.789062 51.316406 97.070312 C 51.460938 96.351562 51.496094 95.628906 51.421875 94.898438 C 51.351562 94.167969 51.175781 93.464844 50.894531 92.789062 C 50.613281 92.109375 50.242188 91.488281 49.777344 90.921875 C 49.3125 90.355469 48.773438 89.867188 48.164062 89.460938 C 47.554688 89.054688 46.898438 88.742188 46.195312 88.53125 C 45.496094 88.316406 44.777344 88.210938 44.046875 88.210938 L 42.175781 88.210938 L 34.753906 80.792969 C 35.6875 81.085938 36.636719 81.277344 37.613281 81.355469 C 38.585938 81.4375 39.554688 81.40625 40.523438 81.269531 C 41.488281 81.128906 42.429688 80.886719 43.339844 80.535156 C 44.25 80.183594 45.113281 79.734375 45.921875 79.191406 L 54.230469 87.496094 L 57.722656 84 L 49.417969 75.695312 C 49.835938 75.078125 50.195312 74.425781 50.5 73.746094 C 50.804688 73.066406 51.046875 72.363281 51.230469 71.640625 C 51.414062 70.917969 51.53125 70.183594 51.589844 69.441406 C 51.648438 68.695312 51.640625 67.953125 51.566406 67.210938 C 51.496094 66.46875 51.363281 65.738281 51.164062 65.019531 C 50.96875 64.300781 50.710938 63.601562 50.390625 62.925781 C 50.074219 62.253906 49.699219 61.609375 49.273438 61 C 48.84375 60.390625 48.367188 59.820312 47.839844 59.292969 L 35.484375 46.9375 C 35.007812 46.457031 34.492188 46.019531 33.945312 45.621094 C 33.398438 45.222656 32.824219 44.867188 32.21875 44.558594 C 31.617188 44.25 30.996094 43.992188 30.351562 43.78125 C 29.707031 43.570312 29.050781 43.414062 28.382812 43.304688 C 27.714844 43.195312 27.042969 43.140625 26.363281 43.140625 C 25.6875 43.136719 25.015625 43.1875 24.347656 43.292969 C 23.675781 43.394531 23.019531 43.550781 22.375 43.757812 C 21.730469 43.964844 21.105469 44.21875 20.5 44.523438 C 19.894531 44.828125 19.320312 45.175781 18.769531 45.574219 C 18.21875 45.96875 17.703125 46.402344 17.222656 46.878906 C 16.738281 47.355469 16.296875 47.867188 15.898438 48.410156 C 15.496094 48.957031 15.140625 49.527344 14.828125 50.128906 C 14.515625 50.730469 14.253906 51.351562 14.039062 51.996094 C 13.824219 52.636719 13.660156 53.292969 13.550781 53.960938 C 13.4375 54.628906 13.378906 55.300781 13.375 55.976562 C 13.367188 56.65625 13.414062 57.328125 13.515625 57.996094 C 12.25 58.039062 11.019531 58.261719 9.820312 58.664062 C 8.625 59.066406 7.507812 59.632812 6.472656 60.359375 C 5.441406 61.089844 4.535156 61.949219 3.753906 62.945312 C 2.972656 63.941406 2.347656 65.023438 1.886719 66.203125 C 1.421875 67.378906 1.136719 68.59375 1.027344 69.855469 C 0.921875 71.117188 0.996094 72.363281 1.253906 73.601562 C 1.511719 74.839844 1.941406 76.015625 2.542969 77.125 C 3.148438 78.238281 3.894531 79.242188 4.789062 80.132812 Z M 41.152344 93.152344 L 44.046875 93.152344 C 44.546875 93.152344 45.003906 93.292969 45.417969 93.570312 C 45.832031 93.847656 46.136719 94.21875 46.328125 94.679688 C 46.519531 95.140625 46.566406 95.617188 46.46875 96.105469 C 46.371094 96.597656 46.144531 97.019531 45.792969 97.371094 L 40.417969 102.746094 C 40.0625 103.097656 39.640625 103.324219 39.148438 103.421875 C 38.65625 103.515625 38.179688 103.46875 37.71875 103.277344 C 37.257812 103.085938 36.886719 102.78125 36.609375 102.363281 C 36.332031 101.949219 36.191406 101.492188 36.191406 100.992188 L 36.191406 98.113281 C 36.191406 97.429688 35.949219 96.847656 35.46875 96.367188 L 27.34375 88.242188 L 31.269531 84.296875 L 39.402344 92.429688 C 39.886719 92.910156 40.46875 93.152344 41.152344 93.152344 Z M 35.183594 68.453125 L 27.347656 68.453125 L 22.40625 63.507812 L 30.242188 63.507812 Z M 33.015625 74.117188 L 32.289062 73.394531 L 40.125 73.394531 L 42.320312 75.589844 C 41.566406 75.972656 40.773438 76.230469 39.9375 76.363281 C 39.101562 76.496094 38.265625 76.496094 37.429688 76.363281 C 36.59375 76.230469 35.796875 75.972656 35.042969 75.589844 C 34.289062 75.207031 33.613281 74.714844 33.015625 74.117188 Z M 45.816406 72.09375 L 38.054688 64.332031 L 38.054688 56.496094 L 44.34375 62.785156 C 44.941406 63.386719 45.433594 64.0625 45.816406 64.816406 C 46.199219 65.570312 46.457031 66.367188 46.589844 67.199219 C 46.722656 68.035156 46.722656 68.871094 46.589844 69.707031 C 46.457031 70.542969 46.199219 71.339844 45.816406 72.09375 Z M 20.660156 50.429688 C 21.03125 50.058594 21.4375 49.726562 21.875 49.4375 C 22.3125 49.144531 22.773438 48.898438 23.257812 48.695312 C 23.746094 48.496094 24.246094 48.34375 24.761719 48.242188 C 25.277344 48.140625 25.796875 48.085938 26.324219 48.085938 C 26.851562 48.085938 27.371094 48.140625 27.886719 48.242188 C 28.402344 48.34375 28.902344 48.496094 29.390625 48.695312 C 29.875 48.898438 30.335938 49.144531 30.773438 49.4375 C 31.210938 49.726562 31.617188 50.058594 31.988281 50.429688 L 33.113281 51.550781 L 33.113281 59.390625 L 25.601562 51.878906 L 22.105469 55.371094 L 25.300781 58.566406 L 18.707031 58.566406 C 18.476562 57.867188 18.351562 57.144531 18.320312 56.40625 C 18.292969 55.671875 18.363281 54.941406 18.535156 54.222656 C 18.707031 53.507812 18.976562 52.824219 19.335938 52.179688 C 19.695312 51.535156 20.136719 50.953125 20.660156 50.429688 Z M 8.285156 65.273438 C 9.21875 64.34375 10.3125 63.6875 11.566406 63.292969 C 12.824219 62.898438 14.097656 62.816406 15.394531 63.046875 C 15.902344 63.847656 16.492188 64.585938 17.164062 65.257812 L 28.738281 76.828125 C 28.773438 77.132812 28.792969 77.4375 28.796875 77.746094 L 28.796875 79.777344 L 22.824219 85.777344 L 20.753906 85.777344 C 19.6875 85.78125 18.660156 85.578125 17.675781 85.171875 C 16.691406 84.761719 15.820312 84.179688 15.070312 83.425781 L 8.285156 76.640625 C 7.914062 76.265625 7.578125 75.859375 7.285156 75.421875 C 6.996094 74.980469 6.746094 74.519531 6.546875 74.03125 C 6.34375 73.542969 6.191406 73.042969 6.089844 72.523438 C 5.984375 72.007812 5.933594 71.484375 5.933594 70.957031 C 5.933594 70.429688 5.984375 69.90625 6.089844 69.390625 C 6.191406 68.871094 6.34375 68.367188 6.542969 67.882812 C 6.746094 67.394531 6.992188 66.929688 7.285156 66.492188 C 7.578125 66.050781 7.910156 65.644531 8.285156 65.273438 Z M 8.285156 65.273438 " fill-opacity="1" fill-rule="nonzero"/></svg>