<svg xmlns="http://www.w3.org/2000/svg" xmlns:xlink="http://www.w3.org/1999/xlink" width="200" zoomAndPan="magnify" viewBox="0 0 150 149.999998" height="200" preserveAspectRatio="xMidYMid meet" version="1.0"><defs><clipPath id="ee7fb845d0"><path d="M 93 109.601562 L 106.632812 109.601562 L 106.632812 122.992188 L 93 122.992188 Z M 93 109.601562 " clip-rule="nonzero"/></clipPath><clipPath id="01e7e46730"><path d="M 121.277344 109.601562 L 135 109.601562 L 135 122.992188 L 121.277344 122.992188 Z M 121.277344 109.601562 " clip-rule="nonzero"/></clipPath><clipPath id="35086965ce"><path d="M 4.921875 119.773438 L 150 119.773438 L 150 122.992188 L 4.921875 122.992188 Z M 4.921875 119.773438 " clip-rule="nonzero"/></clipPath><clipPath id="08a1a78473"><path d="M 39.503906 89 L 74.085938 89 L 74.085938 122.992188 L 39.503906 122.992188 Z M 39.503906 89 " clip-rule="nonzero"/></clipPath><clipPath id="a29cc67f1c"><path d="M 4.921875 110.820312 L 35.027344 110.820312 L 35.027344 122.992188 L 4.921875 122.992188 Z M 4.921875 110.820312 " clip-rule="nonzero"/></clipPath></defs><path fill="#100f0d" d="M 89.519531 83.148438 C 88.144531 83.148438 87.027344 84.265625 87.027344 85.636719 L 87.027344 107.503906 C 87.027344 108.878906 88.144531 109.996094 89.519531 109.996094 L 98.257812 109.996094 L 98.257812 85.636719 C 98.257812 84.265625 97.140625 83.148438 95.769531 83.148438 Z M 99.820312 113.117188 L 89.519531 113.117188 C 86.421875 113.117188 83.90625 110.597656 83.90625 107.503906 L 83.90625 85.636719 C 83.90625 82.542969 86.421875 80.023438 89.519531 80.023438 L 95.769531 80.023438 C 98.863281 80.023438 101.382812 82.539062 101.382812 85.636719 L 101.382812 111.554688 C 101.382812 112.421875 100.683594 113.117188 99.820312 113.117188 " fill-opacity="1" fill-rule="evenodd"/><path fill="#100f0d" d="M 129.664062 109.996094 L 138.402344 109.996094 C 139.777344 109.996094 140.894531 108.878906 140.894531 107.503906 L 140.894531 85.636719 C 140.894531 84.265625 139.777344 83.148438 138.402344 83.148438 L 132.15625 83.148438 C 130.78125 83.148438 129.664062 84.265625 129.664062 85.636719 Z M 138.402344 113.117188 L 128.101562 113.117188 C 127.238281 113.117188 126.539062 112.417969 126.539062 111.554688 L 126.539062 85.636719 C 126.539062 82.542969 129.058594 80.023438 132.15625 80.023438 L 138.402344 80.023438 C 141.5 80.023438 144.019531 82.539062 144.019531 85.636719 L 144.019531 107.503906 C 144.019531 110.597656 141.5 113.117188 138.402344 113.117188 " fill-opacity="1" fill-rule="evenodd"/><path fill="#100f0d" d="M 137.179688 83.148438 C 136.316406 83.148438 135.617188 82.449219 135.617188 81.585938 L 135.617188 68.433594 C 135.617188 66.65625 133.191406 65.101562 130.425781 65.101562 L 97.5 65.101562 C 94.734375 65.101562 92.304688 66.65625 92.304688 68.433594 L 92.304688 81.585938 C 92.304688 82.449219 91.605469 83.148438 90.742188 83.148438 C 89.878906 83.148438 89.179688 82.449219 89.179688 81.585938 L 89.179688 68.433594 C 89.179688 64.875 92.910156 61.976562 97.5 61.976562 L 130.425781 61.976562 C 135.007812 61.976562 138.742188 64.875 138.742188 68.433594 L 138.742188 81.585938 C 138.742188 82.449219 138.042969 83.148438 137.179688 83.148438 " fill-opacity="1" fill-rule="evenodd"/><path fill="#100f0d" d="M 128.105469 95.207031 C 128.085938 95.207031 128.066406 95.207031 128.050781 95.207031 C 127.1875 95.179688 126.511719 94.453125 126.542969 93.589844 C 126.574219 92.664062 126.222656 91.769531 125.546875 91.074219 C 124.828125 90.328125 123.828125 89.902344 122.796875 89.902344 L 105.125 89.902344 C 103.0625 89.902344 101.382812 91.582031 101.382812 93.644531 C 101.382812 94.507812 100.683594 95.207031 99.820312 95.207031 C 98.957031 95.207031 98.257812 94.507812 98.257812 93.644531 C 98.257812 89.859375 101.335938 86.777344 105.125 86.777344 L 122.796875 86.777344 C 124.667969 86.777344 126.488281 87.550781 127.792969 88.902344 C 129.0625 90.214844 129.726562 91.917969 129.664062 93.699219 C 129.636719 94.542969 128.941406 95.207031 128.105469 95.207031 Z M 128.101562 113.117188 L 99.820312 113.117188 C 98.957031 113.117188 98.257812 112.417969 98.257812 111.554688 C 98.257812 110.691406 98.957031 109.992188 99.820312 109.992188 L 128.101562 109.992188 C 128.964844 109.992188 129.664062 110.691406 129.664062 111.554688 C 129.664062 112.417969 128.964844 113.117188 128.101562 113.117188 " fill-opacity="1" fill-rule="evenodd"/><path fill="#100f0d" d="M 128.101562 101.507812 L 99.820312 101.507812 C 98.957031 101.507812 98.257812 100.808594 98.257812 99.945312 C 98.257812 99.085938 98.957031 98.382812 99.820312 98.382812 L 128.101562 98.382812 C 128.964844 98.382812 129.664062 99.085938 129.664062 99.945312 C 129.664062 100.808594 128.964844 101.507812 128.101562 101.507812 " fill-opacity="1" fill-rule="evenodd"/><g clip-path="url(#ee7fb845d0)"><path fill="#100f0d" d="M 96.519531 122.992188 C 95.777344 122.992188 95.121094 122.464844 94.984375 121.710938 L 93.15625 111.839844 C 93 110.992188 93.558594 110.175781 94.40625 110.019531 C 95.257812 109.863281 96.070312 110.425781 96.226562 111.273438 L 98.054688 121.144531 C 98.214844 121.992188 97.652344 122.804688 96.804688 122.964844 C 96.707031 122.980469 96.613281 122.992188 96.519531 122.992188 Z M 103.121094 122.992188 C 103.027344 122.992188 102.933594 122.980469 102.835938 122.964844 C 101.988281 122.804688 101.429688 121.992188 101.585938 121.144531 L 103.410156 111.273438 C 103.570312 110.425781 104.382812 109.863281 105.234375 110.019531 C 106.078125 110.179688 106.640625 110.992188 106.484375 111.839844 L 104.65625 121.710938 C 104.519531 122.464844 103.859375 122.992188 103.121094 122.992188 " fill-opacity="1" fill-rule="evenodd"/></g><g clip-path="url(#01e7e46730)"><path fill="#100f0d" d="M 131.40625 122.992188 C 131.3125 122.992188 131.214844 122.980469 131.121094 122.964844 C 130.269531 122.804688 129.710938 121.992188 129.867188 121.144531 L 131.695312 111.273438 C 131.851562 110.425781 132.664062 109.863281 133.515625 110.019531 C 134.363281 110.179688 134.925781 110.992188 134.769531 111.839844 L 132.941406 121.710938 C 132.800781 122.464844 132.144531 122.992188 131.40625 122.992188 Z M 124.800781 122.992188 C 124.0625 122.992188 123.40625 122.464844 123.265625 121.710938 L 121.441406 111.839844 C 121.28125 110.992188 121.84375 110.175781 122.691406 110.019531 C 123.542969 109.863281 124.355469 110.425781 124.511719 111.273438 L 126.339844 121.144531 C 126.496094 121.992188 125.933594 122.804688 125.085938 122.964844 C 124.992188 122.980469 124.894531 122.992188 124.800781 122.992188 " fill-opacity="1" fill-rule="evenodd"/></g><g clip-path="url(#35086965ce)"><path fill="#100f0d" d="M 148.441406 122.992188 L 6.539062 122.992188 C 5.675781 122.992188 4.980469 122.292969 4.980469 121.429688 C 4.980469 120.566406 5.675781 119.867188 6.539062 119.867188 L 148.441406 119.867188 C 149.304688 119.867188 150.003906 120.566406 150.003906 121.429688 C 150.003906 122.292969 149.304688 122.992188 148.441406 122.992188 " fill-opacity="1" fill-rule="evenodd"/></g><g clip-path="url(#08a1a78473)"><path fill="#100f0d" d="M 72.5 122.992188 C 71.640625 122.992188 70.941406 122.292969 70.941406 121.429688 L 70.941406 92.148438 L 42.824219 92.144531 L 42.824219 121.429688 C 42.824219 122.292969 42.125 122.992188 41.261719 122.992188 C 40.398438 122.992188 39.699219 122.292969 39.699219 121.429688 L 39.699219 90.585938 C 39.699219 89.722656 40.398438 89.019531 41.261719 89.019531 L 72.5 89.019531 C 73.363281 89.019531 74.0625 89.722656 74.0625 90.585938 L 74.0625 121.429688 C 74.0625 122.292969 73.363281 122.992188 72.5 122.992188 " fill-opacity="1" fill-rule="evenodd"/></g><path fill="#100f0d" d="M 72.5 107.058594 L 41.261719 107.058594 C 40.398438 107.058594 39.699219 106.359375 39.699219 105.496094 C 39.699219 104.632812 40.398438 103.9375 41.261719 103.9375 L 72.5 103.9375 C 73.363281 103.9375 74.0625 104.632812 74.0625 105.496094 C 74.0625 106.359375 73.363281 107.058594 72.5 107.058594 " fill-opacity="1" fill-rule="evenodd"/><path fill="#100f0d" d="M 3.363281 55.066406 L 36.632812 55.066406 L 33.632812 30.136719 L 6.359375 30.136719 Z M 38.394531 58.1875 L 1.601562 58.1875 C 1.15625 58.1875 0.730469 57.996094 0.433594 57.664062 C 0.136719 57.328125 -0.00390625 56.882812 0.0507812 56.4375 L 3.425781 28.386719 C 3.519531 27.601562 4.183594 27.011719 4.976562 27.011719 L 35.019531 27.011719 C 35.808594 27.011719 36.476562 27.601562 36.570312 28.386719 L 39.945312 56.4375 C 39.996094 56.882812 39.859375 57.328125 39.5625 57.664062 C 39.265625 57.996094 38.839844 58.1875 38.394531 58.1875 " fill-opacity="1" fill-rule="evenodd"/><path fill="#100f0d" d="M 19.996094 114.085938 C 19.136719 114.085938 18.4375 113.386719 18.4375 112.527344 L 18.4375 56.628906 C 18.4375 55.765625 19.136719 55.066406 19.996094 55.066406 C 20.859375 55.066406 21.558594 55.765625 21.558594 56.628906 L 21.558594 112.527344 C 21.558594 113.386719 20.859375 114.085938 19.996094 114.085938 " fill-opacity="1" fill-rule="evenodd"/><g clip-path="url(#a29cc67f1c)"><path fill="#100f0d" d="M 33.457031 122.988281 C 32.59375 122.988281 31.894531 122.289062 31.894531 121.425781 C 31.894531 117.378906 28.601562 114.085938 24.550781 114.085938 L 15.441406 114.085938 C 11.398438 114.085938 8.101562 117.378906 8.101562 121.425781 C 8.101562 122.289062 7.402344 122.988281 6.539062 122.988281 C 5.675781 122.988281 4.980469 122.289062 4.980469 121.425781 C 4.980469 115.65625 9.671875 110.964844 15.441406 110.964844 L 24.550781 110.964844 C 30.324219 110.964844 35.015625 115.65625 35.015625 121.425781 C 35.015625 122.289062 34.316406 122.988281 33.457031 122.988281 " fill-opacity="1" fill-rule="evenodd"/></g><path fill="#100f0d" d="M 61.152344 99.605469 L 52.613281 99.605469 C 51.75 99.605469 51.050781 98.902344 51.050781 98.039062 C 51.050781 97.179688 51.75 96.480469 52.613281 96.480469 L 61.152344 96.480469 C 62.015625 96.480469 62.714844 97.179688 62.714844 98.039062 C 62.714844 98.902344 62.015625 99.605469 61.152344 99.605469 " fill-opacity="1" fill-rule="evenodd"/><path fill="#100f0d" d="M 49.945312 92.148438 C 49.171875 92.148438 48.5 91.574219 48.398438 90.785156 L 46.824219 78.664062 C 46.765625 78.21875 46.902344 77.769531 47.199219 77.433594 C 47.496094 77.097656 47.921875 76.902344 48.371094 76.902344 L 65.554688 76.902344 C 66.003906 76.902344 66.433594 77.097656 66.730469 77.433594 C 67.027344 77.769531 67.160156 78.222656 67.105469 78.664062 L 65.53125 90.785156 C 65.417969 91.640625 64.636719 92.246094 63.777344 92.132812 C 62.921875 92.023438 62.320312 91.238281 62.429688 90.382812 L 63.777344 80.027344 L 50.152344 80.027344 L 51.496094 90.382812 C 51.609375 91.238281 51.003906 92.023438 50.148438 92.132812 C 50.082031 92.140625 50.011719 92.148438 49.945312 92.148438 " fill-opacity="1" fill-rule="evenodd"/><path fill="#100f0d" d="M 56.964844 80.027344 C 56.101562 80.027344 55.402344 79.328125 55.402344 78.464844 L 55.402344 57.925781 C 55.402344 57.0625 56.101562 56.363281 56.964844 56.363281 C 57.828125 56.363281 58.527344 57.0625 58.527344 57.925781 L 58.527344 78.464844 C 58.527344 79.328125 57.828125 80.027344 56.964844 80.027344 " fill-opacity="1" fill-rule="evenodd"/><path fill="#100f0d" d="M 64.152344 61.859375 C 62.691406 61.898438 61.316406 62.472656 60.257812 63.488281 C 59.199219 64.5 58.570312 65.871094 58.46875 67.3125 C 59.929688 67.273438 61.308594 66.699219 62.367188 65.683594 C 63.421875 64.671875 64.050781 63.300781 64.152344 61.859375 Z M 58.3125 70.4375 C 57.765625 70.4375 57.21875 70.386719 56.683594 70.289062 C 56.019531 70.167969 55.511719 69.636719 55.417969 68.96875 C 55.015625 66.117188 56.019531 63.222656 58.09375 61.230469 C 59.777344 59.621094 61.984375 58.734375 64.3125 58.734375 C 64.855469 58.734375 65.40625 58.785156 65.941406 58.882812 C 66.601562 59.003906 67.109375 59.535156 67.203125 60.199219 C 67.605469 63.058594 66.605469 65.949219 64.527344 67.941406 C 62.847656 69.550781 60.640625 70.4375 58.3125 70.4375 " fill-opacity="1" fill-rule="evenodd"/><path fill="#100f0d" d="M 56.964844 46.917969 C 55.828125 48.113281 55.179688 49.714844 55.179688 51.386719 C 55.179688 53.0625 55.828125 54.664062 56.964844 55.859375 C 58.097656 54.664062 58.75 53.0625 58.75 51.386719 C 58.75 49.714844 58.097656 48.113281 56.964844 46.917969 Z M 56.964844 59.488281 C 56.644531 59.488281 56.324219 59.390625 56.050781 59.195312 C 53.546875 57.386719 52.054688 54.46875 52.054688 51.386719 C 52.054688 48.308594 53.546875 45.386719 56.050781 43.585938 C 56.59375 43.191406 57.332031 43.191406 57.878906 43.585938 C 60.382812 45.386719 61.875 48.304688 61.875 51.386719 C 61.875 54.46875 60.382812 57.386719 57.878906 59.195312 C 57.605469 59.390625 57.285156 59.488281 56.964844 59.488281 " fill-opacity="1" fill-rule="evenodd"/><path fill="#100f0d" d="M 49.015625 64.738281 C 49.097656 66.382812 49.800781 67.964844 51.007812 69.121094 C 52.214844 70.28125 53.800781 70.921875 55.472656 70.929688 C 55.394531 69.28125 54.6875 67.699219 53.480469 66.542969 C 52.273438 65.386719 50.6875 64.746094 49.015625 64.738281 Z M 55.5 74.050781 C 53.007812 74.050781 50.644531 73.101562 48.847656 71.378906 C 46.621094 69.246094 45.550781 66.148438 45.976562 63.09375 C 46.070312 62.425781 46.582031 61.894531 47.242188 61.773438 C 47.816406 61.667969 48.40625 61.613281 48.988281 61.613281 C 51.480469 61.613281 53.84375 62.5625 55.640625 64.285156 C 57.867188 66.417969 58.941406 69.515625 58.511719 72.574219 C 58.417969 73.238281 57.90625 73.769531 57.246094 73.890625 C 56.671875 74 56.085938 74.050781 55.5 74.050781 " fill-opacity="1" fill-rule="evenodd"/></svg>