<svg xmlns="http://www.w3.org/2000/svg" xmlns:xlink="http://www.w3.org/1999/xlink" width="200" zoomAndPan="magnify" viewBox="0 0 150 149.999998" height="200" preserveAspectRatio="xMidYMid meet" version="1.0"><defs><clipPath id="b230bc4d38"><path d="M 14 99 L 121 99 L 121 134.8125 L 14 134.8125 Z M 14 99 " clip-rule="nonzero"/></clipPath><clipPath id="034f9dbe85"><path d="M 29 8.8125 L 136 8.8125 L 136 45 L 29 45 Z M 29 8.8125 " clip-rule="nonzero"/></clipPath></defs><path fill="#000000" d="M 17.210938 128.898438 L 2.390625 128.898438 C 1.097656 128.898438 0.046875 127.851562 0.046875 126.558594 L 0.046875 70.332031 C 0.046875 69.042969 1.097656 67.996094 2.390625 67.996094 L 17.210938 67.996094 C 18.503906 67.996094 19.550781 69.042969 19.550781 70.332031 L 19.550781 126.558594 C 19.550781 127.851562 18.503906 128.898438 17.210938 128.898438 Z M 4.734375 124.21875 L 14.867188 124.21875 L 14.867188 72.671875 L 4.734375 72.671875 Z M 4.734375 124.21875 " fill-opacity="1" fill-rule="nonzero"/><g clip-path="url(#b230bc4d38)"><path fill="#000000" d="M 64.171875 134.816406 C 61.039062 134.816406 57.949219 134.386719 54.980469 133.539062 C 51.953125 132.675781 49.09375 131.386719 46.484375 129.707031 C 46.324219 129.605469 46.15625 129.496094 45.992188 129.386719 L 45.863281 129.300781 C 39.144531 124.75 31.347656 122.347656 23.300781 122.347656 L 17.210938 122.347656 C 15.914062 122.347656 14.867188 121.300781 14.867188 120.011719 C 14.867188 118.71875 15.914062 117.671875 17.210938 117.671875 L 23.300781 117.671875 C 32.289062 117.671875 40.992188 120.351562 48.472656 125.417969 L 48.585938 125.492188 C 48.730469 125.585938 48.871094 125.679688 49.011719 125.769531 C 51.242188 127.207031 53.679688 128.304688 56.265625 129.042969 C 58.816406 129.769531 61.476562 130.136719 64.171875 130.136719 C 68.414062 130.136719 72.554688 129.328125 76.484375 127.726562 C 76.496094 127.71875 76.511719 127.714844 76.523438 127.707031 L 112.410156 113.867188 C 113.359375 113.476562 114.164062 112.816406 114.742188 111.953125 C 115.324219 111.078125 115.628906 110.058594 115.628906 109 C 115.628906 107.261719 114.832031 105.695312 113.433594 104.699219 C 112.078125 103.734375 110.414062 103.484375 108.867188 104.019531 L 106.976562 104.671875 C 106.960938 104.675781 106.945312 104.679688 106.933594 104.6875 L 72.933594 115.675781 C 71.703125 116.074219 70.382812 115.398438 69.984375 114.171875 C 69.585938 112.941406 70.261719 111.625 71.492188 111.226562 L 105.464844 100.242188 L 107.335938 99.597656 C 110.296875 98.578125 113.589844 99.066406 116.15625 100.894531 C 118.796875 102.777344 120.316406 105.730469 120.316406 109 C 120.316406 110.984375 119.734375 112.902344 118.640625 114.546875 C 117.535156 116.195312 115.988281 117.460938 114.160156 118.207031 C 114.148438 118.210938 114.132812 118.21875 114.121094 118.222656 L 78.230469 132.066406 C 73.746094 133.890625 69.015625 134.816406 64.171875 134.816406 Z M 64.171875 134.816406 " fill-opacity="1" fill-rule="nonzero"/></g><path fill="#000000" d="M 66.777344 118.085938 C 64.132812 118.085938 61.648438 117.054688 59.765625 115.179688 L 40.226562 98.398438 C 39.246094 97.554688 39.132812 96.078125 39.976562 95.101562 C 40.820312 94.121094 42.300781 94.007812 43.28125 94.851562 L 62.890625 111.691406 C 62.9375 111.734375 62.988281 111.78125 63.03125 111.824219 C 64.035156 112.84375 65.367188 113.40625 66.78125 113.40625 C 68.191406 113.40625 69.523438 112.84375 70.527344 111.824219 C 71.976562 110.351562 72.476562 108.121094 71.796875 106.144531 C 71.484375 105.238281 70.886719 104.402344 70.058594 103.726562 C 70.03125 103.703125 70.003906 103.683594 69.980469 103.660156 L 44.695312 80.953125 C 42.210938 78.691406 39.019531 77.453125 35.703125 77.453125 L 17.210938 77.453125 C 15.914062 77.453125 14.867188 76.40625 14.867188 75.113281 C 14.867188 73.820312 15.914062 72.773438 17.210938 72.773438 L 35.703125 72.773438 C 40.191406 72.773438 44.5 74.445312 47.839844 77.484375 L 73.074219 100.148438 C 74.550781 101.371094 75.640625 102.917969 76.226562 104.625 C 77.476562 108.261719 76.550781 112.375 73.867188 115.105469 C 71.976562 117.027344 69.460938 118.085938 66.777344 118.085938 Z M 66.777344 118.085938 " fill-opacity="1" fill-rule="nonzero"/><path fill="#000000" d="M 147.609375 75.632812 L 132.789062 75.632812 C 131.496094 75.632812 130.449219 74.582031 130.449219 73.292969 L 130.449219 17.066406 C 130.449219 15.773438 131.496094 14.726562 132.789062 14.726562 L 147.609375 14.726562 C 148.902344 14.726562 149.953125 15.773438 149.953125 17.066406 L 149.953125 73.292969 C 149.953125 74.582031 148.902344 75.632812 147.609375 75.632812 Z M 135.132812 70.953125 L 145.265625 70.953125 L 145.265625 19.40625 L 135.132812 19.40625 Z M 135.132812 70.953125 " fill-opacity="1" fill-rule="nonzero"/><g clip-path="url(#034f9dbe85)"><path fill="#000000" d="M 39.527344 44.550781 C 37.519531 44.550781 35.527344 43.929688 33.84375 42.730469 C 31.199219 40.847656 29.683594 37.894531 29.683594 34.625 C 29.683594 32.640625 30.265625 30.722656 31.359375 29.078125 C 32.464844 27.429688 34.011719 26.164062 35.835938 25.417969 C 35.851562 25.414062 35.867188 25.40625 35.878906 25.402344 L 71.765625 11.558594 C 76.253906 9.734375 80.984375 8.808594 85.828125 8.808594 C 88.957031 8.808594 92.050781 9.238281 95.019531 10.085938 C 98.046875 10.949219 100.90625 12.238281 103.515625 13.917969 C 103.679688 14.019531 103.847656 14.132812 104.011719 14.242188 L 104.136719 14.324219 C 110.855469 18.878906 118.652344 21.277344 126.699219 21.277344 L 132.789062 21.277344 C 134.082031 21.277344 135.132812 22.324219 135.132812 23.617188 C 135.132812 24.90625 134.082031 25.953125 132.789062 25.953125 L 126.699219 25.953125 C 117.710938 25.953125 109.003906 23.277344 101.527344 18.207031 L 101.417969 18.136719 C 101.273438 18.039062 101.128906 17.945312 100.984375 17.851562 C 98.753906 16.417969 96.316406 15.320312 93.734375 14.582031 C 91.183594 13.855469 88.523438 13.488281 85.828125 13.488281 C 81.585938 13.488281 77.445312 14.296875 73.515625 15.898438 C 73.503906 15.90625 73.488281 15.910156 73.476562 15.914062 L 37.589844 29.753906 C 36.640625 30.148438 35.835938 30.808594 35.257812 31.671875 C 34.675781 32.542969 34.367188 33.566406 34.367188 34.625 C 34.367188 36.363281 35.167969 37.929688 36.566406 38.925781 C 37.917969 39.890625 39.585938 40.140625 41.132812 39.605469 L 43.023438 38.953125 C 43.035156 38.949219 43.050781 38.941406 43.066406 38.9375 L 77.066406 27.949219 C 78.296875 27.550781 79.617188 28.226562 80.015625 29.453125 C 80.414062 30.683594 79.738281 32 78.507812 32.398438 L 44.53125 43.378906 L 42.664062 44.027344 C 41.644531 44.378906 40.582031 44.550781 39.527344 44.550781 Z M 39.527344 44.550781 " fill-opacity="1" fill-rule="nonzero"/></g><path fill="#000000" d="M 132.789062 70.851562 L 114.296875 70.851562 C 109.808594 70.851562 105.5 69.175781 102.160156 66.140625 L 76.925781 43.476562 C 75.449219 42.253906 74.359375 40.707031 73.773438 39 C 72.523438 35.363281 73.449219 31.25 76.132812 28.519531 C 78.023438 26.597656 80.542969 25.539062 83.222656 25.539062 C 85.867188 25.539062 88.355469 26.570312 90.234375 28.445312 L 109.773438 45.226562 C 110.753906 46.070312 110.867188 47.546875 110.023438 48.527344 C 109.179688 49.503906 107.699219 49.617188 106.71875 48.773438 L 87.113281 31.933594 C 87.0625 31.890625 87.015625 31.84375 86.96875 31.800781 C 85.964844 30.78125 84.632812 30.21875 83.222656 30.21875 C 81.808594 30.21875 80.476562 30.78125 79.472656 31.800781 C 78.023438 33.273438 77.523438 35.503906 78.203125 37.480469 C 78.515625 38.386719 79.117188 39.222656 79.941406 39.898438 C 79.96875 39.921875 79.996094 39.941406 80.019531 39.964844 L 105.304688 62.671875 C 107.789062 64.933594 110.980469 66.171875 114.296875 66.171875 L 132.792969 66.171875 C 134.085938 66.171875 135.132812 67.21875 135.132812 68.511719 C 135.132812 69.804688 134.085938 70.851562 132.789062 70.851562 Z M 132.789062 70.851562 " fill-opacity="1" fill-rule="nonzero"/><path fill="#000000" d="M 75 90.425781 C 74.367188 90.425781 73.765625 90.171875 73.324219 89.722656 L 62.027344 78.191406 C 60.28125 76.410156 59.320312 74.042969 59.320312 71.527344 C 59.320312 69.011719 60.28125 66.644531 62.027344 64.863281 C 63.789062 63.066406 66.132812 62.074219 68.628906 62.074219 C 71.019531 62.074219 73.265625 62.980469 75 64.632812 C 76.730469 62.984375 78.976562 62.078125 81.367188 62.074219 C 83.863281 62.074219 86.207031 63.066406 87.96875 64.863281 C 89.71875 66.644531 90.679688 69.011719 90.679688 71.527344 C 90.679688 74.042969 89.71875 76.410156 87.96875 78.191406 L 76.671875 89.722656 C 76.230469 90.171875 75.628906 90.425781 75 90.425781 Z M 68.628906 66.753906 C 67.402344 66.753906 66.25 67.242188 65.378906 68.132812 C 64.492188 69.035156 64.007812 70.242188 64.007812 71.527344 C 64.007812 72.8125 64.492188 74.019531 65.378906 74.921875 L 75 84.742188 L 84.621094 74.921875 C 85.507812 74.019531 85.996094 72.8125 85.996094 71.527344 C 85.996094 70.242188 85.507812 69.035156 84.621094 68.132812 C 83.75 67.242188 82.59375 66.753906 81.367188 66.753906 C 80.140625 66.753906 78.988281 67.242188 78.117188 68.132812 L 76.671875 69.605469 C 76.230469 70.054688 75.628906 70.308594 75 70.308594 C 74.367188 70.308594 73.765625 70.054688 73.324219 69.605469 L 71.878906 68.132812 C 71.007812 67.242188 69.855469 66.753906 68.628906 66.753906 Z M 68.628906 66.753906 " fill-opacity="1" fill-rule="nonzero"/></svg>