<svg xmlns="http://www.w3.org/2000/svg" xmlns:xlink="http://www.w3.org/1999/xlink" width="200" zoomAndPan="magnify" viewBox="0 0 150 149.999998" height="200" preserveAspectRatio="xMidYMid meet" version="1.0"><defs><clipPath id="3232336544"><path d="M 0 10.03125 L 150 10.03125 L 150 139.78125 L 0 139.78125 Z M 0 10.03125 " clip-rule="nonzero"/></clipPath></defs><g clip-path="url(#3232336544)"><path fill="#000000" d="M 144.964844 124.808594 L 119.976562 124.808594 L 119.976562 82.390625 C 119.976562 81.015625 121.101562 79.898438 122.476562 79.898438 L 142.46875 79.898438 C 143.84375 79.898438 144.964844 81.015625 144.964844 82.390625 Z M 144.964844 132.296875 C 144.964844 133.671875 143.84375 134.789062 142.46875 134.789062 L 122.476562 134.789062 C 121.101562 134.789062 119.976562 133.671875 119.976562 132.296875 L 119.976562 129.800781 L 144.964844 129.800781 Z M 114.980469 82.390625 L 114.980469 84.886719 L 60.007812 84.886719 L 60.007812 67.421875 C 60.007812 66.191406 59.675781 65.042969 59.148438 64.027344 C 59.1875 63.988281 59.234375 63.980469 59.273438 63.941406 L 84.007812 39.242188 C 84.984375 38.269531 84.984375 36.6875 84.007812 35.714844 C 83.035156 34.738281 81.453125 34.738281 80.476562 35.714844 L 55.742188 60.414062 C 55.683594 60.480469 55.664062 60.558594 55.605469 60.628906 C 54.660156 60.1875 53.613281 59.933594 52.511719 59.933594 L 15.027344 59.933594 L 15.027344 22.507812 C 15.027344 18.375 18.386719 15.023438 22.523438 15.023438 L 127.476562 15.023438 C 131.613281 15.023438 134.972656 18.375 134.972656 22.507812 L 134.972656 74.90625 L 122.476562 74.90625 C 118.339844 74.90625 114.980469 78.257812 114.980469 82.390625 Z M 114.980469 104.847656 L 60.007812 104.847656 L 60.007812 89.878906 L 114.980469 89.878906 Z M 70.003906 124.808594 L 70.003906 109.839844 L 79.996094 109.839844 L 79.996094 124.808594 Z M 60.007812 124.808594 L 60.007812 109.839844 L 65.003906 109.839844 L 65.003906 124.808594 Z M 92.492188 129.800781 C 95.75 129.800781 98.523438 131.886719 99.558594 134.789062 L 59.546875 134.789062 C 59.820312 134.011719 60.007812 133.171875 60.007812 132.296875 L 60.007812 129.800781 Z M 55.007812 124.808594 L 5.035156 124.808594 L 5.035156 67.421875 C 5.035156 66.046875 6.15625 64.925781 7.53125 64.925781 L 52.511719 64.925781 C 53.886719 64.925781 55.007812 66.046875 55.007812 67.421875 Z M 55.007812 132.296875 C 55.007812 133.671875 53.886719 134.789062 52.511719 134.789062 L 7.53125 134.789062 C 6.15625 134.789062 5.035156 133.671875 5.035156 132.296875 L 5.035156 129.800781 L 55.007812 129.800781 Z M 142.46875 74.90625 L 139.96875 74.90625 L 139.96875 22.507812 C 139.96875 15.625 134.367188 10.03125 127.476562 10.03125 L 22.523438 10.03125 C 15.632812 10.03125 10.03125 15.625 10.03125 22.507812 L 10.03125 59.933594 L 7.53125 59.933594 C 3.394531 59.933594 0.0351562 63.289062 0.0351562 67.421875 L 0.0351562 132.296875 C 0.0351562 136.429688 3.394531 139.78125 7.53125 139.78125 L 102.488281 139.78125 C 103.863281 139.78125 104.984375 138.660156 104.984375 137.285156 C 104.984375 130.40625 99.382812 124.808594 92.492188 124.808594 L 84.996094 124.808594 L 84.996094 109.839844 L 114.980469 109.839844 L 114.980469 132.296875 C 114.980469 136.429688 118.339844 139.78125 122.476562 139.78125 L 142.46875 139.78125 C 146.605469 139.78125 149.964844 136.429688 149.964844 132.296875 L 149.964844 82.390625 C 149.964844 78.257812 146.605469 74.90625 142.46875 74.90625 " fill-opacity="1" fill-rule="nonzero"/></g><path fill="#000000" d="M 29.894531 90.304688 C 28.917969 89.332031 27.335938 89.332031 26.359375 90.304688 L 15.761719 100.890625 C 14.785156 101.867188 14.785156 103.445312 15.761719 104.417969 C 16.25 104.90625 16.882812 105.152344 17.527344 105.152344 C 18.171875 105.152344 18.804688 104.90625 19.292969 104.417969 L 29.894531 93.835938 C 30.871094 92.859375 30.871094 91.28125 29.894531 90.304688 " fill-opacity="1" fill-rule="nonzero"/><path fill="#000000" d="M 41.355469 90.304688 L 30.753906 100.890625 C 29.777344 101.867188 29.777344 103.445312 30.753906 104.417969 C 31.242188 104.90625 31.875 105.152344 32.519531 105.152344 C 33.164062 105.152344 33.800781 104.90625 34.289062 104.417969 L 44.886719 93.835938 C 45.863281 92.859375 45.863281 91.28125 44.886719 90.304688 C 43.910156 89.332031 42.332031 89.332031 41.355469 90.304688 " fill-opacity="1" fill-rule="nonzero"/><path fill="#000000" d="M 95.722656 35.714844 L 70.988281 60.414062 C 70.011719 61.386719 70.011719 62.964844 70.988281 63.941406 C 71.476562 64.429688 72.109375 64.671875 72.753906 64.671875 C 73.390625 64.671875 74.035156 64.429688 74.523438 63.941406 L 99.257812 39.242188 C 100.230469 38.269531 100.230469 36.6875 99.257812 35.714844 C 98.28125 34.738281 96.699219 34.738281 95.722656 35.714844 " fill-opacity="1" fill-rule="nonzero"/><path fill="#000000" d="M 134.238281 97.0625 L 127.171875 104.117188 C 126.195312 105.09375 126.195312 106.671875 127.171875 107.644531 C 127.660156 108.132812 128.304688 108.375 128.9375 108.375 C 129.582031 108.375 130.21875 108.132812 130.707031 107.644531 L 137.773438 100.589844 C 138.75 99.613281 138.75 98.035156 137.773438 97.0625 C 136.796875 96.085938 135.214844 96.085938 134.238281 97.0625 " fill-opacity="1" fill-rule="nonzero"/><path fill="#000000" d="M 75.046875 99.859375 C 76.433594 99.859375 77.546875 98.738281 77.546875 97.363281 C 77.546875 95.988281 76.433594 94.867188 75.046875 94.867188 L 75.027344 94.867188 C 73.644531 94.867188 72.539062 95.988281 72.539062 97.363281 C 72.539062 98.738281 73.671875 99.859375 75.046875 99.859375 " fill-opacity="1" fill-rule="nonzero"/><path fill="#000000" d="M 79.996094 20.011719 L 70.003906 20.011719 C 68.625 20.011719 67.503906 21.132812 67.503906 22.507812 C 67.503906 23.882812 68.625 25.003906 70.003906 25.003906 L 79.996094 25.003906 C 81.375 25.003906 82.496094 23.882812 82.496094 22.507812 C 82.496094 21.132812 81.375 20.011719 79.996094 20.011719 " fill-opacity="1" fill-rule="nonzero"/></svg>