<svg xmlns="http://www.w3.org/2000/svg" xmlns:xlink="http://www.w3.org/1999/xlink" width="200" zoomAndPan="magnify" viewBox="0 0 150 149.999998" height="200" preserveAspectRatio="xMidYMid meet" version="1.0"><path fill="#000000" d="M 74.828125 5.269531 C 77.230469 5.269531 79.660156 5.394531 82.0625 5.644531 L 82.5625 0.6875 C 80.003906 0.4375 77.417969 0.28125 74.828125 0.28125 C 70.496094 0.28125 66.160156 0.65625 61.921875 1.402344 L 62.761719 6.328125 C 66.722656 5.613281 70.773438 5.269531 74.828125 5.269531 Z M 74.828125 5.269531 " fill-opacity="1" fill-rule="nonzero"/><path fill="#000000" d="M 33.890625 18.519531 L 30.960938 14.46875 C 21.574219 21.265625 13.78125 30.273438 8.449219 40.53125 C 2.929688 51.132812 0 63.074219 0 75.109375 C 0 86.769531 2.617188 97.933594 7.730469 108.28125 L 12.191406 106.070312 C 7.421875 96.402344 4.988281 85.992188 4.988281 75.109375 C 4.988281 63.886719 7.699219 52.722656 12.875 42.839844 C 17.867188 33.265625 25.128906 24.878906 33.890625 18.519531 Z M 33.890625 18.519531 " fill-opacity="1" fill-rule="nonzero"/><path fill="#000000" d="M 77.230469 144.917969 L 77.386719 149.90625 C 84.429688 149.65625 91.382812 148.441406 98.023438 146.289062 L 96.464844 141.550781 C 90.292969 143.546875 83.808594 144.699219 77.230469 144.917969 Z M 77.230469 144.917969 " fill-opacity="1" fill-rule="nonzero"/><path fill="#000000" d="M 29.929688 72.613281 L 34.921875 72.613281 L 34.921875 129.984375 L 29.929688 129.984375 Z M 29.929688 72.613281 " fill-opacity="1" fill-rule="nonzero"/><path fill="#000000" d="M 44.898438 72.613281 L 49.886719 72.613281 L 49.886719 129.984375 L 44.898438 129.984375 Z M 44.898438 72.613281 " fill-opacity="1" fill-rule="nonzero"/><path fill="#000000" d="M 59.863281 72.613281 L 64.851562 72.613281 L 64.851562 129.984375 L 59.863281 129.984375 Z M 59.863281 72.613281 " fill-opacity="1" fill-rule="nonzero"/><path fill="#000000" d="M 148.253906 77.511719 L 103.292969 55.871094 C 99.585938 54.09375 95.09375 55.652344 93.316406 59.363281 L 79.816406 87.425781 L 79.816406 62.636719 C 79.816406 55.746094 74.234375 50.167969 67.34375 50.167969 L 57.367188 50.167969 L 57.367188 10.257812 C 57.367188 4.769531 52.878906 0.28125 47.390625 0.28125 C 41.902344 0.28125 37.414062 4.769531 37.414062 10.257812 L 37.414062 50.167969 L 27.4375 50.167969 C 20.546875 50.167969 14.964844 55.746094 14.964844 62.636719 L 14.964844 127.488281 C 14.964844 132.882812 18.394531 137.464844 23.195312 139.210938 C 22.730469 140.179688 22.449219 141.300781 22.449219 142.453125 C 22.449219 146.570312 25.816406 149.9375 29.929688 149.9375 C 34.046875 149.9375 37.414062 146.570312 37.414062 142.453125 C 37.414062 141.582031 37.257812 140.738281 36.976562 139.960938 L 57.804688 139.960938 C 57.523438 140.738281 57.367188 141.582031 57.367188 142.453125 C 57.367188 146.570312 60.734375 149.9375 64.851562 149.9375 C 68.96875 149.9375 72.335938 146.570312 72.335938 142.453125 C 72.335938 141.300781 72.054688 140.210938 71.585938 139.210938 C 75.546875 137.777344 78.539062 134.410156 79.503906 130.265625 L 114.738281 147.195312 C 115.078125 147.351562 115.453125 147.441406 115.828125 147.441406 C 116.765625 147.441406 117.636719 146.914062 118.074219 146.039062 L 149.4375 80.847656 C 150 79.597656 149.46875 78.101562 148.253906 77.511719 Z M 100.050781 60.144531 C 100.425781 60.144531 100.769531 60.238281 101.144531 60.394531 L 143.859375 80.941406 L 141.707031 85.429688 L 98.992188 64.882812 C 97.746094 64.289062 97.214844 62.792969 97.839844 61.546875 C 98.210938 60.671875 99.117188 60.144531 100.050781 60.144531 Z M 42.402344 10.257812 C 42.402344 7.515625 44.648438 5.269531 47.390625 5.269531 C 50.136719 5.269531 52.378906 7.515625 52.378906 10.257812 L 52.378906 50.167969 L 42.402344 50.167969 Z M 32.425781 142.453125 C 32.425781 143.828125 31.304688 144.949219 29.929688 144.949219 C 28.558594 144.949219 27.4375 143.828125 27.4375 142.453125 C 27.4375 141.082031 28.558594 139.960938 29.929688 139.960938 C 31.304688 139.960938 32.425781 141.082031 32.425781 142.453125 Z M 64.851562 144.949219 C 63.480469 144.949219 62.355469 143.828125 62.355469 142.453125 C 62.355469 141.082031 63.480469 139.960938 64.851562 139.960938 C 66.222656 139.960938 67.34375 141.082031 67.34375 142.453125 C 67.34375 143.828125 66.222656 144.949219 64.851562 144.949219 Z M 67.34375 134.972656 L 27.4375 134.972656 C 23.320312 134.972656 19.953125 131.605469 19.953125 127.488281 L 19.953125 62.636719 C 19.953125 58.523438 23.320312 55.15625 27.4375 55.15625 L 37.414062 55.15625 L 37.414062 67.625 L 42.402344 67.625 L 42.402344 55.15625 L 52.378906 55.15625 L 52.378906 67.625 L 57.367188 67.625 L 57.367188 55.15625 L 67.34375 55.15625 C 71.460938 55.15625 74.828125 58.523438 74.828125 62.636719 L 74.828125 97.808594 L 66.285156 115.609375 C 65.414062 117.417969 65.320312 119.445312 65.972656 121.316406 C 66.628906 123.1875 68 124.714844 69.777344 125.585938 L 74.828125 128.019531 C 74.546875 131.886719 71.304688 134.972656 67.34375 134.972656 Z M 114.644531 141.613281 L 71.929688 121.066406 C 71.335938 120.785156 70.867188 120.285156 70.652344 119.632812 C 70.433594 119.007812 70.464844 118.324219 70.742188 117.730469 L 94.71875 67.90625 C 95.3125 68.5 96 69 96.777344 69.371094 L 139.492188 89.917969 Z M 114.644531 141.613281 " fill-opacity="1" fill-rule="nonzero"/><path fill="#000000" d="M 114.863281 83.589844 C 106.195312 79.410156 95.71875 83.089844 91.570312 91.757812 C 89.542969 95.96875 89.296875 100.707031 90.824219 105.101562 C 92.351562 109.5 95.53125 113.054688 99.738281 115.050781 C 102.171875 116.234375 104.761719 116.761719 107.285156 116.761719 C 113.800781 116.761719 120.039062 113.117188 123.0625 106.878906 C 127.207031 98.242188 123.53125 87.769531 114.863281 83.589844 Z M 119.382812 102.390625 L 114.925781 100.238281 C 115.921875 97.496094 116.421875 94.597656 116.359375 91.632812 L 116.359375 90.761719 C 119.257812 93.847656 120.441406 98.210938 119.382812 102.390625 Z M 103.886719 107.285156 L 103.230469 107.785156 L 103.230469 106.941406 C 103.199219 104.761719 103.542969 102.609375 104.230469 100.582031 L 108.25 102.515625 C 107.066406 104.355469 105.601562 105.945312 103.886719 107.285156 Z M 106.382812 96.125 C 107.535156 94.316406 109 92.726562 110.714844 91.382812 L 111.371094 90.886719 L 111.371094 91.726562 C 111.402344 93.910156 111.058594 96.0625 110.371094 98.085938 Z M 107.316406 86.863281 C 107.660156 86.863281 108.003906 86.894531 108.34375 86.894531 L 107.660156 87.425781 C 105.320312 89.234375 103.355469 91.445312 101.828125 93.941406 L 97.371094 91.789062 C 99.769531 88.640625 103.480469 86.863281 107.316406 86.863281 Z M 95.21875 96.28125 L 99.679688 98.429688 C 98.679688 101.175781 98.179688 104.074219 98.242188 107.035156 L 98.242188 107.910156 C 97.058594 106.660156 96.125 105.132812 95.53125 103.449219 C 94.71875 101.113281 94.597656 98.648438 95.21875 96.28125 Z M 106.257812 111.773438 L 106.941406 111.246094 C 109.28125 109.4375 111.246094 107.222656 112.773438 104.730469 L 117.230469 106.878906 C 114.644531 110.308594 110.464844 112.117188 106.257812 111.773438 Z M 106.257812 111.773438 " fill-opacity="1" fill-rule="nonzero"/><path fill="#000000" d="M 83.085938 120.898438 L 85.246094 116.402344 L 107.722656 127.214844 L 105.5625 131.710938 Z M 83.085938 120.898438 " fill-opacity="1" fill-rule="nonzero"/><path fill="#000000" d="M 107.785156 34.671875 C 104.761719 31.644531 99.800781 31.644531 96.777344 34.671875 C 95.6875 35.761719 93.910156 35.761719 92.820312 34.671875 L 92.195312 34.046875 C 85.367188 27.21875 74.296875 27.21875 67.46875 34.046875 C 66.097656 35.417969 64.289062 36.167969 62.386719 36.167969 L 62.386719 41.15625 C 65.628906 41.15625 68.71875 39.878906 71.023438 37.570312 C 75.886719 32.707031 83.839844 32.707031 88.703125 37.570312 L 89.328125 38.195312 C 92.351562 41.21875 97.308594 41.21875 100.332031 38.195312 C 101.421875 37.101562 103.199219 37.101562 104.292969 38.195312 L 108.875 42.777344 C 117.917969 51.820312 129.796875 57.027344 142.484375 57.554688 C 143.546875 61.703125 144.230469 65.910156 144.542969 70.246094 L 149.53125 69.902344 C 148.847656 59.957031 146.257812 50.414062 141.800781 41.53125 L 137.339844 43.773438 C 138.777344 46.613281 139.992188 49.511719 140.988281 52.472656 C 130.203125 51.601562 120.164062 46.984375 112.429688 39.253906 Z M 107.785156 34.671875 " fill-opacity="1" fill-rule="nonzero"/><path fill="#000000" d="M 85.992188 12.378906 L 127.519531 37.757812 C 128.734375 38.503906 130.078125 38.847656 131.417969 38.847656 C 133.351562 38.847656 135.253906 38.101562 136.71875 36.664062 L 146.414062 26.96875 C 146.882812 26.5 147.132812 25.878906 147.132812 25.191406 C 147.132812 24.507812 146.882812 23.882812 146.414062 23.414062 L 141.425781 18.425781 C 140.585938 17.585938 139.273438 17.460938 138.277344 18.113281 L 132.164062 22.167969 L 120.816406 14.621094 L 126.710938 6.765625 C 127.457031 5.769531 127.363281 4.394531 126.492188 3.492188 L 123.996094 0.996094 C 123.25 0.25 122.0625 0.0625 121.128906 0.53125 L 107.378906 7.390625 L 102.734375 4.644531 C 97.808594 1.683594 91.539062 2.464844 87.488281 6.515625 L 85.523438 8.480469 C 84.992188 9.011719 84.710938 9.789062 84.804688 10.539062 C 84.898438 11.316406 85.335938 11.972656 85.992188 12.378906 Z M 100.175781 8.917969 L 105.976562 12.378906 C 106.691406 12.8125 107.597656 12.84375 108.375 12.472656 L 120.878906 6.234375 L 115.234375 13.75 C 114.832031 14.3125 114.644531 14.996094 114.769531 15.683594 C 114.894531 16.367188 115.265625 16.960938 115.828125 17.335938 L 130.792969 27.3125 C 131.636719 27.875 132.726562 27.875 133.570312 27.3125 L 139.367188 23.445312 L 141.144531 25.222656 L 133.226562 33.144531 C 132.414062 33.953125 131.136719 34.109375 130.171875 33.515625 L 91.320312 9.789062 C 93.753906 7.578125 97.339844 7.203125 100.175781 8.917969 Z M 100.175781 8.917969 " fill-opacity="1" fill-rule="nonzero"/></svg>